<svg width="24" height="22" viewBox="0 0 24 22" fill="none" xmlns="http://www.w3.org/2000/svg">
<path d="M2.03225 9.9817C2.10893 10.3393 2.28145 10.6512 2.47315 10.8071C2.94225 11.9439 3.49893 12.7659 4.20367 13.1545C3.9825 13.8843 3.51391 14.6955 2.93656 14.819C1.91381 15.0124 0.788603 15.4219 0.321939 15.8376C0.101488 16.0201 0.0262061 16.1648 0.00125669 16.5002C-0.0192269 16.7756 0.213561 17 0.490069 17H3.08093C4.16143 16.4261 5.71325 15.9545 7.07598 15.7042C7.36194 15.6463 7.69261 15.365 8 14.9245C7.83978 14.8842 7.67864 14.849 7.52122 14.819C6.93216 14.693 6.45716 13.8512 6.24108 13.1102C6.58283 12.9033 6.88931 12.5922 7.16776 12.1908C7.04366 11.9891 6.92258 11.7791 6.80756 11.5619L6.23247 10.357L5.78954 9.8185C5.61399 9.5035 5.48182 9.15 5.40211 8.7955C5.24169 8.0865 5.26086 7.03239 5.86219 6.5521L5.93887 6.51052L5.83293 5.47509C5.82687 5.33579 5.82284 5.19648 5.82284 5.05614C5.62307 5.01975 5.41018 5 5.18418 5C3.59711 5 2.65779 5.95434 2.43986 6.75898C2.39546 6.87853 2.3652 7.00016 2.34905 7.11244C2.23504 7.74243 2.29659 8.388 2.39143 9.0596C2.37838 9.0569 2.3666 9.0551 2.36045 9.0541C2.35709 9.0536 2.35612 9.0533 2.35612 9.0533C2.33089 9.0513 2.32585 9.0513 2.32181 9.0513C2.05041 9.0513 1.92025 9.4671 2.03225 9.9817Z" fill="white"/>
<path d="M6.57029 8.5184C6.70468 9.1307 7.00154 9.664 7.3315 9.9307C8.04222 11.643 8.87105 12.9368 9.88772 13.675C9.42188 14.8324 8.60077 15.9899 7.61297 16.1823C5.65343 16.5223 3.50154 17.238 2.60663 17.9646C2.21617 18.2607 2.06392 18.4996 2.00572 19.0008C1.94201 19.5494 2.41996 20 2.97385 20H14.5997C14.2163 19.2499 14 18.4002 14 17.5C14 16.5241 14.2542 15.6075 14.7 14.8129C14.4684 14.4588 14.2703 14.0673 14.1127 13.6758C15.1299 12.9378 15.9593 11.6437 16.6696 9.9307C16.9996 9.664 17.2975 9.1307 17.4318 8.5184C17.6244 7.6416 17.3988 6.92694 16.9294 6.92907C16.9276 6.92782 16.9252 6.92803 16.9134 6.92907C16.905 6.9298 16.892 6.93094 16.8712 6.93227C16.8833 6.92907 16.8482 6.9344 16.812 6.94187C16.9735 5.79413 17.0798 4.6912 16.8843 3.61493C16.8542 3.4208 16.802 3.21493 16.7278 3.00587C16.3527 1.63307 14.733 0 12.0011 0C9.26612 0 7.64742 1.63307 7.27333 3.00587C7.19711 3.21493 7.14496 3.4208 7.11687 3.61493C6.9203 4.6912 7.02762 5.79413 7.18708 6.94187C7.16332 6.93597 7.1383 6.9334 7.13032 6.93258L7.12791 6.93227C7.1146 6.93123 7.10476 6.93031 7.09727 6.92961C7.0816 6.92814 7.07617 6.92763 7.07074 6.92907C6.60238 6.92694 6.37773 7.6416 6.57029 8.5184Z" fill="white"/>
<path d="M20.8213 12.1597C20.398 12.0554 19.9555 12 19.5 12C18.6424 12 17.8306 12.1963 17.1071 12.5464C17.0125 12.4373 16.9209 12.3187 16.8322 12.1908C16.9563 11.9891 17.0774 11.7791 17.1924 11.5619L17.7675 10.357L18.2105 9.8185C18.386 9.5035 18.5182 9.15 18.5979 8.7955C18.7583 8.0865 18.7391 7.03239 18.1378 6.5521L18.0611 6.51052L18.1671 5.47509C18.1731 5.33579 18.1772 5.19648 18.1772 5.05614C18.3769 5.01975 18.5898 5 18.8158 5C20.4029 5 21.3422 5.95434 21.5601 6.75898C21.6045 6.87853 21.6348 7.00016 21.6509 7.11244C21.765 7.74243 21.7034 8.388 21.6086 9.0596C21.6216 9.0569 21.6334 9.0551 21.6395 9.0541L21.6439 9.0533C21.6691 9.0513 21.6741 9.0513 21.6782 9.0513C21.9496 9.0513 22.0797 9.4671 21.9678 9.9817C21.8911 10.3393 21.7185 10.6512 21.5268 10.8071C21.312 11.3279 21.0787 11.7825 20.8213 12.1597Z" fill="white"/>
<path fill-rule="evenodd" clip-rule="evenodd" d="M24 17.5C24 19.9853 21.9853 22 19.5 22C17.0147 22 15 19.9853 15 17.5C15 15.0147 17.0147 13 19.5 13C21.9853 13 24 15.0147 24 17.5ZM19.5 15C19.7761 15 20 15.2239 20 15.5V17H21.5C21.7761 17 22 17.2239 22 17.5C22 17.7761 21.7761 18 21.5 18H20V19.5C20 19.7761 19.7761 20 19.5 20C19.2239 20 19 19.7761 19 19.5V18H17.5C17.2239 18 17 17.7761 17 17.5C17 17.2239 17.2239 17 17.5 17H19V15.5C19 15.2239 19.2239 15 19.5 15Z" fill="white"/>
</svg>
