<svg width="166" height="100" viewBox="0 0 166 100" fill="none" xmlns="http://www.w3.org/2000/svg">
<path d="M49.8002 83.3993C68.1361 83.3993 83.0002 68.5352 83.0002 50.1993C83.0002 31.8634 68.1361 16.9993 49.8002 16.9993C31.4643 16.9993 16.6002 31.8634 16.6002 50.1993C16.6002 68.5352 31.4643 83.3993 49.8002 83.3993Z" fill="#5BC4BF"/>
<path d="M11.0664 50.1995C11.1423 24.2552 32.1556 3.24188 58.0999 3.16602H49.7999C23.8556 3.24188 2.84229 24.2552 2.76642 50.1995C2.84229 76.1438 23.8556 97.1571 49.7999 97.233H58.0999C32.1556 97.1571 11.1423 76.1438 11.0664 50.1995Z" fill="white"/>
<path d="M116.2 100H49.8C22.2962 100 0 77.7038 0 50.2C0 22.6961 22.2962 0.399902 49.8 0.399902H116.2C143.704 0.399902 166 22.6961 166 50.2C166 77.7038 143.704 100 116.2 100ZM49.8 5.93335C25.3523 5.93335 5.53345 25.7522 5.53345 50.2C5.53345 74.6477 25.3523 94.4665 49.8 94.4665H116.2C140.648 94.4665 160.467 74.6477 160.467 50.2C160.467 25.7522 140.648 5.93335 116.2 5.93335H49.8Z" fill="#5BC4BF"/>
<path d="M49.8 86.1663C29.936 86.1663 13.8334 70.0633 13.8334 50.1997C13.8334 30.3361 29.936 14.2332 49.8 14.2332C69.6639 14.2332 85.7666 30.3358 85.7666 50.1997C85.7439 70.0539 69.6542 86.1436 49.8 86.1663ZM49.8 19.7663C32.9921 19.7663 19.3665 33.3919 19.3665 50.1997C19.3665 67.0076 32.9921 80.6332 49.8 80.6332C66.6078 80.6332 80.2334 67.0076 80.2334 50.1997C80.2143 33.3997 66.6 19.7854 49.8 19.7663Z" fill="#5BC4BF"/>
<path d="M113.434 64.0327C112.699 64.0336 111.996 63.7418 111.478 63.2221L100.411 52.1552C99.3468 51.072 99.3549 49.3342 100.428 48.2607C101.502 47.1872 103.239 47.1794 104.323 48.2432L115.39 59.3098C116.181 60.1009 116.417 61.2907 115.989 62.3243C115.561 63.3583 114.552 64.0323 113.434 64.0327Z" fill="#5BC4BF"/>
<path d="M113.434 64.0336C112.315 64.0333 111.306 63.3592 110.878 62.3256C110.45 61.292 110.687 60.1021 111.478 59.311L133.611 37.1775C134.308 36.4682 135.332 36.1871 136.293 36.4416C137.254 36.6961 138.005 37.4466 138.259 38.408C138.514 39.3693 138.233 40.3928 137.523 41.0896L115.39 63.2227C114.872 63.7424 114.167 64.0342 113.434 64.0336Z" fill="#5BC4BF"/>
</svg>
