<?xml version="1.0" encoding="UTF-8"?>
<svg id="Layer_1" data-name="Layer 1" xmlns="http://www.w3.org/2000/svg" version="1.1" viewBox="0 0 35 36">
  <defs>
    <style>
      .cls-1 {
        fill: #fff;
      }

      .cls-1, .cls-2, .cls-3, .cls-4 {
        stroke-width: 0px;
      }

      .cls-1, .cls-4 {
        fill-rule: evenodd;
      }

      .cls-2 {
        fill: #d4edec;
      }

      .cls-3 {
        fill: #1f4b51;
      }

      .cls-4 {
        fill: #5bc4bf;
      }
    </style>
  </defs>
  <rect class="cls-2" y=".7" width="35" height="35" rx="3" ry="3"/>
  <path class="cls-4" d="M6.2,17.8v7.9c0,1.2,1,2.2,2.2,2.2h6c.4,0,.8-.3.8-.8s-.3-.8-.8-.8h-6c-.4,0-.7-.3-.7-.7v-7.9c0-.4-.3-.8-.8-.8s-.8.3-.8.8ZM10.3,23.1h2.3c.4,0,.8-.3.8-.8s-.3-.8-.8-.8h-2.3c-.4,0-.8.3-.8.8s.3.8.8.8ZM10.3,20.8h2.3c.4,0,.8-.3.8-.8s-.3-.8-.8-.8h-2.3c-.4,0-.8.3-.8.8s.3.8.8.8ZM10.3,18.5h2.3c.4,0,.8-.3.8-.8s-.3-.8-.8-.8h-2.3c-.4,0-.8.3-.8.8s.3.8.8.8ZM16.7,9.5h-4.5v-1.5c0-.4-.3-.8-.8-.8s-.8.3-.8.8v1.5h-2.3c-1.2,0-2.2,1-2.2,2.2v3c0,.4.3.8.8.8s.8-.3.8-.8v-.8h19.6v1.5c0,.4.3.8.8.8s.8-.3.8-.8v-3.8c0-.6-.2-1.2-.7-1.6-.4-.4-1-.7-1.6-.7h-2.3v-1.5c0-.4-.3-.8-.8-.8s-.8.3-.8.8v1.5h-4.5v-1.5c0-.4-.3-.8-.8-.8s-.8.3-.8.8v1.5Z"/>
  <g>
    <circle class="cls-3" cx="24.3" cy="23.4" r="6.8"/>
    <path class="cls-1" d="M22.3,21.3v3c0,.3.2.5.4.7l2.4,1.2c.4.2.8,0,1-.3.2-.4,0-.8-.3-1l-2-1v-2.6c0-.4-.3-.8-.8-.8s-.8.3-.8.8Z"/>
  </g>
</svg>