<svg width="35" height="36" viewBox="0 0 35 36" fill="none" xmlns="http://www.w3.org/2000/svg">
<rect y="0.660156" width="35" height="35" rx="3" fill="#EAECEB"/>
<path fill-rule="evenodd" clip-rule="evenodd" d="M22.0155 15.5199C18.2688 15.5199 15.2266 18.5621 15.2266 22.3088C15.2266 26.0559 18.2688 29.0977 22.0155 29.0977C25.7626 29.0977 28.8044 26.0559 28.8044 22.3088C28.8044 18.5621 25.7626 15.5199 22.0155 15.5199ZM6.1853 17.7829V25.6627C6.1853 26.9053 7.19259 27.9126 8.43522 27.9126H14.4724C14.8888 27.9126 15.2266 27.5744 15.2266 27.158C15.2266 26.7416 14.8888 26.4038 14.4724 26.4038C14.4724 26.4038 10.6316 26.4038 8.43522 26.4038C8.02572 26.4038 7.69406 26.0722 7.69406 25.6627V17.7829C7.69406 17.3669 7.35588 17.0287 6.9395 17.0287C6.52348 17.0287 6.1853 17.3669 6.1853 17.7829ZM21.2613 19.2822V22.3088C21.2613 22.5945 21.4228 22.8559 21.6784 22.9837L24.0891 24.189C24.4613 24.3751 24.915 24.2242 25.1011 23.8516C25.2872 23.4794 25.1362 23.0257 24.7636 22.8396L22.7701 21.8428V19.2822C22.7701 18.8658 22.4319 18.5277 22.0155 18.5277C21.5995 18.5277 21.2613 18.8658 21.2613 19.2822ZM10.3238 23.0633H12.5868C13.0028 23.0633 13.341 22.7252 13.341 22.3088C13.341 21.8928 13.0028 21.5546 12.5868 21.5546H10.3238C9.90741 21.5546 9.56924 21.8928 9.56924 22.3088C9.56924 22.7252 9.90741 23.0633 10.3238 23.0633ZM10.3238 20.8004H12.5868C13.0028 20.8004 13.341 20.4622 13.341 20.0458C13.341 19.6298 13.0028 19.2916 12.5868 19.2916H10.3238C9.90741 19.2916 9.56924 19.6298 9.56924 20.0458C9.56924 20.4622 9.90741 20.8004 10.3238 20.8004ZM10.3238 18.5374H12.5868C13.0028 18.5374 13.341 18.1993 13.341 17.7829C13.341 17.3669 13.0028 17.0287 12.5868 17.0287H10.3238C9.90741 17.0287 9.56924 17.3669 9.56924 17.7829C9.56924 18.1993 9.90741 18.5374 10.3238 18.5374ZM16.7459 9.48561H12.22V7.97685C12.22 7.56047 11.8818 7.22266 11.4654 7.22266C11.0494 7.22266 10.7112 7.56047 10.7112 7.97685V9.48561H8.43522C7.19259 9.48561 6.1853 10.4929 6.1853 11.7352V14.7657C6.1853 15.1821 6.52348 15.5199 6.9395 15.5199C7.35588 15.5199 7.69406 15.1821 7.69406 14.7657V14.0115H27.3061V15.5435C27.3061 15.9598 27.6443 16.298 28.0607 16.298C28.477 16.298 28.8149 15.9598 28.8149 15.5435V11.7352C28.8149 11.1385 28.5777 10.5664 28.1559 10.1446C27.7341 9.72241 27.162 9.48561 26.5653 9.48561H24.289V7.97685C24.289 7.56047 23.9511 7.22266 23.5348 7.22266C23.1184 7.22266 22.7802 7.56047 22.7802 7.97685V9.48561H18.2543V7.97685C18.2543 7.56047 17.9165 7.22266 17.5001 7.22266C17.0837 7.22266 16.7459 7.56047 16.7459 7.97685V9.48561Z" fill="#76818E"/>
</svg>
