<svg width="19" height="21" viewBox="0 0 19 21" fill="none" xmlns="http://www.w3.org/2000/svg">
<path d="M12.4199 13.1645C12.069 13.1166 11.5332 13.1721 10.9696 13.7091C10.0723 14.5571 10.3159 15.8611 10.3469 16.0081C10.5736 17.0654 11.4142 17.6461 11.9007 17.901C11.9701 17.9373 12.008 17.9534 12.0441 17.9687C12.0687 17.9793 12.0921 17.9892 12.1372 18.0134C12.5467 18.2335 12.8701 18.6095 13.0986 19.1306C13.1519 19.2519 13.2717 19.3302 13.404 19.3302C13.5363 19.33 13.6564 19.2516 13.7095 19.1303C13.9367 18.61 14.2601 18.2341 14.6709 18.0133C14.7158 17.9892 14.7393 17.9793 14.7638 17.9687C14.8 17.9534 14.8379 17.9373 14.9126 17.898C15.3932 17.6463 16.2334 17.0658 16.4596 16.0107C16.4725 15.9529 16.7643 14.5852 15.8394 13.7101C15.3986 13.2901 14.8831 13.0963 14.3885 13.1645C13.9015 13.2304 13.5785 13.5188 13.4616 13.6404C13.4414 13.6614 13.4222 13.6825 13.404 13.7039C13.3848 13.6816 13.3648 13.6593 13.3436 13.6373C13.1965 13.4876 12.8809 13.2271 12.4199 13.1645ZM13.7233 14.4796C13.7528 14.381 13.8149 14.2353 13.9426 14.102C13.9956 14.0468 14.1909 13.864 14.4787 13.825C14.7721 13.7841 15.0843 13.9117 15.3802 14.1936C16.0309 14.8092 15.8112 15.8554 15.8084 15.8684C15.6387 16.6601 14.9805 17.11 14.5983 17.3102C14.5523 17.3342 14.527 17.345 14.5028 17.3552C14.4637 17.372 14.4263 17.3878 14.355 17.4262C13.978 17.629 13.6597 17.9226 13.4037 18.3027C13.1473 17.9221 12.8291 17.6285 12.4531 17.4264C12.3817 17.3878 12.3442 17.372 12.3052 17.3552C12.2809 17.345 12.2557 17.3342 12.2046 17.3075C11.827 17.1096 11.1685 16.6598 10.999 15.8696C10.9899 15.8263 10.7832 14.8027 11.4286 14.1928C11.6877 13.9459 11.9596 13.8176 12.2219 13.8176C12.258 13.8176 12.2941 13.8201 12.3298 13.825C12.6043 13.8624 12.7977 14.033 12.8649 14.1013C12.993 14.2353 13.0552 14.381 13.0846 14.4796C13.1268 14.6209 13.2567 14.7175 13.404 14.7175C13.5513 14.7175 13.6812 14.6209 13.7233 14.4796Z" fill="black"/>
<path d="M0.325033 18.8062H9.62498C10.5261 19.9713 11.9212 20.6667 13.4022 20.6667C16.0441 20.6667 18.1935 18.5173 18.1935 15.8754C18.1935 13.3474 16.2216 11.2761 13.735 11.104V2.37769C13.735 2.1936 13.5858 2.04435 13.4017 2.04435H10.6424V1.00008C10.6424 0.815999 10.4932 0.666748 10.3091 0.666748H4.0153C3.83122 0.666748 3.68197 0.815999 3.68197 1.00008V2.04435H0.325033C0.140951 2.04435 -0.00830078 2.1936 -0.00830078 2.37769V18.4729C-0.00830078 18.657 0.140951 18.8062 0.325033 18.8062ZM17.5269 15.8754C17.5269 18.1498 15.6766 20.0001 13.4022 20.0001C12.0757 20.0001 10.8242 19.3567 10.0537 18.2781C9.54801 17.5759 9.28076 16.7452 9.28076 15.8754C9.28076 13.6028 11.1296 11.7538 13.4022 11.7538C15.6766 11.7538 17.5269 13.6028 17.5269 15.8754ZM4.34863 1.33341H9.97575V2.37769V3.42196H4.34863V2.37769V1.33341ZM0.658366 2.71102H3.68197V3.75529C3.68197 3.93937 3.83122 4.08862 4.0153 4.08862H10.3091C10.4932 4.08862 10.6424 3.93937 10.6424 3.75529V2.71102H13.0684V11.0987C13.0414 11.1006 13.0155 11.1058 12.9886 11.1081C12.915 11.1144 12.8426 11.1242 12.77 11.1339C12.686 11.145 12.6024 11.1567 12.5199 11.1721C12.4493 11.1854 12.38 11.2013 12.3106 11.2176C12.2284 11.2368 12.1468 11.2571 12.0662 11.2806C11.999 11.3001 11.933 11.3218 11.8671 11.3442C11.7873 11.3713 11.7083 11.3998 11.6304 11.431C11.5669 11.4564 11.5044 11.4833 11.4422 11.5113C11.3651 11.5461 11.289 11.5827 11.2141 11.6214C11.1546 11.6521 11.0959 11.6838 11.0379 11.7169C10.964 11.7591 10.8916 11.8034 10.8202 11.8493C10.7649 11.8849 10.7102 11.921 10.6564 11.9588C10.5864 12.0081 10.5184 12.0596 10.4512 12.1124C10.4001 12.1525 10.3494 12.1927 10.3001 12.2348C10.2343 12.2909 10.1711 12.3494 10.1085 12.409C10.0806 12.4355 10.0503 12.4595 10.023 12.4867H6.53255C6.34847 12.4867 6.19922 12.636 6.19922 12.8201C6.19922 13.0042 6.34847 13.1534 6.53255 13.1534H9.46787C9.44724 13.1831 9.4268 13.2129 9.40682 13.2431C9.35618 13.3197 9.30985 13.399 9.26357 13.4786C9.23385 13.5297 9.20276 13.5798 9.17491 13.6321C9.13021 13.716 9.09056 13.8026 9.05078 13.8894C9.02716 13.9409 9.00165 13.9913 8.97982 14.0438C8.9413 14.1364 8.90861 14.2318 8.87585 14.3273C8.85882 14.3769 8.83935 14.4253 8.82393 14.4756C8.79187 14.5802 8.76652 14.6876 8.74158 14.7951C8.73142 14.8389 8.71832 14.8815 8.70939 14.9257C8.68363 15.0531 8.66534 15.1831 8.64996 15.3139C8.64689 15.34 8.64126 15.3653 8.63861 15.3915C8.62256 15.5507 8.61361 15.712 8.61361 15.8754C8.61361 15.8827 8.61489 15.8898 8.61493 15.8971C8.61566 16.0652 8.62762 16.2315 8.64543 16.3966C8.65013 16.4402 8.65476 16.4838 8.66064 16.5272C8.68321 16.6936 8.71285 16.8584 8.75252 17.0205C8.76015 17.0516 8.77004 17.0819 8.7783 17.1129C8.81655 17.2564 8.86171 17.3977 8.91325 17.5369C8.92605 17.5714 8.93754 17.6063 8.95113 17.6405C9.01284 17.7959 9.08335 17.9478 9.16156 18.0964C9.16897 18.1105 9.17393 18.1256 9.18148 18.1396H0.658366V2.71102Z" fill="black"/>
<path d="M3.53239 5.54842C2.5778 5.54842 1.80127 6.32511 1.80127 7.2797C1.80127 8.23429 2.5778 9.01082 3.53239 9.01082C4.48698 9.01082 5.26367 8.23429 5.26367 7.2797C5.26367 6.32511 4.48698 5.54842 3.53239 5.54842ZM3.53239 8.34415C2.94548 8.34415 2.46794 7.86661 2.46794 7.2797C2.46794 6.69262 2.94548 6.21508 3.53239 6.21508C4.11947 6.21508 4.59701 6.69262 4.59701 7.2797C4.59701 7.86661 4.11947 8.34415 3.53239 8.34415Z" fill="black"/>
<path d="M3.53239 11.0872C2.5778 11.0872 1.80127 11.8639 1.80127 12.8184C1.80127 13.773 2.5778 14.5496 3.53239 14.5496C4.48698 14.5496 5.26367 13.773 5.26367 12.8184C5.26367 11.8639 4.48698 11.0872 3.53239 11.0872ZM3.53239 13.8829C2.94548 13.8829 2.46794 13.4054 2.46794 12.8184C2.46794 12.2314 2.94548 11.7538 3.53239 11.7538C4.11947 11.7538 4.59701 12.2314 4.59701 12.8184C4.59701 13.4054 4.11947 13.8829 3.53239 13.8829Z" fill="black"/>
<path d="M6.53353 7.61303H10.6284C10.8125 7.61303 10.9618 7.46378 10.9618 7.2797C10.9618 7.09562 10.8125 6.94637 10.6284 6.94637H6.53353C6.34945 6.94637 6.2002 7.09562 6.2002 7.2797C6.2002 7.46378 6.34945 7.61303 6.53353 7.61303Z" fill="black"/>
</svg>
