<svg width="27" height="26" viewBox="0 0 27 26" fill="none" xmlns="http://www.w3.org/2000/svg">
<path fill-rule="evenodd" clip-rule="evenodd" d="M18.9372 9.97424L21.2482 7.25222C21.3412 7.14283 21.2636 6.97556 21.1203 6.97556H20.0062V1.77048H17.6123V6.97556H16.4977C16.3543 6.97556 16.2768 7.14283 16.3697 7.25222L18.6807 9.97424C18.7477 10.0534 18.8698 10.0534 18.9367 9.97424H18.9372ZM9.125 9.14956L11.436 6.42754C11.5289 6.31815 11.4514 6.15088 11.308 6.15088H10.1934V0.945801H7.8001V6.15088H6.68549C6.54211 6.15088 6.46458 6.31815 6.55751 6.42754L8.86852 9.14956C8.93543 9.22869 9.05756 9.22869 9.12447 9.14956H9.125ZM3.16587 18.4292L5.47688 15.7072C5.56981 15.5978 5.49228 15.4305 5.3489 15.4305H4.23429V8.90954H1.8415V15.4305H0.726885C0.583509 15.4305 0.50598 15.5978 0.598909 15.7072L2.90992 18.4292C2.97683 18.5083 3.09896 18.5083 3.16587 18.4292ZM23.6957 17.501L26.0067 14.7789C26.0997 14.6695 26.0221 14.5023 25.8788 14.5023H24.7647V7.98132H22.3708V14.5023H21.2562C21.1128 14.5023 21.0353 14.6695 21.1282 14.7789L23.4392 17.501C23.5061 17.5801 23.6283 17.5801 23.6952 17.501H23.6957Z" fill="#43B09C"/>
<path fill-rule="evenodd" clip-rule="evenodd" d="M15.6566 11.563L21.6072 21.8697C22.0963 22.7172 22.0963 23.7394 21.6072 24.5869C21.1181 25.4344 20.2324 25.9458 19.2537 25.9458H7.35245C6.37378 25.9458 5.48856 25.4344 4.99896 24.5869C4.50936 23.7394 4.50989 22.7172 4.99896 21.8697L10.9496 11.563C11.4387 10.7155 12.3244 10.2042 13.3031 10.2042C14.2818 10.2042 15.167 10.7155 15.6566 11.563Z" fill="#76818E"/>
<path fill-rule="evenodd" clip-rule="evenodd" d="M13.3033 21.7093C12.7999 21.7093 12.392 22.1171 12.392 22.6205C12.392 23.1239 12.7999 23.5318 13.3033 23.5318C13.8067 23.5318 14.2145 23.1239 14.2145 22.6205C14.2145 22.1171 13.8067 21.7093 13.3033 21.7093Z" fill="white"/>
<path fill-rule="evenodd" clip-rule="evenodd" d="M13.3032 20.0822C13.6861 20.0822 14.0005 19.779 14.0143 19.3967L14.1943 14.4167C14.2086 14.0116 13.8889 13.6797 13.4832 13.6797H13.1237C12.718 13.6797 12.3984 14.0116 12.4127 14.4167L12.5927 19.3967C12.6065 19.779 12.9209 20.0822 13.3038 20.0822H13.3032Z" fill="white"/>
</svg>
