<svg width="28" height="26" viewBox="0 0 28 26" fill="none" xmlns="http://www.w3.org/2000/svg">
<path fill-rule="evenodd" clip-rule="evenodd" d="M8.6439 5.86475H24.3764C26.1835 5.86475 27.661 7.34444 27.661 9.14927V22.3825C27.661 24.1895 26.1813 25.667 24.3764 25.667H8.6439C6.83686 25.667 5.35938 24.1895 5.35938 22.3825V9.14927C5.35938 7.34444 6.83686 5.86475 8.6439 5.86475ZM12.4924 17.041C11.7891 17.041 11.2184 16.4703 11.2184 15.767C11.2184 15.0636 11.7891 14.493 12.4924 14.493H20.5301C21.2335 14.493 21.8041 15.0636 21.8041 15.767C21.8041 16.4703 21.2335 17.041 20.5301 17.041H12.4924Z" fill="#5BC4BF"/>
<path fill-rule="evenodd" clip-rule="evenodd" d="M2.71192 17.0255C2.71192 17.6404 2.21205 18.1402 1.59717 18.1402C0.982289 18.1402 0.482422 17.6404 0.482422 17.0255V5.06627C0.482422 3.85641 0.977866 2.75493 1.77411 1.95868C2.57036 1.16244 3.67184 0.666992 4.8817 0.666992H19.3402C19.9551 0.666992 20.455 1.16686 20.455 1.78174C20.455 2.39662 19.9551 2.89649 19.3402 2.89649H4.8817C4.28672 2.89649 3.74262 3.13979 3.34892 3.53349C2.95522 3.92719 2.71192 4.46908 2.71192 5.06627V17.0255Z" fill="#1F4B51"/>
</svg>
