<svg width="26" height="26" viewBox="0 0 26 26" fill="none" xmlns="http://www.w3.org/2000/svg">
<path d="M20.7434 13.1666C20.1674 13.1666 19.7018 13.6333 19.7018 14.2082V22.5419C19.7018 23.1158 19.235 23.5835 18.6601 23.5835H4.07627C3.50119 23.5835 3.03464 23.1158 3.03464 22.5419V7.95799C3.03464 7.38405 3.50119 6.91635 4.07627 6.91635H12.4099C12.986 6.91635 13.4516 6.44961 13.4516 5.87471C13.4516 5.29963 12.986 4.83289 12.4099 4.83289H4.07627C2.35331 4.83289 0.951172 6.23502 0.951172 7.95799V22.5419C0.951172 24.2648 2.35331 25.667 4.07627 25.667H18.6601C20.3831 25.667 21.7852 24.2648 21.7852 22.5419V14.2082C21.7852 13.6322 21.3195 13.1666 20.7434 13.1666Z" fill="#5BC4BF"/>
<path d="M10.7174 12.2175C10.6445 12.2904 10.5955 12.3831 10.5747 12.483L9.83826 16.1666C9.80393 16.3373 9.8581 16.5134 9.98094 16.6374C10.0799 16.7364 10.2133 16.7894 10.3498 16.7894C10.383 16.7894 10.4175 16.7863 10.4519 16.7791L14.1343 16.0426C14.2364 16.0216 14.3291 15.9728 14.401 15.8998L22.6429 7.65784L18.9605 3.97559L10.7174 12.2175Z" fill="#1F4B51"/>
<path d="M25.1885 1.42876C24.173 0.413068 22.5208 0.413068 21.5061 1.42876L20.0645 2.87039L23.7469 6.55283L25.1885 5.11102C25.6803 4.62043 25.9511 3.96619 25.9511 3.27037C25.9511 2.57455 25.6803 1.9203 25.1885 1.42876Z" fill="#1F4B51"/>
</svg>
