<svg width="35" height="35" viewBox="0 0 35 35" fill="none" xmlns="http://www.w3.org/2000/svg">
<rect width="35" height="35" rx="3" fill="#D4EDEC"/>
<path d="M21.5641 20.9542V21.132H17.1201V26.384H6.0908C5.79184 26.384 5.51712 26.2628 5.31916 26.0648C5.1212 25.8669 5 25.5921 5 25.2932C5 20.5381 8.97942 16.688 13.888 16.688C17.1605 16.688 20.0248 18.4009 21.5641 20.9542Z" fill="#5BC4BF"/>
<path d="M13.888 15.888C16.3424 15.888 18.3321 13.8984 18.3321 11.444C18.3321 8.98965 16.3424 7 13.888 7C11.4337 7 9.44403 8.98965 9.44403 11.444C9.44403 13.8984 11.4337 15.888 13.888 15.888Z" fill="#5BC4BF"/>
<path d="M17.928 21.94H21.1601V28H17.928V21.94Z" fill="#1F4B51"/>
<path d="M22.3721 19.112H25.6041V28H22.3721V19.112Z" fill="#1F4B51"/>
<path d="M26.8161 16.284H30.0481V28H26.8161V16.284Z" fill="#1F4B51"/>
</svg>
