<svg width="36" height="25" viewBox="0 0 36 25" fill="none" xmlns="http://www.w3.org/2000/svg">
<path d="M33.9333 19.3923C33.6877 19.4685 33.4261 19.5092 33.151 19.5092H23.3912C23.116 19.5092 22.8544 19.4685 22.6089 19.3923C21.2509 18.9741 20.4111 17.4959 20.8826 16.0516L21.361 14.5835C21.9333 12.8302 23.5435 11.6297 25.3773 11.5721C25.4239 11.5704 25.4696 11.5696 25.5162 11.5696H31.026C32.9173 11.5696 34.5945 12.7862 35.1812 14.5835L35.6595 16.0516C36.1311 17.4959 35.2912 18.9741 33.9333 19.3923Z" fill="#E6EAED"/>
<path d="M28.2711 10.1896C30.4841 10.1896 32.2781 8.39565 32.2781 6.18259C32.2781 3.96952 30.4841 2.17554 28.2711 2.17554C26.058 2.17554 24.264 3.96952 24.264 6.18259C24.264 8.39565 26.058 10.1896 28.2711 10.1896Z" fill="#E6EAED"/>
<path d="M26.9275 18.2918C26.6828 18.7642 26.3416 19.179 25.9336 19.5092H23.3912C23.116 19.5092 22.8544 19.4686 22.6089 19.3924C21.2509 18.9741 20.4111 17.4959 20.8826 16.0516L21.361 14.5836C21.9333 12.8302 23.5435 11.6297 25.3773 11.5721C25.9302 12.169 26.3611 12.8903 26.6261 13.7022L27.1654 15.3548C27.4854 16.3361 27.4007 17.3791 26.9275 18.2918Z" fill="#C7CED4"/>
<path d="M13.4789 19.3924C13.2334 19.4686 12.9718 19.5092 12.6967 19.5092H2.93683C2.66167 19.5092 2.40007 19.4686 2.15455 19.3924C0.796571 18.9742 -0.043275 17.496 0.428292 16.0516L0.906632 14.5836C1.49334 12.7862 3.17049 11.5696 5.06184 11.5696H10.5716C10.6182 11.5696 10.6648 11.5705 10.7113 11.5722C12.5451 11.6298 14.1545 12.8303 14.7268 14.5836L15.2052 16.0516C15.6768 17.496 14.8369 18.9742 13.4789 19.3924Z" fill="#C7CED4"/>
<path d="M7.81674 10.1896C10.0298 10.1896 11.8238 8.39565 11.8238 6.18259C11.8238 3.96952 10.0298 2.17554 7.81674 2.17554C5.60368 2.17554 3.80969 3.96952 3.80969 6.18259C3.80969 8.39565 5.60368 10.1896 7.81674 10.1896Z" fill="#C7CED4"/>
<path d="M13.4789 19.3924C13.2334 19.4686 12.9718 19.5092 12.6967 19.5092H10.1543C9.74703 19.179 9.405 18.7642 9.16032 18.2918C8.68706 17.3791 8.6024 16.3361 8.92242 15.3548L9.46172 13.7031C9.72671 12.8912 10.1576 12.1699 10.7113 11.5721C12.5451 11.6297 14.1545 12.8302 14.7268 14.5836L15.2052 16.0516C15.6768 17.4959 14.8369 18.9741 13.4789 19.3924Z" fill="#A0A9AE"/>
<path d="M24.4172 19.378C24.1412 19.4635 23.8458 19.51 23.5359 19.51H12.5519C12.242 19.51 11.9474 19.4643 11.6705 19.378C10.1415 18.9072 9.19671 17.2436 9.72754 15.6173L10.266 13.9655C10.9263 11.9421 12.8135 10.5723 14.9427 10.5723H21.1442C23.2734 10.5723 25.1606 11.9421 25.8209 13.9655L26.3594 15.6173C26.8911 17.2436 25.9462 18.9072 24.4172 19.378Z" fill="#7397B5"/>
<path d="M18.0439 9.01958C20.5346 9.01958 22.5538 7.00039 22.5538 4.50964C22.5538 2.01888 20.5346 -0.000305176 18.0439 -0.000305176C15.5531 -0.000305176 13.534 2.01888 13.534 4.50964C13.534 7.00039 15.5531 9.01958 18.0439 9.01958Z" fill="#7397B5"/>
<path d="M24.4173 19.378C24.1413 19.4635 23.8458 19.51 23.5359 19.51H12.5519C12.242 19.51 11.9474 19.4643 11.6706 19.378C11.5825 18.9928 11.5986 18.5847 11.7256 18.1902C11.9906 17.3749 12.6823 16.7924 13.5297 16.6688L15.19 16.4275C15.2357 16.4216 15.2772 16.3919 15.2966 16.3505L16.0391 14.846C16.4193 14.0781 17.1854 13.5998 18.0431 13.5998C18.9007 13.5998 19.6677 14.0781 20.0479 14.846L20.7904 16.3505C20.8098 16.3919 20.8513 16.4216 20.897 16.4292L22.5572 16.6696C23.4047 16.7932 24.0964 17.3757 24.3614 18.191C24.4892 18.5847 24.5053 18.9928 24.4173 19.378Z" fill="#E6EAED"/>
<path d="M19.1098 15.3083L19.8523 16.8127C20.025 17.1632 20.3602 17.4062 20.7471 17.4629L22.4074 17.7042C23.3818 17.8456 23.7713 19.0435 23.066 19.731L21.8647 20.9019C21.5844 21.1753 21.4566 21.5682 21.5226 21.9542L21.8063 23.6077C21.973 24.5787 20.9537 25.3187 20.0817 24.8607L18.5967 24.0801C18.2505 23.8981 17.8365 23.8981 17.491 24.0801L16.0061 24.8607C15.1341 25.3187 14.1156 24.5787 14.2815 23.6077L14.5651 21.9542C14.6312 21.569 14.5033 21.1753 14.2231 20.9019L13.0217 19.731C12.3165 19.0435 12.7059 17.8456 13.6804 17.7042L15.3406 17.4629C15.7275 17.407 16.0619 17.1632 16.2355 16.8127L16.978 15.3083C17.414 14.4252 18.6738 14.4252 19.1098 15.3083Z" fill="#5BC4BF"/>
</svg>
