<svg width="23" height="22" viewBox="0 0 23 22" fill="none" xmlns="http://www.w3.org/2000/svg">
<path d="M1.04669 1.22754L1.04669 20.7015" stroke="#28293B" stroke-linecap="round"/>
<path d="M1.04669 20.7015H21.8012" stroke="#28293B" stroke-linecap="round"/>
<path d="M3.73175 17.9276L3.73175 20.7015" stroke="#28293B" stroke-linecap="round"/>
<path d="M9.28677 17.9277L9.28677 20.7016" stroke="#28293B" stroke-linecap="round"/>
<path d="M14.8386 17.9277L14.8386 20.7016" stroke="#28293B" stroke-linecap="round"/>
<path d="M20.3904 17.9277L20.3904 20.7016" stroke="#28293B" stroke-linecap="round"/>
<path d="M3.69611 15.9738C3.69611 15.9738 3.99829 13.9698 5.02083 13.3981C6.58297 12.5246 7.39171 15.6307 9.18577 15.352C11.7149 14.9591 9.37699 9.96842 11.9306 9.75703C13.7181 9.60905 14.0365 11.8163 15.8112 12.0661C19.9333 12.6463 17.5516 5.57502 20.9222 3.27407C21.2454 3.05338 21.774 2.74133 21.774 2.74133" stroke="#28293B"/>
<path d="M8.90214 4.50813C8.35557 4.50813 7.91528 4.095 7.91528 3.58216C7.91528 3.06931 8.35557 2.65619 8.90214 2.65619C9.44871 2.65619 9.889 3.06931 9.889 3.58216C9.889 4.095 9.44871 4.50813 8.90214 4.50813ZM8.90214 3.08356C8.60608 3.08356 8.37076 3.30437 8.37076 3.58216C8.37076 3.85995 8.60608 4.08076 8.90214 4.08076C9.1982 4.08076 9.43352 3.85995 9.43352 3.58216C9.43352 3.30437 9.1982 3.08356 8.90214 3.08356Z" fill="#28293B"/>
<path d="M7.58153 5.93871C7.54358 5.93871 7.50564 5.93159 7.4677 5.91023C7.36146 5.85327 7.32352 5.7251 7.38423 5.6183C7.69535 5.11277 8.27207 4.79236 8.90191 4.79236C9.53174 4.79236 10.1085 5.11277 10.4196 5.62542C10.4803 5.7251 10.4424 5.86039 10.3361 5.91735C10.2299 5.97431 10.0857 5.93871 10.025 5.83903C9.79734 5.46166 9.3648 5.22669 8.90191 5.22669C8.43901 5.22669 8.00648 5.46166 7.77882 5.83903C7.74088 5.90311 7.65741 5.93871 7.58153 5.93871Z" fill="#28293B"/>
<path d="M11.8652 4.30042C11.8652 6.067 10.4326 7.4993 8.66519 7.4993C6.89776 7.4993 5.46519 6.067 5.46519 4.30042C5.46519 2.53384 6.89776 1.10154 8.66519 1.10154C10.4326 1.10154 11.8652 2.53384 11.8652 4.30042Z" stroke="#28293B" stroke-width="0.8"/>
</svg>
