<svg width="166" height="100" viewBox="0 0 166 100" fill="none" xmlns="http://www.w3.org/2000/svg">
<path d="M116.2 99.6001H49.8C22.2962 99.6001 0 77.3039 0 49.8C0 22.2962 22.2962 0 49.8 0H116.2C143.704 0 166 22.2962 166 49.8C166 77.3039 143.704 99.6001 116.2 99.6001ZM49.8 5.53345C25.3523 5.53345 5.53345 25.3523 5.53345 49.8C5.53345 74.2478 25.3523 94.0666 49.8 94.0666H116.2C140.648 94.0666 160.467 74.2478 160.467 49.8C160.467 25.3523 140.648 5.53345 116.2 5.53345H49.8Z" fill="#76818E"/>
<path d="M111.8 82.9994C130.136 82.9994 145 68.1353 145 49.7994C145 31.4635 130.136 16.5994 111.8 16.5994C93.4643 16.5994 78.6002 31.4635 78.6002 49.7994C78.6002 68.1353 93.4643 82.9994 111.8 82.9994Z" fill="#76818E"/>
<path d="M111.8 85.7664C91.936 85.7664 75.8334 69.6634 75.8334 49.7998C75.8334 29.9362 91.936 13.8333 111.8 13.8333C131.664 13.8333 147.767 29.9359 147.767 49.7998C147.744 69.654 131.654 85.7437 111.8 85.7664ZM111.8 19.3664C94.9921 19.3664 81.3665 32.992 81.3665 49.7998C81.3665 66.6077 94.9921 80.2333 111.8 80.2333C128.608 80.2333 142.233 66.6077 142.233 49.7998C142.214 32.9998 128.6 19.3855 111.8 19.3664Z" fill="#76818E"/>
<path d="M32.7661 64.6842C31.6472 64.6839 30.6386 64.0098 30.2106 62.9762C29.7826 61.9426 30.019 60.7527 30.8101 59.9616L52.9435 37.8282C53.6403 37.1188 54.6642 36.8377 55.6252 37.0922C56.5865 37.3467 57.337 38.0973 57.5916 39.0586C57.8461 40.0199 57.565 41.0435 56.8556 41.7402L34.7221 63.8733C34.204 64.3931 33.4998 64.6849 32.7661 64.6842Z" fill="#76818E"/>
<path d="M58.2637 61.1518C58.324 62.269 57.7055 63.3127 56.6966 63.7961C55.6877 64.2794 54.4868 64.1078 53.654 63.3608L30.354 42.4589C29.6079 41.8016 29.2717 40.7944 29.4738 39.821C29.6759 38.8474 30.3847 38.0572 31.3308 37.751C32.2769 37.4448 33.3142 37.67 34.0483 38.3406L57.348 59.2426C57.895 59.7318 58.2246 60.4191 58.2637 61.1518Z" fill="#76818E"/>
</svg>
