<?xml version="1.0" encoding="UTF-8"?>
<svg id="Layer_1" data-name="Layer 1" xmlns="http://www.w3.org/2000/svg" version="1.1" viewBox="0 0 35 36">
  <defs>
    <style>
      .cls-1 {
        fill: #d4edec;
      }

      .cls-1, .cls-2, .cls-3, .cls-4 {
        stroke-width: 0px;
      }

      .cls-2 {
        fill: #5bc4bf;
      }

      .cls-3 {
        fill: #76818e;
      }

      .cls-4 {
        fill: #1f4b51;
      }
    </style>
  </defs>
  <rect class="cls-1" y=".5" width="35" height="35" rx="3" ry="3"/>
  <path class="cls-3" d="M19.4,14.3c0-.2,0-.5.2-.6.1-.2.3-.3.5-.4.2,0,.4-.1.7,0,.2,0,.4.2.6.3.2.2.3.4.3.6,0,.2,0,.5,0,.7,0,.2-.2.4-.4.5-.2.1-.4.2-.6.2s-.6-.1-.8-.3c-.2-.2-.3-.5-.3-.8Z"/>
  <path class="cls-2" d="M27.9,7H10.9c-.2,0-.4,0-.5.2-.1.1-.2.3-.2.5v1.5h3.1c.2,0,.4,0,.5.2.1.1.2.3.2.5v3.1c0,.2,0,.4-.2.5-.1.1-.3.2-.5.2h-3.1v1.5h3.1c.2,0,.4,0,.5.2.1.1.2.3.2.5v3.1c0,.2,0,.4-.2.5-.1.1-.3.2-.5.2h-3.1v1.5h3.1c.2,0,.4,0,.5.2.1.1.2.3.2.5v3.1c0,.2,0,.4-.2.5-.1.1-.3.2-.5.2h-3.1v1.5c0,.2,0,.4.2.5.1.1.3.2.5.2h17c.2,0,.4,0,.5-.2.1-.1.2-.3.2-.5V7.8c0-.2,0-.4-.2-.5-.1-.1-.3-.2-.5-.2ZM20.5,11.6c.5,0,1.1.2,1.5.5.4.3.8.7,1,1.2.2.5.3,1,.1,1.6-.1.5-.4,1-.7,1.4-.4.4-.9.6-1.4.7-.5.1-1.1,0-1.6-.2-.5-.2-.9-.5-1.2-1-.3-.4-.5-1-.5-1.5,0-.7.3-1.4.8-1.9.5-.5,1.2-.8,1.9-.8ZM25.6,24h-10.1c-.2,0-.4,0-.5-.2-.1-.1-.2-.3-.2-.5,0-1.5.6-3,1.7-4.1,1.1-1.1,2.6-1.7,4.1-1.7s3,.6,4.1,1.7,1.7,2.6,1.7,4.1,0,.4-.2.5-.3.2-.5.2ZM20.5,19c-1,0-2,.3-2.7,1-.8.6-1.3,1.5-1.5,2.5h8.4c-.2-1-.7-1.8-1.5-2.5-.8-.6-1.7-1-2.7-1Z"/>
  <path class="cls-4" d="M10.1,9.3v4.6h-2.3c-.2,0-.4,0-.5-.2-.1-.1-.2-.3-.2-.5v-3.1c0-.2,0-.4.2-.5.1-.1.3-.2.5-.2h2.3Z"/>
  <path class="cls-4" d="M10.1,15.5v4.6h-2.3c-.2,0-.4,0-.5-.2-.1-.1-.2-.3-.2-.5v-3.1c0-.2,0-.4.2-.5.1-.1.3-.2.5-.2h2.3Z"/>
  <path class="cls-4" d="M10.1,21.7v4.6h-2.3c-.2,0-.4,0-.5-.2-.1-.1-.2-.3-.2-.5v-3.1c0-.2,0-.4.2-.5.1-.1.3-.2.5-.2h2.3Z"/>
</svg>