<svg width="35" height="36" viewBox="0 0 35 36" fill="none" xmlns="http://www.w3.org/2000/svg">
<rect y="0.490234" width="35" height="35" rx="3" fill="#EAECEB"/>
<path d="M19.3829 14.3446C19.3798 14.1143 19.4453 13.8884 19.571 13.6955C19.6967 13.5025 19.8769 13.3513 20.0887 13.2611C20.3006 13.1708 20.5344 13.1456 20.7606 13.1887C20.9869 13.2317 21.1951 13.341 21.3591 13.5027C21.523 13.6645 21.6351 13.8713 21.6811 14.0969C21.7272 14.3225 21.7051 14.5567 21.6177 14.7697C21.5303 14.9827 21.3816 15.165 21.1903 15.2932C20.9991 15.4215 20.7741 15.49 20.5438 15.49C20.2386 15.49 19.9456 15.3698 19.7284 15.1555C19.5111 14.9411 19.387 14.6498 19.3829 14.3446Z" fill="#76818E"/>
<path d="M27.8961 7H10.8696C10.6644 7 10.4675 7.08154 10.3224 7.22668C10.1772 7.37182 10.0957 7.56867 10.0957 7.77393V9.32179H13.1914C13.3967 9.32179 13.5935 9.40332 13.7387 9.54846C13.8838 9.6936 13.9653 9.89046 13.9653 10.0957V13.1914C13.9653 13.3967 13.8838 13.5935 13.7387 13.7387C13.5935 13.8838 13.3967 13.9654 13.1914 13.9654H10.0957V15.5132H13.1914C13.3967 15.5132 13.5935 15.5948 13.7387 15.7399C13.8838 15.885 13.9653 16.0819 13.9653 16.2871V19.3829C13.9653 19.5881 13.8838 19.785 13.7387 19.9301C13.5935 20.0752 13.3967 20.1568 13.1914 20.1568H10.0957V21.7046H13.1914C13.3967 21.7046 13.5935 21.7862 13.7387 21.9313C13.8838 22.0765 13.9653 22.2733 13.9653 22.4786V25.5743C13.9653 25.7795 13.8838 25.9764 13.7387 26.1215C13.5935 26.2667 13.3967 26.3482 13.1914 26.3482H10.0957V27.8961C10.0957 28.1013 10.1772 28.2982 10.3224 28.4433C10.4675 28.5885 10.6644 28.67 10.8696 28.67H27.8961C28.1013 28.67 28.2982 28.5885 28.4433 28.4433C28.5885 28.2982 28.67 28.1013 28.67 27.8961V7.77393C28.67 7.56867 28.5885 7.37182 28.4433 7.22668C28.2982 7.08154 28.1013 7 27.8961 7ZM20.5437 11.6436C21.0765 11.6459 21.5967 11.8059 22.0386 12.1035C22.4805 12.4011 22.8244 12.8229 23.0269 13.3157C23.2294 13.8085 23.2814 14.3502 23.1763 14.8726C23.0712 15.3949 22.8138 15.8744 22.4366 16.2506C22.0593 16.6268 21.5791 16.8828 21.0564 16.9864C20.5338 17.0899 19.9922 17.0364 19.5 16.8325C19.0078 16.6286 18.5869 16.2835 18.2906 15.8408C17.9943 15.398 17.8358 14.8774 17.835 14.3446C17.837 13.6275 18.1233 12.9405 18.6311 12.4342C19.1389 11.9279 19.8267 11.6436 20.5437 11.6436ZM25.5743 24.0264H15.5132C15.3079 24.0264 15.1111 23.9449 14.966 23.7998C14.8208 23.6546 14.7393 23.4578 14.7393 23.2525C14.7393 21.7131 15.3508 20.2367 16.4394 19.1481C17.5279 18.0596 19.0043 17.448 20.5437 17.448C22.0832 17.448 23.5596 18.0596 24.6481 19.1481C25.7367 20.2367 26.3482 21.7131 26.3482 23.2525C26.3482 23.4578 26.2667 23.6546 26.1215 23.7998C25.9764 23.9449 25.7795 24.0264 25.5743 24.0264ZM20.5437 19.0269C19.5533 19.0252 18.5932 19.369 17.8289 19.9991C17.0647 20.6291 16.5441 21.506 16.3568 22.4786H24.7307C24.5434 21.506 24.0228 20.6291 23.2585 19.9991C22.4943 19.369 21.5342 19.0252 20.5437 19.0269Z" fill="#76818E"/>
<path d="M10.0957 9.32178V13.9653H7.77393C7.56867 13.9653 7.37182 13.8838 7.22668 13.7387C7.08154 13.5935 7 13.3967 7 13.1914V10.0957C7 9.89045 7.08154 9.6936 7.22668 9.54846C7.37182 9.40332 7.56867 9.32178 7.77393 9.32178H10.0957Z" fill="#76818E"/>
<path d="M10.0957 15.5132V20.1568H7.77393C7.56867 20.1568 7.37182 20.0752 7.22668 19.9301C7.08154 19.785 7 19.5881 7 19.3829V16.2871C7 16.0819 7.08154 15.885 7.22668 15.7399C7.37182 15.5948 7.56867 15.5132 7.77393 15.5132H10.0957Z" fill="#76818E"/>
<path d="M10.0957 21.7047V26.3482H7.77393C7.56867 26.3482 7.37182 26.2667 7.22668 26.1215C7.08154 25.9764 7 25.7796 7 25.5743V22.4786C7 22.2733 7.08154 22.0765 7.22668 21.9313C7.37182 21.7862 7.56867 21.7047 7.77393 21.7047H10.0957Z" fill="#76818E"/>
</svg>
