<svg width="20" height="20" viewBox="0 0 20 20" fill="none" xmlns="http://www.w3.org/2000/svg">
<path d="M15.293 9.44672V5.60684C15.293 5.45135 15.2313 5.30228 15.1213 5.19257L10.1006 0.171661C9.99069 0.0617981 9.84161 0 9.68628 0H0.585938C0.262299 0 0 0.262299 0 0.585938V19.4141C0 19.7377 0.262299 20 0.585938 20H14.707C17.6256 20 20 17.6256 20 14.707C20 11.9865 17.9369 9.73923 15.293 9.44672ZM10.2722 2.00058L13.2924 5.02075H10.2722V2.00058ZM1.17188 18.8281V1.17188H9.10034V5.60669C9.10034 5.93033 9.36264 6.19263 9.68628 6.19263H14.1211V9.44672C11.4772 9.73923 9.41406 11.9865 9.41406 14.707C9.41406 16.3705 10.1857 17.8571 11.3896 18.8281H1.17188ZM14.707 18.8281C12.4347 18.8281 10.5859 16.9794 10.5859 14.707C10.5859 12.4347 12.4347 10.5859 14.707 10.5859C16.9794 10.5859 18.8281 12.4347 18.8281 14.707C18.8281 16.9794 16.9794 18.8281 14.707 18.8281Z" fill="black"/>
<path d="M16.2761 14.1211H15.2929V13.1379C15.2929 12.8145 15.0306 12.552 14.707 12.552C14.3834 12.552 14.1211 12.8145 14.1211 13.1379V14.1211H13.1381C12.8145 14.1211 12.5522 14.3834 12.5522 14.707C12.5522 15.0306 12.8145 15.2929 13.1381 15.2929H14.1211V16.2761C14.1211 16.5995 14.3834 16.862 14.707 16.862C15.0306 16.862 15.2929 16.5995 15.2929 16.2761V15.2929H16.2761C16.5997 15.2929 16.862 15.0306 16.862 14.707C16.862 14.3834 16.5997 14.1211 16.2761 14.1211Z" fill="black"/>
</svg>
