<svg width="21" height="21" viewBox="0 0 21 21" fill="none" xmlns="http://www.w3.org/2000/svg">
<path d="M10.6137 20.201C5.1001 20.201 0.61377 15.7147 0.61377 10.201C0.61377 4.68728 5.1001 0.200989 10.6137 0.200989C16.1274 0.200989 20.6137 4.68732 20.6137 10.201C20.6137 15.7146 16.1274 20.201 10.6137 20.201ZM11.3208 13.908L15.3208 9.90804C15.7114 9.5174 15.7114 8.88461 15.3208 8.49397C14.9302 8.10333 14.2974 8.10333 13.9067 8.49397L10.6137 11.7869L7.32078 8.49397C6.93014 8.10333 6.29735 8.10333 5.90671 8.49397C5.51607 8.88461 5.51607 9.5174 5.90671 9.90804L9.90669 13.908C10.102 14.1033 10.3579 14.201 10.6137 14.201C10.8696 14.201 11.1255 14.1033 11.3208 13.908Z" fill="url(#paint0_linear_1_218)"/>
<defs>
<linearGradient id="paint0_linear_1_218" x1="10.6139" y1="0.209739" x2="10.6139" y2="20.2088" gradientUnits="userSpaceOnUse">
<stop stop-color="#89D6DE"/>
<stop offset="1" stop-color="#5BC4BF"/>
</linearGradient>
</defs>
</svg>
