<svg width="19" height="18" viewBox="0 0 19 18" fill="none" xmlns="http://www.w3.org/2000/svg">
<path d="M16.6972 11.2961C16.4483 11.2961 16.2467 11.4978 16.2467 11.7467V15.7472C16.2458 16.4934 15.6412 17.0981 14.895 17.0988H2.25279C1.50655 17.0981 0.901995 16.4934 0.901115 15.7472V4.00608C0.901995 3.26002 1.50655 2.65529 2.25279 2.65441H6.25325C6.50211 2.65441 6.70381 2.45272 6.70381 2.20385C6.70381 1.95517 6.50211 1.7533 6.25325 1.7533H2.25279C1.00918 1.7547 0.00140799 2.76247 0 4.00608V15.7473C0.00140799 16.9909 1.00918 17.9987 2.25279 18.0001H14.895C16.1386 17.9987 17.1464 16.9909 17.1478 15.7473V11.7467C17.1478 11.4978 16.9461 11.2961 16.6972 11.2961Z" fill="black"/>
<path d="M16.9688 0.593865C16.177 -0.197955 14.8932 -0.197955 14.1014 0.593865L6.06319 8.6321C6.0081 8.68718 5.96833 8.75547 5.94756 8.83045L4.89051 12.6466C4.84704 12.8031 4.89121 12.9707 5.00597 13.0856C5.12089 13.2003 5.28844 13.2445 5.44491 13.2012L9.2611 12.144C9.33607 12.1232 9.40436 12.0834 9.45945 12.0284L17.4975 3.98994C18.2881 3.1976 18.2881 1.91491 17.4975 1.12257L16.9688 0.593865ZM7.04492 8.92496L13.6236 2.34611L15.7453 4.46778L9.16641 11.0466L7.04492 8.92496ZM6.62111 9.77539L8.31616 11.4706L5.9715 12.1202L6.62111 9.77539ZM16.8604 3.35283L16.3825 3.83066L14.2607 1.70882L14.7387 1.23098C15.1785 0.79116 15.8917 0.79116 16.3315 1.23098L16.8604 1.75968C17.2995 2.20003 17.2995 2.91265 16.8604 3.35283Z" fill="black"/>
</svg>
