<svg width="19" height="18" viewBox="0 0 19 18" fill="none" xmlns="http://www.w3.org/2000/svg">
<path d="M7.80957 17.8053C7.72945 17.8053 7.64821 17.7875 7.57365 17.753C7.3778 17.6617 7.25316 17.4648 7.25316 17.2489V10.2547C7.25316 9.8697 7.11851 9.49467 6.8748 9.19644L0.827672 1.81837C0.666311 1.62028 0.576172 1.36878 0.576172 1.11283C0.576172 0.499661 1.07583 0 1.689 0H17.2686C17.8818 0 18.3815 0.499661 18.3815 1.11283C18.3815 1.36878 18.2913 1.62028 18.1289 1.81837L12.0817 9.19644C11.8391 9.49467 11.7045 9.8697 11.7045 10.2547V13.4252C11.7045 14.2531 11.3395 15.0321 10.7029 15.5618L8.16568 17.6762C8.06441 17.7608 7.93755 17.8053 7.80957 17.8053Z" fill="#76818E"/>
</svg>
