<svg width="35" height="36" viewBox="0 0 35 36" fill="none" xmlns="http://www.w3.org/2000/svg">
<rect y="0.0761719" width="35" height="35" rx="3" fill="#EAECEB"/>
<path d="M18.376 10.1184V7.53152L23.5496 12.7052H20.9628C19.1463 12.7052 18.376 11.9349 18.376 10.1184ZM24.3084 17.8329L17.4447 24.7426C17.1212 25.0657 16.9392 25.5041 16.9388 25.9613V27.0191C16.9388 27.0643 16.9299 27.1092 16.9126 27.151C16.8952 27.1929 16.8698 27.2309 16.8378 27.2629C16.8058 27.295 16.7677 27.3204 16.7259 27.3377C16.6841 27.355 16.6392 27.364 16.5939 27.364H10.6154C10.1469 27.4308 9.66928 27.3877 9.22033 27.238C8.77137 27.0883 8.36342 26.8361 8.02878 26.5015C7.69414 26.1669 7.44199 25.7589 7.29229 25.31C7.1426 24.861 7.09947 24.3834 7.16631 23.9148V10.1184C7.09947 9.64985 7.1426 9.17221 7.29229 8.72326C7.44199 8.2743 7.69414 7.86635 8.02878 7.53171C8.36342 7.19707 8.77137 6.94492 9.22033 6.79522C9.66928 6.64553 10.1469 6.60239 10.6154 6.66924H16.6514V10.1184C16.5834 10.701 16.6482 11.2914 16.8408 11.8454C17.0335 12.3994 17.349 12.9027 17.7637 13.3174C18.1785 13.7322 18.6817 14.0477 19.2357 14.2403C19.7898 14.433 20.3802 14.4977 20.9628 14.4298H24.4119V17.5915C24.4132 17.6368 24.4046 17.6819 24.3868 17.7236C24.3689 17.7653 24.3422 17.8026 24.3084 17.8329ZM12.6274 21.6154C12.6274 21.4449 12.5768 21.2782 12.4821 21.1364C12.3874 20.9946 12.2527 20.8841 12.0951 20.8188C11.9376 20.7535 11.7642 20.7364 11.5969 20.7697C11.4297 20.803 11.276 20.8851 11.1554 21.0057C11.0348 21.1263 10.9527 21.2799 10.9194 21.4472C10.8862 21.6145 10.9032 21.7878 10.9685 21.9454C11.0338 22.103 11.1443 22.2376 11.2861 22.3324C11.4279 22.4271 11.5946 22.4777 11.7651 22.4777C11.9938 22.4777 12.2132 22.3869 12.3749 22.2252C12.5366 22.0634 12.6274 21.8441 12.6274 21.6154ZM12.6274 17.0166C12.6274 16.8461 12.5768 16.6793 12.4821 16.5375C12.3874 16.3957 12.2527 16.2852 12.0951 16.22C11.9376 16.1547 11.7642 16.1376 11.5969 16.1709C11.4297 16.2042 11.276 16.2863 11.1554 16.4069C11.0348 16.5275 10.9527 16.6811 10.9194 16.8484C10.8862 17.0156 10.9032 17.189 10.9685 17.3466C11.0338 17.5041 11.1443 17.6388 11.2861 17.7336C11.4279 17.8283 11.5946 17.8789 11.7651 17.8789C11.9938 17.8789 12.2132 17.788 12.3749 17.6263C12.5366 17.4646 12.6274 17.2453 12.6274 17.0166ZM17.2262 21.6154C17.2262 21.3867 17.1354 21.1674 16.9737 21.0057C16.812 20.844 16.5927 20.7531 16.364 20.7531H14.6394C14.4107 20.7531 14.1914 20.844 14.0297 21.0057C13.868 21.1674 13.7771 21.3867 13.7771 21.6154C13.7771 21.8441 13.868 22.0634 14.0297 22.2252C14.1914 22.3869 14.4107 22.4777 14.6394 22.4777H16.364C16.5927 22.4777 16.812 22.3869 16.9737 22.2252C17.1354 22.0634 17.2262 21.8441 17.2262 21.6154ZM20.6754 17.0166C20.6754 16.7879 20.5845 16.5686 20.4228 16.4069C20.2611 16.2452 20.0418 16.1543 19.8131 16.1543H14.6394C14.4107 16.1543 14.1914 16.2452 14.0297 16.4069C13.868 16.5686 13.7771 16.7879 13.7771 17.0166C13.7771 17.2453 13.868 17.4646 14.0297 17.6263C14.1914 17.788 14.4107 17.8789 14.6394 17.8789H19.8131C20.0418 17.8789 20.2611 17.788 20.4228 17.6263C20.5845 17.4646 20.6754 17.2453 20.6754 17.0166ZM18.6634 25.9613V28.5137H21.2157L25.8146 23.9378L23.2392 21.3625L18.6634 25.9613ZM27.5621 20.7531L26.4239 19.6149C26.3291 19.5193 26.2163 19.4433 26.0919 19.3915C25.9676 19.3397 25.8343 19.313 25.6996 19.313C25.5649 19.313 25.4315 19.3397 25.3072 19.3915C25.1829 19.4433 25.0701 19.5193 24.9753 19.6149L24.044 20.5577L26.6194 23.133L27.5621 22.2018C27.6578 22.107 27.7337 21.9941 27.7855 21.8698C27.8374 21.7455 27.864 21.6122 27.864 21.4775C27.864 21.3428 27.8374 21.2094 27.7855 21.0851C27.7337 20.9608 27.6578 20.848 27.5621 20.7531Z" fill="#76818E"/>
</svg>
