<svg width="35" height="35" viewBox="0 0 35 35" fill="none" xmlns="http://www.w3.org/2000/svg">
<rect width="35" height="35" rx="3" fill="#D4EDEC"/>
<path d="M18.2511 10.4834V7.89341L23.4211 13.0634H20.8311C19.0111 13.0634 18.2411 12.2934 18.2411 10.4734L18.2511 10.4834ZM24.1811 18.1934L17.3211 25.1034C17.0011 25.4234 16.8111 25.8634 16.8111 26.3234V27.3834C16.8111 27.3834 16.8111 27.4734 16.7811 27.5134C16.7611 27.5534 16.7411 27.5934 16.7111 27.6234C16.6811 27.6534 16.6411 27.6834 16.6011 27.6934C16.5611 27.7134 16.5111 27.7234 16.4711 27.7234H10.4911C10.0211 27.7934 9.54114 27.7434 9.09114 27.5934C8.64114 27.4434 8.23114 27.1934 7.90114 26.8534C7.57114 26.5234 7.31114 26.1134 7.16114 25.6634C7.01114 25.2134 6.97114 24.7334 7.03114 24.2634V10.4834C6.96114 10.0134 7.01114 9.53341 7.16114 9.08341C7.31114 8.63341 7.56114 8.22341 7.90114 7.89341C8.23114 7.56341 8.64114 7.30341 9.09114 7.15341C9.54114 7.00341 10.0211 6.96341 10.4911 7.03341H16.5311V10.4834C16.4611 11.0634 16.5311 11.6534 16.7211 12.2134C16.9111 12.7634 17.2311 13.2734 17.6411 13.6834C18.0511 14.0934 18.5611 14.4134 19.1111 14.6034C19.6611 14.7934 20.2511 14.8634 20.8411 14.7934H24.2911V17.9534C24.2911 17.9534 24.2911 18.0434 24.2611 18.0834C24.2411 18.1234 24.2211 18.1634 24.1811 18.1934ZM12.5011 21.9834C12.5011 21.8134 12.4511 21.6434 12.3511 21.5034C12.2611 21.3634 12.1211 21.2534 11.9611 21.1834C11.8011 21.1134 11.6311 21.1034 11.4611 21.1334C11.2911 21.1634 11.1411 21.2534 11.0211 21.3734C10.9011 21.4934 10.8211 21.6434 10.7811 21.8134C10.7511 21.9834 10.7611 22.1534 10.8311 22.3134C10.9011 22.4734 11.0111 22.6034 11.1511 22.7034C11.2911 22.7934 11.4611 22.8534 11.6311 22.8534C11.8611 22.8534 12.0811 22.7634 12.2411 22.6034C12.4011 22.4434 12.4911 22.2234 12.4911 21.9934L12.5011 21.9834ZM12.5011 17.3834C12.5011 17.2134 12.4511 17.0434 12.3511 16.9034C12.2611 16.7634 12.1211 16.6534 11.9611 16.5834C11.8011 16.5134 11.6311 16.5034 11.4611 16.5334C11.2911 16.5634 11.1411 16.6534 11.0211 16.7734C10.9011 16.8934 10.8211 17.0434 10.7811 17.2134C10.7511 17.3834 10.7611 17.5534 10.8311 17.7134C10.9011 17.8734 11.0111 18.0034 11.1511 18.1034C11.2911 18.1934 11.4611 18.2534 11.6311 18.2534C11.8611 18.2534 12.0811 18.1634 12.2411 18.0034C12.4011 17.8434 12.4911 17.6234 12.4911 17.3934L12.5011 17.3834ZM17.1011 21.9834C17.1011 21.7534 17.0111 21.5334 16.8511 21.3734C16.6911 21.2134 16.4711 21.1234 16.2411 21.1234H14.5211C14.2911 21.1234 14.0711 21.2134 13.9111 21.3734C13.7511 21.5334 13.6611 21.7534 13.6611 21.9834C13.6611 22.2134 13.7511 22.4334 13.9111 22.5934C14.0711 22.7534 14.2911 22.8434 14.5211 22.8434H16.2411C16.4711 22.8434 16.6911 22.7534 16.8511 22.5934C17.0111 22.4334 17.1011 22.2134 17.1011 21.9834ZM20.5511 17.3834C20.5511 17.1534 20.4611 16.9334 20.3011 16.7734C20.1411 16.6134 19.9211 16.5234 19.6911 16.5234H14.5211C14.2911 16.5234 14.0711 16.6134 13.9111 16.7734C13.7511 16.9334 13.6611 17.1534 13.6611 17.3834C13.6611 17.6134 13.7511 17.8334 13.9111 17.9934C14.0711 18.1534 14.2911 18.2434 14.5211 18.2434H19.6911C19.9211 18.2434 20.1411 18.1534 20.3011 17.9934C20.4611 17.8334 20.5511 17.6134 20.5511 17.3834Z" fill="#5BC4BF"/>
<path d="M18.8213 26.1234V28.6734H21.3813L25.9713 24.0934L23.4013 21.5234L18.8213 26.1234Z" fill="#1F4B51"/>
<path d="M27.7212 20.9134L26.5812 19.7734C26.4912 19.6734 26.3712 19.6034 26.2512 19.5534C26.1312 19.5034 25.9912 19.4734 25.8612 19.4734C25.7312 19.4734 25.5912 19.5034 25.4712 19.5534C25.3512 19.6034 25.2312 19.6834 25.1412 19.7734L24.2112 20.7134L26.7912 23.2934L27.7312 22.3634C27.8312 22.2734 27.9012 22.1534 27.9512 22.0334C28.0012 21.9134 28.0312 21.7734 28.0312 21.6434C28.0312 21.5134 28.0012 21.3734 27.9512 21.2534C27.9012 21.1334 27.8212 21.0134 27.7312 20.9234L27.7212 20.9134Z" fill="#1F4B51"/>
</svg>
