<?xml version="1.0"?>
<svg id="Capa_1" style="enable-background:new 0 0 150 150;" version="1.1" viewBox="0 0 150 150" xml:space="preserve" xmlns="http://www.w3.org/2000/svg" xmlns:xlink="http://www.w3.org/1999/xlink">
    <style type="text/css">
        .st0{fill:#757575;}
        .st1{fill:#9E9E9E;}
        .st2{fill:#BDBDBD;}
        .st3{fill:#616161;}
        .st4{fill:#424242;}
        .st5{fill:#9E9E9E;}
        .st6{fill:#757575;}
        .st7{fill:#616161;}
        .st8{fill:#757575;}
        .st9{fill:#9E9E9E;}
        .st10{fill:#424242;}
        .st11{fill:#424242;}
        .st12{fill:#9E9E9E;}
        .st13{fill:#BDBDBD;}
        .st14{fill:#9E9E9E;}
        .st15{fill:#BDBDBD;}
        .st16{clip-path:url(#SVGID_2_);}
        .st17{fill:#616161;}
        .st18{opacity:0.2;fill:#FFFFFF;enable-background:new;}
        .st19{opacity:0.3;fill:#424242;enable-background:new;}
        .st20{clip-path:url(#SVGID_4_);}
        .st21{opacity:0.3;fill:url(#_45_shadow_1_);enable-background:new;}
        .st22{clip-path:url(#SVGID_6_);}
        .st23{fill:#BDBDBD;}
        .st24{opacity:0.3;fill:#616161;enable-background:new;}
        .st25{opacity:0.3;fill:#757575;enable-background:new;}
        .st26{opacity:0.3;fill:#BDBDBD;enable-background:new;}
        .st27{fill:url(#Finish_mask_1_);}
        .st28{fill:#FFFFFF;}
        .st29{fill:#424242;}
        .st30{opacity:0.2;fill:#424242;enable-background:new;}
        .st31{opacity:0.2;fill:#424242;enable-background:new;}
        .st32{fill:#FFC107;}
        .st33{opacity:0.2;fill:#424242;enable-background:new;}
        .st34{opacity:0.2;}
        .st35{fill:#424242;}
        .st36{fill:url(#SVGID_7_);}
        .st37{fill:#BDBDBD;}
        .st38{clip-path:url(#SVGID_9_);fill:#616161;}
        .st39{clip-path:url(#SVGID_11_);fill:#9E9E9E;}
        .st40{clip-path:url(#SVGID_13_);fill:#616161;}
        .st41{clip-path:url(#SVGID_15_);fill:#9E9E9E;}
    </style>
    <g>
        <path class="st14" d="M120,76.1c0-3.1-0.3-6.3-0.8-9.3H75.9v17.7h24.8c-1,5.7-4.3,10.7-9.2,13.9l14.8,11.5C115,101.8,120,90,120,76.1L120,76.1z"/>
        <path class="st15" d="M75.9,120.9c12.4,0,22.8-4.1,30.4-11.1L91.5,98.4c-4.1,2.8-9.4,4.4-15.6,4.4c-12,0-22.1-8.1-25.8-18.9L34.9,95.6C42.7,111.1,58.5,120.9,75.9,120.9z"/>
        <path class="st12" d="M50.1,83.8c-1.9-5.7-1.9-11.9,0-17.6L34.9,54.4c-6.5,13-6.5,28.3,0,41.2L50.1,83.8z"/>
        <path class="st13" d="M75.9,47.3c6.5-0.1,12.9,2.4,17.6,6.9L106.6,41C98.3,33.2,87.3,29,75.9,29.1c-17.4,0-33.2,9.8-41,25.3l15.2,11.8C53.8,55.3,63.9,47.3,75.9,47.3z"/>
    </g>
</svg>
