<svg width="221" height="232" viewBox="0 0 221 232" fill="none" xmlns="http://www.w3.org/2000/svg">
<path d="M196.583 197.981C203.72 199.768 213.407 203.404 210.499 210.841C207.591 218.277 170.212 222.643 164.023 213.292C157.585 203.567 169.009 199.55 175.676 198.825C182.347 198.099 189.449 196.195 196.583 197.978V197.981Z" fill="#F5F2F2"/>
<path d="M186.465 174.246C169.602 157.536 145.204 152.087 91.3842 149.543C37.5641 146.999 -9.79584 181.513 2.40322 202.222C14.6023 222.93 91.713 239.98 139.52 227.475C187.697 214.871 203.327 190.96 186.465 174.249V174.246Z" fill="#F5F2F2"/>
<path d="M102.782 97.6887C99.9224 92.2112 88.1574 88.3219 81.1099 91.604C71.3047 96.1675 59.9004 100.264 50.574 105.093C33.8234 113.767 28.9815 115.626 27.909 132.059C26.8685 148.051 27.3919 182.606 31.4774 186.716C35.5629 190.823 45.1607 195.961 53.3062 192.331C69.3641 185.176 93.8133 154.867 97.8797 147.9C104.008 137.402 105.642 103.166 102.782 97.6887Z" fill="#76818E"/>
<path d="M153.149 147.242L153.883 183.479C153.883 183.479 116.3 204.555 111.805 206.239C107.311 207.923 50.4144 197.527 46.4406 194.015C40.7209 188.956 44.0723 148.083 44.0723 148.083L109.029 134.175L153.149 147.242Z" fill="#313B44"/>
<path d="M168.441 142.385C168.441 142.385 167.158 163.617 161.033 167.883C154.908 172.15 120.608 190.401 109.121 192.178C97.6371 193.954 52.888 183.77 49.1409 182.162C45.3937 180.555 43.3893 180.708 42.9871 177.071C42.2466 170.408 42.3136 157.74 42.719 149.207C42.9871 143.58 43.6414 139.508 48.0716 137.15C60.6473 130.452 78.5916 126.697 78.5916 126.697L169.973 129.943C169.973 129.943 170.356 132.43 168.441 142.388V142.385Z" fill="#41515E"/>
<path d="M83.3537 57.5276C82.9706 72.896 82.9994 88.9227 82.6451 101.703C82.2908 114.479 75.138 123.386 78.3234 124.482C81.5088 125.578 168.983 140.662 168.983 140.662C168.983 140.662 175.708 94.6623 175.708 84.0747C175.708 73.4872 177.477 51.2192 163.675 47.5664C149.874 43.9169 135.728 44.3834 122.635 43.2905C109.542 42.1943 83.7111 43.2905 83.3568 57.5276H83.3537Z" fill="#76818E"/>
<path d="M157.148 58.8667C157.148 58.8667 141.387 55.6677 125.967 54.0954C110.545 52.5231 90.8991 54.3766 90.8991 54.3766C90.8991 54.3766 86.1114 47.934 82.6036 48.9438C79.0958 49.9537 83.0568 60.6467 83.0568 60.6467C83.0568 60.6467 77.3786 88.5585 76.7594 98.967C76.1402 109.376 75.5593 119.171 75.5593 119.171C75.5593 119.171 71.011 124.827 71.4004 127.924C71.793 131.024 79.5586 129.25 79.5586 129.25C79.5586 129.25 108.355 137.799 119.233 138.473C130.11 139.147 150.42 136.69 150.42 136.69C150.42 136.69 153.11 143.001 157.429 141.221C161.747 139.441 157.247 131.378 157.247 131.378C157.247 131.378 161.499 111.363 162.265 98.5068C163.027 85.6503 162.96 67.4153 162.96 67.4153C162.96 67.4153 170.292 60.0875 167.062 56.4027C163.835 52.7212 157.148 58.8603 157.148 58.8603V58.8667Z" fill="#BBBDBF"/>
<path d="M149.22 67.2651C149.22 67.2651 137.943 67.5272 133.915 76.9611" stroke="#7397B5" stroke-width="2.04" stroke-miterlimit="10"/>
<path d="M147.608 116.537C147.608 116.537 137.943 110.248 132.303 109.2" stroke="#7397B5" stroke-width="2.04" stroke-miterlimit="10"/>
<path d="M147.34 80.6298C147.34 80.6298 139.552 76.1749 136.063 78.5334" stroke="#7397B5" stroke-width="2.04" stroke-miterlimit="10"/>
<path d="M63.9125 212.694C63.9125 212.694 73.4975 206.153 83.9985 204.628C94.4995 203.107 97.8317 205.287 97.6434 207.709C97.4583 210.131 75.8179 219.105 68.1001 218.83C60.3855 218.555 60.2387 215.89 63.9093 212.694H63.9125Z" fill="#43B09C"/>
<path d="M96.9859 172.064L81.145 170.108C81.145 170.108 81.56 191.593 77.8894 197.777C74.2188 203.964 66.0287 204.421 61.6272 208.569C58.6396 211.387 58.8343 217.162 66.9096 216.945C72.5878 216.791 77.516 213.963 81.5663 212.822C89.3575 210.627 93.2579 209.508 93.9984 205.549C94.7357 201.589 91.595 197.463 93.0249 193.239C94.4516 189.011 96.9891 172.06 96.9891 172.06L96.9859 172.064Z" fill="#EBAC88"/>
<path d="M67.7969 201.723C67.7969 201.723 75.4381 200.666 78.6235 206.066C81.8089 211.47 80.0981 215.334 80.0981 215.334C80.0981 215.334 63.1305 223.675 58.4673 218.687C51.6464 211.394 59.9227 204.401 67.7937 201.723H67.7969Z" fill="#43B09C"/>
<path d="M135.138 113.744C132.878 110.433 102.505 120.931 102.505 120.931C102.505 120.931 56.4756 98.8488 47.6247 106.912C38.7739 114.981 40.2804 133.721 56.1756 143.155C72.0675 152.582 101.739 163.937 109.814 162.438C111.419 162.144 113.322 160.667 115.339 158.51C150.618 144.03 137.404 117.055 135.141 113.744H135.138Z" fill="#84463B"/>
<path d="M77.8894 153.161C77.8894 153.161 80.6024 128.064 87.4393 122.197" stroke="#653034" stroke-width="2.04" stroke-miterlimit="10"/>
<path d="M96.8072 51.4429C91.7418 50.155 83.2261 57.1761 81.3461 65.5777C78.9874 76.1333 76.8744 87.8809 76.8744 87.8809L62.4794 104.058C62.4794 104.058 69.8205 113.693 72.2718 112.354C74.7231 111.012 86.769 104.499 93.5739 93.0229C100.376 81.5469 101.873 52.734 96.8072 51.4461V51.4429Z" fill="#43B09C"/>
<path d="M137.286 108.605C137.416 103.914 137.956 101.252 139.427 92.6362C141.473 85.3467 142.779 78.9744 143.478 74.7752C144.177 70.5759 144.387 61.4425 139.791 56.7415C134.889 51.7242 121.805 50.7367 114.605 50.1455C107.404 49.551 91.0779 49.2091 86.3764 57.3583C82.8782 63.4174 84.7071 102.591 84.7071 102.591C84.7071 102.591 80.8641 113.882 81.3333 116.25C81.8025 118.618 85.1667 119.036 90.0406 120.136C94.9113 121.235 100.19 123.133 107.19 123.709C114.19 124.284 123.669 123.025 126.047 122.443C128.422 121.861 132.798 119.96 134.276 116.988C135.07 115.39 137.155 113.297 137.286 108.602V108.605Z" fill="#43B09C"/>
<path d="M116.864 43.1436L121.828 55.5271C121.828 55.5271 117.35 61.4744 111.652 62.9381C105.952 64.4049 102.09 59.6241 102.09 59.6241L102.361 47.7518L116.864 43.1436Z" fill="#EBAC88"/>
<path d="M92.2333 24.4068C94.3718 18.1527 103.188 16.2161 108.259 17.7501C116.047 20.1117 118.419 29.5041 117.656 37.9281C117.238 42.5587 116.268 46.9785 112.939 49.8131C105.706 55.9745 99.0957 52.6222 96.8966 50.4299C94.4516 47.9883 92.5844 40.4655 92.0418 37.7683C91.2535 33.8183 90.0916 30.6641 92.2301 24.4068H92.2333Z" fill="#EBAC88"/>
<path d="M118.004 30.7792C120.73 29.2452 123.334 32.9907 121.968 37.0461C120.602 41.0983 117.235 42.5108 115.901 40.1396C115.818 37.6948 115.275 32.3163 118.007 30.7792H118.004Z" fill="#EBAC88"/>
<path d="M106.079 37.4071C106.287 38.4234 107.276 39.0785 108.288 38.8708C109.303 38.6631 109.957 37.6724 109.753 36.6561C109.546 35.6399 108.556 34.9848 107.538 35.1925C106.526 35.397 105.875 36.3877 106.079 37.4039V37.4071Z" fill="#381800"/>
<path d="M99.0829 38.9092C99.2393 39.935 98.5723 40.8842 97.5892 41.0376C96.6061 41.1878 95.6805 40.4815 95.5209 39.4589C95.3677 38.4362 96.038 37.4807 97.0178 37.3337C97.9977 37.1835 98.9234 37.8866 99.0829 38.9124V38.9092Z" fill="#381800"/>
<path d="M116.232 34.1187C115.843 34.3392 115.901 36.883 116.121 38.7909C116.344 40.702 115.936 41.9675 115.291 43.8881C114.831 45.2687 113.797 45.8919 112.849 46.9656C111.898 48.0394 110.159 49.2985 108.556 50.139C106.957 50.9795 104.953 51.3374 103.223 51.3534C101.49 51.3694 99.5202 50.8293 97.8318 49.6309C94.7038 47.4099 92.8717 37.781 91.7865 37.3816C91.7865 37.3816 93.309 44.2077 93.8101 46.0101C94.308 47.8125 95.8688 52.6733 97.4966 53.894C99.1276 55.1148 101.831 56.7063 104.091 56.9748C106.351 57.2464 111.355 56.0032 113.363 53.9963C115.371 51.9926 117.487 48.9726 117.94 48.2184C118.393 47.4642 118.91 43.4279 118.435 41.7246C117.618 38.8069 118.042 35.5376 118.042 35.5376C118.042 35.5376 116.628 33.8918 116.236 34.1155L116.232 34.1187Z" fill="#624C27"/>
<path d="M109.453 33.0961C109.175 32.9874 108.907 32.9107 108.607 32.8915C108.349 32.8788 108.087 32.8788 107.828 32.8915C107.398 32.9139 106.928 32.9491 106.517 33.0929C106.466 33.1121 106.411 33.1344 106.36 33.1568C106.047 33.291 106.501 33.1184 106.338 33.1568C106.249 33.176 106.162 33.2111 106.079 33.2431C105.824 33.3421 105.575 33.4572 105.333 33.585C105.243 33.633 105.151 33.6841 105.064 33.7352C104.867 33.8567 104.739 34.0101 104.605 34.1922C104.432 34.4319 104.282 34.8186 104.477 35.0934L104.423 34.6748C104.359 34.8282 104.385 34.9944 104.464 35.1318L104.423 34.9784C104.474 34.8953 104.522 34.8058 104.573 34.7195C104.442 34.8218 104.375 34.9816 104.464 35.135C104.538 35.2628 104.748 35.3427 104.879 35.2436C104.803 35.2532 104.723 35.2628 104.646 35.2724C104.602 35.2468 104.557 35.2213 104.512 35.1957C104.627 35.3171 104.78 35.3746 104.946 35.3619L104.563 35.2021C104.771 35.4577 105.173 35.4194 105.451 35.3555C105.709 35.2948 105.904 35.1765 106.127 35.0391C106.3 34.9304 106.478 34.8282 106.663 34.7419C106.794 34.6812 106.727 34.7419 106.644 34.7483C106.683 34.7451 106.731 34.7163 106.769 34.7035C106.861 34.6748 106.951 34.6396 107.04 34.5981C107.072 34.5821 107.174 34.5342 107.027 34.5981C106.861 34.6684 107.091 34.5821 107.133 34.5693C107.216 34.5438 107.299 34.5246 107.382 34.5054C107.589 34.4575 107.797 34.4191 108.004 34.3872C108.026 34.384 108.218 34.3552 108.106 34.3712C107.994 34.3872 108.192 34.3616 108.215 34.3584C108.336 34.3456 108.457 34.336 108.579 34.3264C108.741 34.3169 108.898 34.3009 109.057 34.2689C109.112 34.2593 109.166 34.2465 109.22 34.2402C109.246 34.237 109.274 34.2306 109.3 34.2274C109.226 34.237 109.226 34.237 109.3 34.2274C109.961 34.1571 110.072 33.3358 109.453 33.0897V33.0961Z" fill="#624C27"/>
<path d="M94.624 37.4967C94.8825 37.3976 95.1474 37.3273 95.4028 37.2123C95.4379 37.1963 95.6039 37.1292 95.4443 37.1931C95.4985 37.1707 95.5528 37.1483 95.6071 37.1292C95.7124 37.0876 95.8209 37.0493 95.9294 37.0141C96.1369 36.9438 96.3444 36.8831 96.555 36.8256C96.6444 36.8 96.737 36.7776 96.8263 36.7617C96.8614 36.7553 96.8998 36.7489 96.9349 36.7425C97.0625 36.7169 96.721 36.7521 96.8455 36.7553C96.9508 36.7553 97.0753 36.7425 97.1742 36.7233C97.3179 36.6977 97.203 36.7265 97.1296 36.7233C97.1742 36.7233 97.2221 36.7137 97.2668 36.7105C97.487 36.6977 97.7041 36.7041 97.9243 36.7201C98.1924 36.7393 98.4127 36.7617 98.6808 36.6945C98.9648 36.621 99.3415 36.4708 99.3989 36.1321L99.15 36.4581C99.2968 36.3941 99.3925 36.2631 99.4372 36.1129L99.3574 36.2471C99.2585 36.2727 99.1627 36.2983 99.0638 36.3238C99.4436 36.3941 99.6064 35.8093 99.2234 35.739C99.284 35.7838 99.3447 35.8317 99.4053 35.8764C99.3957 35.8573 99.367 35.8253 99.351 35.8093L99.4404 36.0298C99.4628 35.87 99.3734 35.7039 99.2553 35.6048L99.4149 35.9883C99.45 35.6527 99.1244 35.3907 98.8627 35.2565C98.6552 35.151 98.4573 35.0903 98.2243 35.0743C98.1222 35.0679 98.0201 35.0647 97.9179 35.0615C97.6977 35.0551 97.4807 35.0615 97.2604 35.0871C97.1168 35.1031 96.9253 35.1094 96.7817 35.1606C96.8997 35.119 96.9923 35.135 96.8934 35.1446C96.8008 35.1542 96.7082 35.167 96.6157 35.1829C96.1816 35.2596 95.7667 35.4354 95.3677 35.6176C95.1411 35.723 94.9176 35.8349 94.7006 35.9595C94.4484 36.1065 94.2442 36.3079 94.0559 36.5252C93.8867 36.7201 93.8292 36.9949 93.9665 37.2282C94.0878 37.4328 94.3846 37.5862 94.6208 37.4935L94.624 37.4967Z" fill="#624C27"/>
<path d="M103.714 44.4634C102.118 45.1696 99.4883 44.3451 99.9096 42.2008C100.12 41.2772 100.574 40.7787 101.03 40.1076C101.177 39.903 101.269 39.7401 101.343 39.5994C101.371 39.347 101.391 38.7845 101.403 38.5225C101.448 37.5893 101.512 36.6402 101.697 35.675C102.096 36.5763 102.355 37.4934 102.546 38.4362C102.629 38.9731 102.805 39.5675 102.635 40.1076C102.46 40.654 102.157 41.0567 101.885 41.5041C101.595 41.9963 101.32 42.3606 101.381 42.8016C101.764 43.6293 102.904 43.9616 103.714 44.4634Z" fill="#CB6A69"/>
<path d="M102.712 46.841C102.712 46.841 105.917 49.5031 108.895 44.2365" stroke="#CB6A69" stroke-width="2.04" stroke-linecap="round" stroke-linejoin="round"/>
<path d="M97.2349 44.0382C94.8155 44.6071 92.3866 43.0987 91.8216 40.6763C91.2535 38.2539 92.7632 35.8188 95.1794 35.2531C97.5988 34.6875 100.028 36.1959 100.593 38.6182C101.161 41.0406 99.6511 43.4726 97.2349 44.0382ZM95.4666 36.4867C93.7271 36.8957 92.6419 38.6438 93.0505 40.3855C93.459 42.1272 95.2049 43.2105 96.9445 42.8047C98.684 42.3988 99.7692 40.6475 99.3606 38.9059C98.9521 37.1642 97.2062 36.0776 95.4666 36.4867Z" fill="#76818E"/>
<path d="M109.287 41.2132C106.948 41.7597 104.586 40.2353 104.021 37.8161C103.456 35.3905 104.892 32.9745 107.232 32.4281C109.571 31.8816 111.933 33.4028 112.498 35.8283C113.066 38.2507 111.624 40.6667 109.287 41.2132ZM107.519 33.6616C105.862 34.0515 104.841 35.7836 105.25 37.5285C105.655 39.2702 107.337 40.3695 108.997 39.9796C110.653 39.593 111.671 37.8577 111.263 36.116C110.854 34.3711 109.175 33.2717 107.516 33.6616H107.519Z" fill="#76818E"/>
<path d="M104.758 36.6817C103.845 36.3365 102.827 36.2311 101.799 36.4324C100.768 36.6369 99.8713 37.1195 99.1564 37.7874" fill="#76818E"/>
<path d="M112.192 35.2244L118.412 31.9296" stroke="#76818E" stroke-width="4" stroke-miterlimit="10"/>
<path d="M90.7045 20.6965C92.8079 18.2965 95.5592 18.8047 95.5592 18.8047C95.5592 18.8047 95.8624 16.2129 98.735 14.8163C101.608 13.4198 104.078 15.1487 104.078 15.1487C104.078 15.1487 105.581 13.1641 108.668 12.7455C111.754 12.33 113.663 13.5348 115.751 16.3823C116.698 17.6765 117.34 19.7666 117.34 19.7666C117.34 19.7666 120.222 20.3354 121.352 22.3008C123.229 25.5765 122.817 31.1562 121.457 31.7507C119.804 32.4761 119.839 32.8884 119.447 33.9973C118.805 35.7901 117.918 37.4966 117.149 37.4231C116.051 37.3177 115.419 34.1219 115.419 34.1219C115.419 34.1219 114.113 34.4415 112.932 32.687C111.751 30.9357 111.659 29.1493 111.659 29.1493C111.659 29.1493 110.308 30.2582 108.448 29.9515C106.587 29.6447 105.591 28.1011 105.591 28.1011C105.591 28.1011 104.809 29.6383 102.642 29.5104C100.475 29.3826 98.9393 28.5996 98.9393 28.5996C98.9393 28.5996 97.8477 30.7887 97.1966 31.3672C95.6294 32.7605 93.7239 32.1981 93.5196 32.5432C92.9547 33.5019 93.2579 37.4519 91.8695 37.4966C90.481 37.5414 88.2659 34.9528 88.4798 31.1626C88.6968 27.3725 90.5098 25.7299 90.5098 25.7299C90.5098 25.7299 88.6043 23.0934 90.7077 20.6933L90.7045 20.6965Z" fill="#624C27"/>
<path d="M89.482 61.6981C89.482 61.6981 88.2532 72.5126 88.416 79.8468C88.5787 87.1811 86.1689 94.5601 85.588 97.6919C85.0071 100.824 84.439 103.761 84.439 103.761" stroke="#2F9384" stroke-width="2.04" stroke-miterlimit="10"/>
<path d="M114.563 125.159C108.362 120.605 88.7256 118.688 84.1836 129.371C79.9321 139.371 73.6698 187.739 73.4688 191.145C73.4688 191.145 74.6242 194.92 83.1176 196.396C91.6109 197.872 96.5678 193.929 96.5678 193.929C96.5678 193.929 98.8978 175.656 100.727 171.124C102.552 166.592 108.406 153.125 112.82 143.752C116.622 135.68 120.765 129.713 114.563 125.159Z" fill="#84463B"/>
<path d="M145.029 65.1686C146.89 73.8898 142.511 97.9795 136.686 106.247C131.958 112.955 112.115 119.509 108.489 118.442C104.863 117.375 98.4637 108.736 101.036 107.314C104.41 105.448 123.602 93.3999 123.602 93.3999C123.602 93.3999 125.524 63.9798 129.68 58.8794C133.835 53.7789 143.171 56.4474 145.032 65.1686H145.029Z" fill="#43B09C"/>
<path d="M136.686 106.247C131.958 112.955 112.115 119.509 108.489 118.442C104.863 117.374 98.4637 108.736 101.036 107.314C104.41 105.448 123.602 93.3999 123.602 93.3999C123.602 93.3999 125.058 71.1319 128.173 61.9824" stroke="#2F9384" stroke-width="2.04" stroke-miterlimit="10"/>
<path d="M105.728 110.424C104.107 108.883 96.0571 103.307 92.1025 104.055C88.151 104.799 84.6368 103.614 82.1536 107.055C79.6704 110.497 77.8383 113.977 79.747 114.741C80.6599 115.106 81.9813 114.492 82.9356 113.134C84.0847 111.498 85.8561 110.536 85.8561 110.536C85.8561 110.536 85.1124 112.102 84.6049 113.805C84.0974 115.508 83.8261 117.346 84.7709 117.892C85.7763 118.471 86.4689 117.323 87.3435 115.678C88.1159 114.223 89.9831 112.328 89.9831 112.328C89.9831 112.328 89.3448 113.821 88.949 115.387C88.5532 116.953 88.3936 118.595 89.3543 118.896C90.2257 119.167 91.6843 117.49 92.0546 116.566C92.4983 115.454 94.2186 115.106 94.2186 115.106C94.2186 115.106 95.9294 119.282 100.554 119.554C105.179 119.826 109.255 118.215 108.882 116.237C108.512 114.259 107.343 111.967 105.722 110.427L105.728 110.424Z" fill="#EBAC88"/>
<path d="M88.2691 108.062C88.2691 108.062 85.1699 109.136 84.5379 114.438" stroke="#CB6A69" stroke-width="2.04" stroke-linecap="round" stroke-linejoin="round"/>
<path d="M94.5187 109.392C91.8854 108.791 90.497 111.242 89.9033 112.239C89.3064 113.233 88.1829 115.032 88.7415 116.847" stroke="#CB6A69" stroke-width="2.04" stroke-linecap="round" stroke-linejoin="round"/>
<path d="M106.322 119.89L87.5542 116.85C85.5848 110.005 81.1386 88.2452 80.1747 87.1683C78.9969 85.8516 36.5843 83.9629 35.2501 85.5608C33.9128 87.1555 42.6104 118.924 42.6104 118.924C42.6104 118.924 104.525 122.293 105.773 122.363C107.018 122.43 106.325 119.89 106.325 119.89H106.322Z" fill="#C4C5C4"/>
<path d="M60.8132 101.587C61.2761 104.077 59.8397 106.429 57.6023 106.845C55.3648 107.26 53.1817 105.579 52.7188 103.089C52.2592 100.6 53.6955 98.2447 55.9298 97.8325C58.1672 97.417 60.3536 99.098 60.8132 101.587Z" fill="#D7D8D7"/>
<path d="M77.5862 89.6417L83.7878 117.026" stroke="#A9A4A9" stroke-width="2.04" stroke-miterlimit="10"/>
<path d="M43.6701 116.742L81.793 118.985" stroke="#A9A4A9" stroke-width="2.04" stroke-miterlimit="10"/>
<path d="M87.5542 116.85C85.5848 110.005 81.1386 88.2452 80.1747 87.1682C80.0726 87.0532 79.6513 86.9349 78.9778 86.8135C79.0384 92.1632 86.4753 119.33 86.4753 119.33C86.4753 119.33 107.085 123.539 106.437 120.414C105.789 117.291 106.325 119.886 106.325 119.886L87.5574 116.847L87.5542 116.85Z" fill="#D7D8D7"/>
<path d="M66.6064 120.57C66.6064 120.57 78.649 124.808 82.5558 128.394" stroke="#653034" stroke-width="2.04" stroke-miterlimit="10"/>
<path d="M179.551 123.485C176.739 118.426 162.769 114.284 155.836 117.314C146.194 121.529 134.873 125.501 125.706 129.959C109.233 137.968 105.537 156.503 104.33 171.255C103.127 186.007 102.84 203.861 106.051 206.364C110.411 209.757 120.165 212.573 128.173 209.221C143.966 202.612 167.346 190.289 171.345 183.856C177.371 174.16 182.363 128.541 179.551 123.482V123.485Z" fill="#76818E"/>
<path d="M174.914 126.7C174.914 126.7 136.022 142.062 131.026 152.777C126.031 163.496 124.33 206.178 124.33 206.178" stroke="#5F7E9F" stroke-width="2.04" stroke-miterlimit="10"/>
<path d="M183.959 167.12C187.936 167.149 202.887 167.727 202.229 170.587C201.575 173.451 188.514 175.592 181.518 175.224C174.521 174.86 165.619 173.844 166.912 170.667C168.208 167.49 179.982 167.091 183.956 167.12H183.959Z" fill="#B6B3B5"/>
<path d="M176.838 113.182C176.838 113.182 186.81 133.232 186.398 146.063C185.986 158.891 182.781 176.928 182.781 176.928C182.781 176.928 177.671 154.736 175.329 143.819C172.983 132.903 176.842 113.182 176.842 113.182H176.838Z" fill="#799C49"/>
<path d="M177.451 118.816C177.451 118.816 182.418 159.933 182.568 173.975" stroke="#9CC755" stroke-width="3.06" stroke-miterlimit="10"/>
<path d="M207.63 119.877C207.745 120.03 200.962 122.75 195.836 128.828C190.694 134.635 186.65 141.768 185.743 151.643C182.367 171.712 191.492 196.939 192.086 196.207C192.172 196.329 191.016 185.7 191.811 176.071C192.698 165.333 193.71 157.919 195.734 151.79C197.502 145.478 199.829 139.604 202.373 132.443C204.751 125.239 207.703 119.883 207.63 119.88V119.877Z" fill="#799C49"/>
<path d="M203.634 124.907C204.084 124.709 194.163 130.857 190.713 146.52C186.615 161.62 187.362 182.651 190.946 192.091" stroke="#9CC755" stroke-width="3.06" stroke-miterlimit="10"/>
<path d="M220.681 131.407C220.773 131.554 214.798 131.883 207.761 135.418C200.764 138.735 192.705 145.264 189.545 152.777C181.409 167.679 186.937 191.069 187.761 190.637C187.831 190.756 188.855 182.159 191.84 174.812C195.169 166.618 197.911 161.057 201.501 156.743C204.846 152.224 207.687 144.986 212.085 139.988C216.305 134.916 220.761 131.43 220.681 131.407Z" fill="#799C49"/>
<path d="M215.13 134.392C215.676 134.344 204.313 139.985 197.052 151.422C189.194 162.265 185.447 178.903 187.384 187.144" stroke="#9CC755" stroke-width="3.06" stroke-miterlimit="10"/>
<path d="M198.75 153.241C194.007 154.41 188.294 162.946 187.036 167.714C185.779 172.482 187.036 184.77 187.036 184.77C187.036 184.77 192.076 175.86 195.81 168.961C199.545 162.061 209.092 155.42 209.092 155.42C209.092 155.42 204.856 151.735 198.75 153.241Z" fill="#A1C956"/>
<path d="M203.771 154.407C203.771 154.407 199.775 157.226 195.817 162.067C192.098 166.618 188.405 177.116 187.965 181.037" stroke="#C5E360" stroke-width="3.06" stroke-miterlimit="10"/>
<path d="M206.005 149.425C206.005 149.425 211.9 149.105 214.776 154.119C217.655 159.134 217.904 165.845 217.904 165.845C217.904 165.845 210.324 157.887 205.28 156.631C200.234 155.375 196.251 154.404 196.251 154.404C196.251 154.404 198.632 152.828 201.422 151.64C203.273 150.85 204.374 149.358 206.002 149.428L206.005 149.425Z" fill="#B0D85E"/>
<path d="M215.488 160.741C215.488 160.741 212.245 154.522 209.009 153.282C206.538 152.336 202.127 151.624 202.127 151.624" stroke="#C5E360" stroke-width="3.06" stroke-miterlimit="10"/>
<path d="M158.099 151.071C158.099 151.071 168.469 158.977 173.474 169.079C178.479 179.181 185.143 192.162 185.143 192.162C185.143 192.162 183.611 171.747 181.387 164.359C179.162 156.97 171.952 144.807 167.266 144.353C161.237 143.768 158.096 151.071 158.096 151.071H158.099Z" fill="#A1C956"/>
<path d="M162.842 147.795C162.842 147.795 167.193 151.167 171.952 157.846C176.427 164.128 182.181 180.11 183.458 186.368" stroke="#C5E360" stroke-width="3.06" stroke-miterlimit="10"/>
<path d="M151.055 151.627C154.445 141.017 159.657 140.355 159.657 140.355C161.157 139.742 162.517 141.835 164.416 142.557C167.282 143.644 169.851 145.481 169.851 145.481C169.851 145.481 166.347 148.287 161.92 151.876C157.49 155.468 148.182 169.219 148.182 169.219C148.182 169.219 148.259 160.383 151.055 151.63V151.627Z" fill="#B0D85E"/>
<path d="M151.917 160.287C151.917 160.287 154.959 150.575 157.707 147.565C159.804 145.264 163.762 142.752 163.762 142.752" stroke="#C5E360" stroke-width="3.06" stroke-miterlimit="10"/>
<path d="M162.121 124.041C162.006 124.182 167.41 125.572 173.158 130.554C178.913 135.3 185.016 143.641 186.446 152.176C190.988 169.433 181.38 193.328 180.713 192.724C180.627 192.836 182.248 185.368 181.588 176.95C181.195 168.472 178.514 159.047 176.066 153.838C173.886 148.453 171.364 140.732 168.316 134.654C165.444 128.528 162.044 124.044 162.121 124.038V124.041Z" fill="#A1C956"/>
<path d="M166.618 128.183C166.127 128.036 175.428 136.012 179.842 149.431C184.92 162.323 185.111 180.66 181.738 189.084" stroke="#C5E360" stroke-width="3.06" stroke-miterlimit="10"/>
<path d="M202.229 170.587C202.229 170.587 201.894 198.502 200.282 204.44C198.67 210.378 190.79 210.569 183.79 210.525C176.79 210.477 169.982 209.329 168.6 205.309C167.215 201.292 166.915 170.667 166.915 170.667C171.99 172.773 178.195 172.815 187.263 172.716C196.331 172.62 202.232 170.587 202.232 170.587H202.229Z" fill="#D1D1CE"/>
<path d="M38.0844 9.35479C38.0844 13.9791 34.3404 17.7245 29.7251 17.7245C25.1097 17.7245 21.3658 13.9759 21.3658 9.35479C21.3658 4.73373 25.1097 0.985107 29.7251 0.985107C34.3404 0.985107 38.0844 4.73373 38.0844 9.35479Z" fill="#89D6DE"/>
<path d="M26.878 4.69861L34.9309 9.35483L26.878 14.011V4.69861Z" fill="white"/>
<path d="M76.303 27.5515C76.303 38.7302 67.2543 47.7902 56.0893 47.7902C44.9244 47.7902 35.8757 38.7302 35.8757 27.5515C35.8757 16.3727 44.9244 7.31274 56.0893 7.31274C67.2543 7.31274 76.303 16.3727 76.303 27.5515Z" fill="#F5F2F2"/>
<path d="M67.7043 18.4756H44.4744V36.6243H67.7043V18.4756Z" fill="#43B09C"/>
<path d="M65.5339 20.7413H46.6416V34.3617H65.5339V20.7413Z" fill="#89D6DE"/>
<path d="M56 30.4853L52.0772 26.7303L46.6416 31.9841V34.3618H65.5339V31.2363L61.0494 24.1066L56 30.4853Z" fill="white"/>
<path d="M53.7434 44.6487H14.4044C12.7734 44.6487 11.4552 45.9717 11.4552 47.6016V72.3271C11.4552 73.957 12.7766 75.28 14.4044 75.28H45.1095L51.9943 82.1733V75.28H53.7434C55.3744 75.28 56.6926 73.957 56.6926 72.3271V47.6016C56.6926 45.9685 55.3712 44.6487 53.7434 44.6487Z" fill="white"/>
<path d="M50.5739 50.6663H17.5739V52.6348H50.5739V50.6663Z" fill="#89D6DE"/>
<path d="M50.5739 58.9816H17.5739V60.9502H50.5739V58.9816Z" fill="#89D6DE"/>
<path d="M50.5739 67.297H17.5739V69.2656H50.5739V67.297Z" fill="#89D6DE"/>
</svg>
