<svg width="26" height="26" viewBox="0 0 26 26" fill="none" xmlns="http://www.w3.org/2000/svg">
<path d="M14.5413 5.04545C14.5417 3.3659 15.1653 1.74623 16.2913 0.5H5.25036C4.09825 0.501203 2.99366 0.959413 2.17899 1.77408C1.36432 2.58875 0.90611 3.69334 0.904907 4.84545V21.1545C0.90611 22.3067 1.36432 23.4112 2.17899 24.2259C2.99366 25.0406 4.09825 25.4988 5.25036 25.5H21.5595C22.7116 25.4988 23.8162 25.0406 24.6308 24.2259C25.4455 23.4112 25.9037 22.3067 25.9049 21.1545V10.1136C24.9264 10.9954 23.7132 11.5744 22.4122 11.7803C21.1112 11.9862 19.7784 11.8102 18.5755 11.2737C17.3725 10.7372 16.3511 9.86318 15.635 8.75766C14.919 7.65215 14.539 6.36262 14.5413 5.04545Z" fill="#76818E"/>
<path d="M21.3595 9.59091C23.8699 9.59091 25.9049 7.55584 25.9049 5.04545C25.9049 2.53507 23.8699 0.5 21.3595 0.5C18.8491 0.5 16.814 2.53507 16.814 5.04545C16.814 7.55584 18.8491 9.59091 21.3595 9.59091Z" fill="#5BC4BF"/>
</svg>
