<?xml version="1.0" encoding="UTF-8"?>
<svg id="Layer_1" data-name="Layer 1" xmlns="http://www.w3.org/2000/svg" version="1.1" viewBox="0 0 512 512">
  <defs>
    <style>
      .cls-1 {
        fill: #0f7235;
      }

      .cls-1, .cls-2 {
        stroke-width: 0px;
      }

      .cls-2 {
        fill: #fff;
      }
    </style>
  </defs>
  <circle class="cls-2" cx="256" cy="256" r="206"/>
  <g>
    <path class="cls-1" d="M175,295.2c-18.8,0-34.1-15.3-34.1-34.1,0-18.8,15.3-34.1,34.1-34.1,18.8,0,34.1,15.3,34.1,34.1h0c0,18.8-15.3,34.1-34.1,34.1ZM175,237.1c-13.3,0-24,10.7-24,24,0,13.3,10.7,24,24,24,13.3,0,24-10.7,24-24h0c0-13.2-10.7-24-24-24h0Z"/>
    <path class="cls-1" d="M218.6,356.2h-87.2c-2.8,0-5.1-2.3-5.1-5.1v-17.4c.1-26.9,22-48.5,48.9-48.4,26.7.1,48.3,21.7,48.4,48.4v17.4c0,2.8-2.3,5.1-5.1,5.1ZM136.5,346.1h77v-12.4c-.1-21.3-17.4-38.4-38.7-38.3-21.1.1-38.2,17.2-38.3,38.3v12.4Z"/>
    <path class="cls-1" d="M337,295.2c-18.8,0-34.1-15.3-34.1-34.1,0-18.8,15.3-34.1,34.1-34.1,18.8,0,34.1,15.3,34.1,34.1h0c0,18.8-15.3,34.1-34.1,34.1ZM337,237.1c-13.3,0-24,10.7-24,24,0,13.3,10.7,24,24,24s24-10.7,24-24h0c0-13.2-10.7-24-24-24h0Z"/>
    <path class="cls-1" d="M380.6,356.2h-87.2c-2.8,0-5.1-2.3-5.1-5.1v-17.4c.1-26.9,22-48.5,48.9-48.4,26.7.1,48.3,21.7,48.4,48.4v17.4c0,2.8-2.3,5.1-5.1,5.1ZM298.5,346.1h77v-12.4c-.1-21.3-17.4-38.4-38.7-38.3-21.1.1-38.2,17.2-38.3,38.3v12.4Z"/>
    <g>
      <g>
        <rect class="cls-1" x="218.9" y="155.8" width="75.9" height="75.9" rx="2.2" ry="2.2"/>
        <rect class="cls-2" x="227.9" y="164.7" width="58.1" height="58.1" rx="1.7" ry="1.7"/>
      </g>
      <g>
        <rect class="cls-1" x="255.4" y="183.8" width="5.1" height="28.2" rx="1.9" ry="1.9"/>
        <circle class="cls-1" cx="258" cy="176" r="2.5"/>
      </g>
    </g>
  </g>
</svg>