     <svg width="23" height="23" viewBox="0 0 23 23" fill="none" xmlns="http://www.w3.org/2000/svg">
<path fill-rule="evenodd" clip-rule="evenodd" d="M16.0154 9.0884C12.2687 9.0884 9.22657 12.1305 9.22657 15.8773C9.22657 19.6244 12.2687 22.6661 16.0154 22.6661C19.7625 22.6661 22.8043 19.6244 22.8043 15.8773C22.8043 12.1305 19.7625 9.0884 16.0154 9.0884ZM0.185242 11.3514V19.2312C0.185242 20.4738 1.19253 21.4811 2.43516 21.4811H8.47237C8.88875 21.4811 9.22657 21.1429 9.22657 20.7265C9.22657 20.3101 8.88875 19.9723 8.47237 19.9723C8.47237 19.9723 4.6315 19.9723 2.43516 19.9723C2.02566 19.9723 1.694 19.6407 1.694 19.2312V11.3514C1.694 10.9353 1.35582 10.5972 0.93944 10.5972C0.523418 10.5972 0.185242 10.9353 0.185242 11.3514ZM15.2612 12.8507V15.8773C15.2612 16.1629 15.4227 16.4244 15.6783 16.5522L18.089 17.7575C18.4612 17.9436 18.9149 17.7926 19.101 17.4201C19.2871 17.0479 19.1361 16.5942 18.7636 16.4081L16.77 15.4113V12.8507C16.77 12.4343 16.4318 12.0961 16.0154 12.0961C15.5994 12.0961 15.2612 12.4343 15.2612 12.8507ZM4.32374 16.6318H6.58669C7.00271 16.6318 7.34089 16.2937 7.34089 15.8773C7.34089 15.4612 7.00271 15.1231 6.58669 15.1231H4.32374C3.90735 15.1231 3.56918 15.4612 3.56918 15.8773C3.56918 16.2937 3.90735 16.6318 4.32374 16.6318ZM4.32374 14.3689H6.58669C7.00271 14.3689 7.34089 14.0307 7.34089 13.6143C7.34089 13.1983 7.00271 12.8601 6.58669 12.8601H4.32374C3.90735 12.8601 3.56918 13.1983 3.56918 13.6143C3.56918 14.0307 3.90735 14.3689 4.32374 14.3689ZM4.32374 12.1059H6.58669C7.00271 12.1059 7.34089 11.7677 7.34089 11.3514C7.34089 10.9353 7.00271 10.5972 6.58669 10.5972H4.32374C3.90735 10.5972 3.56918 10.9353 3.56918 11.3514C3.56918 11.7677 3.90735 12.1059 4.32374 12.1059ZM10.7458 3.05409H6.21991V1.54534C6.21991 1.12895 5.88174 0.791138 5.46535 0.791138C5.04933 0.791138 4.71115 1.12895 4.71115 1.54534V3.05409H2.43516C1.19253 3.05409 0.185242 4.06138 0.185242 5.30365V8.3342C0.185242 8.75059 0.523418 9.0884 0.93944 9.0884C1.35582 9.0884 1.694 8.75059 1.694 8.3342V7.58001H21.306V9.11194C21.306 9.52832 21.6442 9.8665 22.0606 9.8665C22.477 9.8665 22.8148 9.52832 22.8148 9.11194V5.30365C22.8148 4.70696 22.5776 4.13488 22.1558 3.71307C21.734 3.29089 21.1619 3.05409 20.5652 3.05409H18.2889V1.54534C18.2889 1.12895 17.9511 0.791138 17.5347 0.791138C17.1183 0.791138 16.7801 1.12895 16.7801 1.54534V3.05409H12.2542V1.54534C12.2542 1.12895 11.9164 0.791138 11.5 0.791138C11.0836 0.791138 10.7458 1.12895 10.7458 1.54534V3.05409Z" fill="#76818E"/>
</svg>
