<svg width="21" height="23" viewBox="0 0 21 23" fill="none" xmlns="http://www.w3.org/2000/svg">
<path d="M11.3761 3.68599V1.09915L16.5498 6.27283H13.9629C12.1464 6.27283 11.3761 5.50253 11.3761 3.68599ZM17.3086 11.4005L10.4448 18.3103C10.1213 18.6334 9.93934 19.0717 9.93894 19.5289V20.5867C9.93894 20.632 9.93002 20.6768 9.91269 20.7187C9.89535 20.7605 9.86995 20.7985 9.83792 20.8306C9.80589 20.8626 9.76787 20.888 9.72602 20.9053C9.68418 20.9227 9.63932 20.9316 9.59403 20.9316H3.61555C3.14704 20.9984 2.6694 20.9553 2.22045 20.8056C1.77149 20.6559 1.36354 20.4038 1.0289 20.0691C0.694261 19.7345 0.442111 19.3265 0.292415 18.8776C0.142719 18.4286 0.0995871 17.951 0.166433 17.4825V3.68599C0.0995871 3.21748 0.142719 2.73984 0.292415 2.29088C0.442111 1.84193 0.694261 1.43398 1.0289 1.09934C1.36354 0.764695 1.77149 0.512546 2.22045 0.36285C2.6694 0.213154 3.14704 0.170022 3.61555 0.236868H9.65152V3.68599C9.58355 4.26859 9.64831 4.85902 9.84095 5.41304C10.0336 5.96706 10.3491 6.4703 10.7639 6.88505C11.1786 7.29981 11.6818 7.61532 12.2359 7.80796C12.7899 8.0006 13.3803 8.06536 13.9629 7.99739H17.412V11.1591C17.4133 11.2044 17.4047 11.2495 17.3869 11.2912C17.369 11.3329 17.3423 11.3702 17.3086 11.4005ZM5.62754 15.1831C5.62754 15.0125 5.57697 14.8458 5.48222 14.704C5.38747 14.5622 5.2528 14.4517 5.09524 14.3864C4.93768 14.3211 4.7643 14.3041 4.59704 14.3373C4.42977 14.3706 4.27613 14.4527 4.15554 14.5733C4.03494 14.6939 3.95282 14.8476 3.91955 15.0148C3.88628 15.1821 3.90335 15.3555 3.96862 15.513C4.03388 15.6706 4.1444 15.8053 4.2862 15.9C4.42801 15.9948 4.59472 16.0453 4.76526 16.0453C4.99395 16.0453 5.21328 15.9545 5.37499 15.7928C5.53669 15.6311 5.62754 15.4117 5.62754 15.1831ZM5.62754 10.5842C5.62754 10.4137 5.57697 10.247 5.48222 10.1052C5.38747 9.96337 5.2528 9.85285 5.09524 9.78759C4.93768 9.72232 4.7643 9.70525 4.59704 9.73852C4.42977 9.77179 4.27613 9.85391 4.15554 9.97451C4.03494 10.0951 3.95282 10.2487 3.91955 10.416C3.88628 10.5833 3.90335 10.7566 3.96862 10.9142C4.03388 11.0718 4.1444 11.2064 4.2862 11.3012C4.42801 11.3959 4.59472 11.4465 4.76526 11.4465C4.99395 11.4465 5.21328 11.3557 5.37499 11.194C5.53669 11.0322 5.62754 10.8129 5.62754 10.5842ZM10.2264 15.1831C10.2264 14.9544 10.1355 14.735 9.97381 14.5733C9.8121 14.4116 9.59278 14.3208 9.36409 14.3208H7.63953C7.41084 14.3208 7.19151 14.4116 7.0298 14.5733C6.8681 14.735 6.77725 14.9544 6.77725 15.1831C6.77725 15.4117 6.8681 15.6311 7.0298 15.7928C7.19151 15.9545 7.41084 16.0453 7.63953 16.0453H9.36409C9.59278 16.0453 9.8121 15.9545 9.97381 15.7928C10.1355 15.6311 10.2264 15.4117 10.2264 15.1831ZM13.6755 10.5842C13.6755 10.3555 13.5846 10.1362 13.4229 9.97451C13.2612 9.8128 13.0419 9.72195 12.8132 9.72195H7.63953C7.41084 9.72195 7.19151 9.8128 7.0298 9.97451C6.8681 10.1362 6.77725 10.3555 6.77725 10.5842C6.77725 10.8129 6.8681 11.0322 7.0298 11.194C7.19151 11.3557 7.41084 11.4465 7.63953 11.4465H12.8132C13.0419 11.4465 13.2612 11.3557 13.4229 11.194C13.5846 11.0322 13.6755 10.8129 13.6755 10.5842ZM11.6635 19.5289V22.0813H14.2159L18.8147 17.5055L16.2393 14.9301L11.6635 19.5289ZM20.5622 14.3208L19.424 13.1826C19.3292 13.0869 19.2164 13.011 19.0921 12.9591C18.9677 12.9073 18.8344 12.8806 18.6997 12.8806C18.565 12.8806 18.4317 12.9073 18.3074 12.9591C18.183 13.011 18.0702 13.0869 17.9754 13.1826L17.0441 14.1253L19.6195 16.7007L20.5622 15.7694C20.6579 15.6746 20.7338 15.5618 20.7857 15.4375C20.8375 15.3131 20.8642 15.1798 20.8642 15.0451C20.8642 14.9104 20.8375 14.7771 20.7857 14.6527C20.7338 14.5284 20.6579 14.4156 20.5622 14.3208Z" fill="#76818E"/>
</svg>
