<svg width="21" height="23" viewBox="0 0 21 23" fill="none" xmlns="http://www.w3.org/2000/svg">
<path d="M5.09213 5.86981C6.60921 5.86981 7.83905 4.63997 7.83905 3.12289C7.83905 1.60581 6.60921 0.375977 5.09213 0.375977C3.57505 0.375977 2.34521 1.60581 2.34521 3.12289C2.34521 4.63997 3.57505 5.86981 5.09213 5.86981Z" fill="#76818E"/>
<path d="M7.04369 6.26965C6.4752 6.61839 5.81116 6.82381 5.09458 6.82381C4.37799 6.82381 3.70918 6.61839 3.14068 6.26965C1.38744 7.02446 0.154907 8.77293 0.154907 10.808V11.1233H10.0295V10.808C10.0295 9.44174 9.47531 8.20921 8.58196 7.31587C8.14246 6.87636 7.62174 6.51807 7.04369 6.26965Z" fill="#76818E"/>
<path d="M15.9093 16.9951C17.4263 16.9951 18.6562 15.7652 18.6562 14.2481C18.6562 12.7311 17.4263 11.5012 15.9093 11.5012C14.3922 11.5012 13.1624 12.7311 13.1624 14.2481C13.1624 15.7652 14.3922 16.9951 15.9093 16.9951Z" fill="#76818E"/>
<path d="M17.8594 17.3973C17.2909 17.746 16.6221 17.9514 15.9103 17.9514C15.1937 17.9514 14.5248 17.746 13.9611 17.3973C13.3783 17.6457 12.8576 18.004 12.4181 18.4387C11.5247 19.3321 10.9706 20.5694 10.9706 21.9309V22.251H20.8451V21.9309C20.8451 19.8958 19.6126 18.1521 17.8594 17.3973Z" fill="#76818E"/>
<path d="M5.9908 15.7386H7.48177L4.57243 12.2574L1.66882 15.7386H3.12636C3.12636 15.7386 3.8998 20.363 9.89237 20.8789C7.21855 19.4778 5.9908 15.7386 5.9908 15.7386Z" fill="#76818E"/>
</svg>
