 <svg width="23" height="23" viewBox="0 0 23 23" fill="none" xmlns="http://www.w3.org/2000/svg">
<path d="M20.5149 17.6661H7.80823C8.09427 18.2636 8.25291 18.9193 8.25291 19.5887C8.25291 20.2573 8.09474 20.9127 7.80848 21.5114H20.5149C20.9618 21.5114 21.0277 21.1896 22.2497 20.0418C22.5 19.7915 22.5 19.3859 22.2497 19.1356C21.0292 17.9893 20.9609 17.6661 20.5149 17.6661Z" fill="#76818E"/>
<path d="M3.76685 16.3844C2.00006 16.3844 0.5625 17.822 0.5625 19.5887C0.5625 21.3555 2.00006 22.8358 3.76685 22.8358C5.60388 22.8358 6.97119 21.2881 6.97119 19.5887C6.97119 17.8888 5.60136 16.3844 3.76685 16.3844Z" fill="#76818E"/>
<path d="M16.6697 13.8209C17.1166 13.8209 17.1825 13.4992 18.4045 12.3514C18.6548 12.1011 18.6548 11.6955 18.4045 11.4452C17.184 10.2989 17.1157 9.97571 16.6697 9.97571H7.80823C8.09427 10.5732 8.25291 11.2289 8.25291 11.8983C8.25291 12.5669 8.09474 13.2222 7.80848 13.8209H16.6697Z" fill="#76818E"/>
<path d="M3.76685 15.1027C5.53656 15.1027 6.97119 13.668 6.97119 11.8983C6.97119 10.1286 5.53656 8.69397 3.76685 8.69397C1.99713 8.69397 0.5625 10.1286 0.5625 11.8983C0.5625 13.668 1.99713 15.1027 3.76685 15.1027Z" fill="#76818E"/>
<path d="M11.5427 6.13049C11.9896 6.13049 12.0555 5.80873 13.2775 4.66098C13.5279 4.41066 13.5279 4.00507 13.2775 3.75475C12.0571 2.60849 11.9887 2.28528 11.5427 2.28528H7.80823C8.09427 2.88274 8.25291 3.53848 8.25291 4.20789C8.25291 4.87644 8.09474 5.53179 7.80848 6.13049H11.5427Z" fill="#76818E"/>
<path d="M3.76685 0.960815C2.00006 0.960815 0.5625 2.44109 0.5625 4.20789C0.5625 5.97468 2.00006 7.41223 3.76685 7.41223C5.60388 7.41223 6.97119 5.90726 6.97119 4.20789C6.97119 2.50796 5.60136 0.960815 3.76685 0.960815Z" fill="#76818E"/>
</svg>
