<svg width="23" height="23" viewBox="0 0 23 23" fill="none" xmlns="http://www.w3.org/2000/svg">
<path fill-rule="evenodd" clip-rule="evenodd" d="M11.5652 3.69335L12.2698 5.54925C12.291 5.60506 12.3403 5.64085 12.3999 5.64378L14.3827 5.74041C14.4448 5.74343 14.4959 5.78255 14.5152 5.84168C14.5344 5.90081 14.516 5.96252 14.4675 6.00146L12.9202 7.2451C12.8737 7.28246 12.8549 7.34046 12.8705 7.39802L13.3913 9.31362C13.4076 9.37363 13.3863 9.43433 13.336 9.47087C13.2857 9.50741 13.2213 9.50898 13.1693 9.47493L11.5083 8.38768C11.4584 8.35499 11.3975 8.35499 11.3475 8.38768L9.68666 9.47493C9.63465 9.50898 9.57028 9.50741 9.52002 9.47087C9.46971 9.43433 9.44834 9.37358 9.46464 9.31362L9.98543 7.39802C10.0011 7.34046 9.98224 7.28246 9.93574 7.2451L8.38844 6.00146C8.33998 5.96252 8.32158 5.90081 8.34081 5.84168C8.35999 5.78255 8.41117 5.74347 8.47328 5.74041L10.4561 5.64378C10.5157 5.6409 10.565 5.60506 10.5861 5.54925L11.2907 3.69335C11.3128 3.63522 11.3658 3.59868 11.428 3.59868C11.4902 3.59868 11.5431 3.63522 11.5652 3.69335ZM7.72509 3.10949L8.96527 4.2262C9.10858 4.35518 9.32933 4.34355 9.4583 4.20024C9.58728 4.05693 9.57565 3.83618 9.43234 3.7072L8.19216 2.59049C8.04886 2.46152 7.8281 2.47314 7.69913 2.61645C7.57015 2.75976 7.58173 2.98052 7.72509 3.10949ZM14.6637 2.59049L13.4163 3.71372C13.273 3.84269 13.2614 4.06345 13.3903 4.20675C13.5193 4.35006 13.7401 4.36169 13.8834 4.23272L15.1308 3.10949C15.2741 2.98052 15.2857 2.75976 15.1568 2.61645C15.0277 2.47314 14.807 2.46152 14.6637 2.59049ZM11.7776 2.2999C11.7776 2.49299 11.6211 2.64954 11.428 2.64954C11.2349 2.64954 11.0783 2.49299 11.0783 2.2999V1.01676C11.0783 0.823666 11.2349 0.667114 11.428 0.667114C11.6211 0.667114 11.7776 0.823666 11.7776 1.01676V2.2999ZM11.428 10.5968C12.7828 10.5968 13.8811 11.6951 13.8811 13.0499C13.8811 14.4047 12.7828 15.503 11.428 15.503C10.0731 15.503 8.97488 14.4047 8.97488 13.0499C8.97488 11.6951 10.0731 10.5968 11.428 10.5968ZM16.2518 20.2698C15.9913 17.8358 13.9311 15.9401 11.428 15.9401C8.9248 15.9401 6.86458 17.8358 6.60409 20.2699V21.2505C6.60409 21.9647 7.18655 22.5471 7.9007 22.5471H14.9552C15.6693 22.5471 16.2518 21.9647 16.2518 21.2505V20.2698ZM18.7594 12.3782C19.773 12.3782 20.5947 13.1999 20.5947 14.2135C20.5947 15.227 19.773 16.0487 18.7594 16.0487C17.7459 16.0487 16.9242 15.227 16.9242 14.2135C16.9242 13.1999 17.7458 12.3782 18.7594 12.3782ZM4.09651 12.3782C5.11007 12.3782 5.93173 13.1999 5.93173 14.2135C5.93173 15.227 5.11007 16.0487 4.09651 16.0487C3.08294 16.0487 2.26128 15.227 2.26128 14.2135C2.26128 13.1999 3.08294 12.3782 4.09651 12.3782ZM4.09646 16.5389C5.16602 16.5389 6.12749 17.0015 6.79181 17.7375C6.32298 18.4473 6.01211 19.2734 5.91193 20.1688H1.42105C1.1489 20.1688 0.914726 20.0505 0.753235 19.8314C0.591744 19.6124 0.547996 19.3537 0.628501 19.0937C1.08675 17.6138 2.46613 16.5389 4.09646 16.5389ZM18.7594 16.5389C20.3898 16.5389 21.7691 17.6138 22.2273 19.0937C22.3079 19.3537 22.2641 19.6123 22.1026 19.8314C21.9411 20.0505 21.707 20.1688 21.4348 20.1688H16.9439C16.8437 19.2734 16.5328 18.4474 16.064 17.7375C16.7284 17.0015 17.6899 16.5389 18.7594 16.5389ZM3.82095 3.69335L4.52556 5.54925C4.54676 5.60506 4.59606 5.64085 4.65567 5.64378L6.63845 5.74041C6.70055 5.74343 6.75169 5.78255 6.77092 5.84168C6.7901 5.90081 6.77175 5.96252 6.72328 6.00146L5.17598 7.2451C5.12948 7.28246 5.11064 7.34046 5.12629 7.39802L5.64708 9.31362C5.66338 9.37363 5.64201 9.43433 5.59171 9.47087C5.5414 9.50741 5.47707 9.50898 5.42501 9.47493L3.76409 8.38768C3.71417 8.35499 3.65321 8.35499 3.60329 8.38768L1.94241 9.47493C1.8904 9.50898 1.82602 9.50741 1.77576 9.47087C1.72546 9.43433 1.70409 9.37358 1.72039 9.31362L2.24118 7.39802C2.25683 7.34046 2.23799 7.28246 2.19149 7.2451L0.644191 6.00142C0.595722 5.96248 0.577322 5.90077 0.596552 5.84163C0.615739 5.7825 0.666917 5.74343 0.729023 5.74037L2.7118 5.64374C2.77141 5.64085 2.82071 5.60501 2.84186 5.5492L3.54652 3.69335C3.56859 3.63522 3.62156 3.59868 3.68376 3.59868C3.74595 3.59868 3.79888 3.63522 3.82095 3.69335ZM19.2863 3.69335L19.9909 5.54925C20.0121 5.60506 20.0614 5.64085 20.121 5.64378L22.1038 5.74041C22.1659 5.74343 22.217 5.78255 22.2363 5.84168C22.2554 5.90081 22.2371 5.96252 22.1886 6.00146L20.6413 7.2451C20.5948 7.28246 20.576 7.34046 20.5916 7.39802L21.1124 9.31362C21.1287 9.37363 21.1074 9.43433 21.0571 9.47087C21.0068 9.50741 20.9425 9.50898 20.8904 9.47493L19.2295 8.38768C19.1796 8.35499 19.1186 8.35499 19.0687 8.38768L17.4078 9.47493C17.3558 9.50898 17.2914 9.50741 17.2411 9.47087C17.1908 9.43433 17.1694 9.37358 17.1857 9.31362L17.7065 7.39802C17.7222 7.34046 17.7033 7.28246 17.6568 7.2451L16.1095 6.00146C16.0611 5.96252 16.0427 5.90081 16.0619 5.84168C16.0811 5.78255 16.1323 5.74347 16.1944 5.74041L18.1771 5.64378C18.2368 5.6409 18.2861 5.60506 18.3072 5.54925L19.0118 3.69335C19.0339 3.63522 19.0869 3.59868 19.1491 3.59868C19.2113 3.59868 19.2642 3.63522 19.2863 3.69335Z" fill="#76818E"/>
</svg>
