<svg width="23" height="23" viewBox="0 0 23 23" fill="none" xmlns="http://www.w3.org/2000/svg">
<path d="M12.4943 4.59867C12.4947 3.12906 13.0403 1.71185 14.0256 0.621399H4.36477C3.35667 0.622452 2.39016 1.02339 1.67732 1.73622C0.964486 2.44906 0.563553 3.41557 0.5625 4.42367V18.6941C0.563553 19.7022 0.964486 20.6687 1.67732 21.3816C2.39016 22.0944 3.35667 22.4953 4.36477 22.4964H18.6352C19.6433 22.4953 20.6098 22.0944 21.3227 21.3816C22.0355 20.6687 22.4364 19.7022 22.4375 18.6941V9.03333C21.5813 9.80489 20.5197 10.3115 19.3814 10.4916C18.243 10.6718 17.0768 10.5178 16.0243 10.0484C14.9717 9.57894 14.0779 8.81418 13.4514 7.84685C12.8248 6.87953 12.4923 5.75119 12.4943 4.59867Z" fill="#76818E"/>
<path d="M18.4602 8.57594C20.6568 8.57594 22.4375 6.79526 22.4375 4.59867C22.4375 2.40208 20.6568 0.621399 18.4602 0.621399C16.2637 0.621399 14.483 2.40208 14.483 4.59867C14.483 6.79526 16.2637 8.57594 18.4602 8.57594Z" fill="#76818E"/>
</svg>
