<svg width="40" height="40" viewBox="0 0 40 40" fill="none" xmlns="http://www.w3.org/2000/svg">
<rect width="40" height="40" rx="3" fill="#EAECEB"/>
<path d="M21.1364 12.0455C21.1368 10.3659 21.7604 8.74623 22.8864 7.5H11.8455C10.6933 7.5012 9.58875 7.95941 8.77408 8.77408C7.95941 9.58875 7.5012 10.6933 7.5 11.8455V28.1545C7.5012 29.3067 7.95941 30.4112 8.77408 31.2259C9.58875 32.0406 10.6933 32.4988 11.8455 32.5H28.1545C29.3067 32.4988 30.4112 32.0406 31.2259 31.2259C32.0406 30.4112 32.4988 29.3067 32.5 28.1545V17.1136C31.5215 17.9954 30.3082 18.5744 29.0073 18.7803C27.7063 18.9862 26.3735 18.8102 25.1706 18.2737C23.9676 17.7372 22.9462 16.8632 22.2301 15.7577C21.514 14.6521 21.1341 13.3626 21.1364 12.0455Z" fill="#76818E"/>
<path d="M27.9546 16.5909C30.465 16.5909 32.5 14.5558 32.5 12.0455C32.5 9.53507 30.465 7.5 27.9546 7.5C25.4442 7.5 23.4091 9.53507 23.4091 12.0455C23.4091 14.5558 25.4442 16.5909 27.9546 16.5909Z" fill="#5BC4BF"/>
</svg>
