<svg width="255" height="255" viewBox="0 0 255 255" fill="none" xmlns="http://www.w3.org/2000/svg">
<g filter="url(#filter0_d_105_646)">
<circle cx="123.488" cy="123.488" r="102.488" fill="white"/>
</g>
<path d="M218.597 123.487C218.597 153.625 204.578 180.49 182.705 197.914C166.459 210.862 145.875 218.597 123.487 218.597C101.098 218.597 80.5148 210.862 64.2683 197.914C42.3951 180.49 28.377 153.625 28.377 123.487C28.377 70.9596 70.9596 28.377 123.487 28.377C176.014 28.377 218.597 70.9596 218.597 123.487Z" fill="#5BC4BF"/>
<path d="M123.486 142.213C145.566 142.213 163.465 124.314 163.465 102.234C163.465 80.1535 145.566 62.2539 123.486 62.2539C101.405 62.2539 83.5059 80.1535 83.5059 102.234C83.5059 124.314 101.405 142.213 123.486 142.213Z" fill="white"/>
<path d="M182.705 197.916C166.458 210.863 145.875 218.598 123.486 218.598C101.097 218.598 80.5141 210.863 64.2676 197.916C71.9584 172.501 95.5612 153.999 123.486 153.999C151.411 153.999 175.014 172.501 182.705 197.916Z" fill="white"/>
<defs>
<filter id="filter0_d_105_646" x="0" y="0" width="254.976" height="254.976" filterUnits="userSpaceOnUse" color-interpolation-filters="sRGB">
<feFlood flood-opacity="0" result="BackgroundImageFix"/>
<feColorMatrix in="SourceAlpha" type="matrix" values="0 0 0 0 0 0 0 0 0 0 0 0 0 0 0 0 0 0 127 0" result="hardAlpha"/>
<feOffset dx="4" dy="4"/>
<feGaussianBlur stdDeviation="12.5"/>
<feComposite in2="hardAlpha" operator="out"/>
<feColorMatrix type="matrix" values="0 0 0 0 0 0 0 0 0 0 0 0 0 0 0 0 0 0 0.15 0"/>
<feBlend mode="normal" in2="BackgroundImageFix" result="effect1_dropShadow_105_646"/>
<feBlend mode="normal" in="SourceGraphic" in2="effect1_dropShadow_105_646" result="shape"/>
</filter>
</defs>
</svg>
