<svg width="27" height="26" viewBox="0 0 27 26" fill="none" xmlns="http://www.w3.org/2000/svg">
<path fill-rule="evenodd" clip-rule="evenodd" d="M21.8657 15.8245C20.5819 15.8245 19.5368 16.869 19.5368 18.1534C19.5369 19.4377 20.5818 20.4827 21.8656 20.4827C23.1501 20.4827 24.195 19.4378 24.195 18.1534C24.1951 16.869 23.15 15.8245 21.8657 15.8245Z" fill="#C7CED4"/>
<path fill-rule="evenodd" clip-rule="evenodd" d="M5.75011 15.8245C4.46579 15.8245 3.42123 16.869 3.42123 18.1534C3.42134 19.4377 4.46569 20.4827 5.75007 20.4827C7.03455 20.4827 8.07945 19.4378 8.07945 18.1534C8.07951 16.869 7.03444 15.8245 5.75011 15.8245Z" fill="#7397B5"/>
<path fill-rule="evenodd" clip-rule="evenodd" d="M23.0948 0.616028V9.25511H24.2074V0.616028H23.0948Z" fill="#7397B5"/>
<path fill-rule="evenodd" clip-rule="evenodd" d="M21.3638 2.48167V7.40022V7.74478H22.4765L22.4765 2.12693L21.3638 2.12689V2.45433C21.3642 2.46352 21.3642 2.47263 21.3638 2.48167Z" fill="#7397B5"/>
<path fill-rule="evenodd" clip-rule="evenodd" d="M13.7622 3.26744L18.1241 7.12212L20.7455 7.09718V2.78662C19.096 2.81216 18.1404 2.44055 17.2144 2.08074C16.5645 1.82794 15.9505 1.58912 15.1089 1.50217C13.3425 1.31866 11.8969 1.88552 10.9006 2.67171C10.8832 2.68949 10.8636 2.70519 10.8424 2.71836C10.1772 3.25849 9.72083 3.89509 9.51408 4.46165C9.36004 4.88459 9.37132 5.23293 9.54253 5.34884C9.85394 5.55995 11.0036 5.36062 13.3404 3.27849C13.4553 3.16569 13.6395 3.15906 13.7622 3.26744Z" fill="#7397B5"/>
<path fill-rule="evenodd" clip-rule="evenodd" d="M21.8657 21.1011C19.31 21.1011 17.2118 23.0993 17.0513 25.616H26.6802C26.5202 23.0993 24.4221 21.1011 21.8657 21.1011Z" fill="#7397B5"/>
<path fill-rule="evenodd" clip-rule="evenodd" d="M13.808 15.0959C12.7766 15.0959 11.9377 15.9348 11.9377 16.9662C11.9377 17.9976 12.7765 18.8364 13.8079 18.8364C14.8393 18.8364 15.6781 17.9976 15.6781 16.9662C15.6781 15.9348 14.8392 15.096 13.808 15.0959Z" fill="#43B09C"/>
<path fill-rule="evenodd" clip-rule="evenodd" d="M5.75008 21.1011C3.1943 21.1011 1.09562 23.0993 0.935669 25.616H10.5646C10.4045 23.0993 8.30648 21.1011 5.75008 21.1011Z" fill="#C7CED4"/>
<path fill-rule="evenodd" clip-rule="evenodd" d="M6.87021 2.76453L6.8703 8.38188L8.05798 8.38186C8.1331 8.38186 8.20556 8.40926 8.2619 8.45865L12.4941 12.1733C12.7694 12.4148 13.2346 12.4148 13.5094 12.1733C13.6308 12.0665 13.6978 11.9275 13.6978 11.7809C13.6978 11.6349 13.6307 11.4954 13.5094 11.3886L11.4141 9.54979C11.2858 9.43707 11.2729 9.24171 11.3856 9.11343C11.4984 8.98516 11.6937 8.97229 11.822 9.085L13.9174 10.9243C14.1927 11.1658 14.6575 11.1659 14.9328 10.9243C15.0542 10.8175 15.1212 10.6785 15.1212 10.532C15.1213 10.3855 15.0541 10.2465 14.9328 10.1397L12.8371 8.30083C12.7087 8.18811 12.6963 7.99275 12.8085 7.86449C12.9212 7.7362 13.1166 7.72333 13.2448 7.83604L15.3408 9.67484L15.3424 9.67631C15.618 9.91635 16.0814 9.91589 16.3562 9.67485C16.4775 9.56856 16.5441 9.42904 16.5441 9.28303C16.5441 9.13651 16.4775 8.99751 16.3562 8.8907L14.2603 7.05136C14.1321 6.93863 14.1192 6.74381 14.2319 6.61501C14.3446 6.4867 14.54 6.47438 14.6682 6.58656L16.7642 8.42588L16.7667 8.42808C17.0418 8.66737 17.5046 8.66669 17.7791 8.42591C17.8983 8.32175 17.9648 8.18546 17.9675 8.04268C17.9702 7.90204 17.9106 7.7668 17.8 7.66054L13.5572 3.91129C11.9585 5.30469 10.6653 6.0316 9.80832 6.03158C9.56885 6.03158 9.36381 5.97469 9.19527 5.86037C8.76915 5.5716 8.67091 4.96941 8.93336 4.24965C9.11829 3.74287 9.45361 3.22912 9.89117 2.76453H6.87021Z" fill="#7397B5"/>
<path fill-rule="evenodd" clip-rule="evenodd" d="M5.13925 2.76453L5.13927 8.38188L6.25199 8.38186V2.76453H5.13925Z" fill="#7397B5"/>
<path fill-rule="evenodd" clip-rule="evenodd" d="M3.40842 1.25366V9.89274H4.521V8.69236L4.52098 8.69102L4.521 8.68969V2.45674L4.52098 2.4554L4.521 2.45406V1.25366H3.40842Z" fill="#7397B5"/>
<path fill-rule="evenodd" clip-rule="evenodd" d="M13.2785 14.4457L13.2786 13.0346C13.5331 12.9884 13.776 12.8778 13.9752 12.7027C14.1332 12.5637 14.2539 12.3918 14.3262 12.2007C14.3335 12.2358 14.3374 12.2723 14.3374 12.3096L14.3375 14.4457C14.1666 14.4099 13.9895 14.3909 13.8081 14.3909C13.6266 14.3909 13.4495 14.4099 13.2785 14.4457Z" fill="#43B09C"/>
<path fill-rule="evenodd" clip-rule="evenodd" d="M16.7252 23.888H10.8912C10.7422 23.5128 10.5531 23.1583 10.3297 22.8291H17.2868C17.0634 23.1583 16.8743 23.5128 16.7252 23.888Z" fill="#43B09C"/>
<path fill-rule="evenodd" clip-rule="evenodd" d="M13.8081 23.632C13.5159 23.6319 13.2786 23.3948 13.2786 23.1025L13.2787 19.4867C13.4496 19.5225 13.6266 19.5414 13.8081 19.5414C13.9895 19.5414 14.1666 19.5225 14.3375 19.4866L14.3376 23.1025C14.3376 23.3946 14.1004 23.632 13.8081 23.632Z" fill="#43B09C"/>
</svg>
