<svg width="40" height="40" viewBox="0 0 40 40" fill="none" xmlns="http://www.w3.org/2000/svg">
<rect width="40" height="40" rx="3" fill="#EAECEB"/>
<path d="M31.128 17.2855L29.1698 17.0366C29.0084 16.5395 28.8093 16.0604 28.5772 15.6053L29.7864 14.0479C30.276 13.4177 30.2188 12.5282 29.6594 11.9865L28.0187 10.3458C27.4718 9.78119 26.5823 9.72492 25.9511 10.2136L24.3959 11.4228C23.9406 11.1907 23.4615 10.9916 22.9634 10.8302L22.7145 8.87501C22.6209 8.09071 21.9552 7.5 21.1667 7.5H18.8333C18.0448 7.5 17.3791 8.09071 17.2855 8.87196L17.0366 10.8302C16.5385 10.9916 16.0594 11.1896 15.6041 11.4228L14.0479 10.2136C13.4187 9.72492 12.5291 9.78119 11.9865 10.3406L10.3458 11.9802C9.78119 12.5282 9.72397 13.4177 10.2136 14.0489L11.4228 15.6053C11.1896 16.0604 10.9916 16.5395 10.8302 17.0366L8.87501 17.2855C8.09071 17.3791 7.5 18.0448 7.5 18.8333V21.1667C7.5 21.9552 8.09071 22.6209 8.87196 22.7145L10.8302 22.9634C10.9916 23.4605 11.1907 23.9396 11.4228 24.3947L10.2136 25.9521C9.72397 26.5823 9.78119 27.4718 10.3406 28.0135L11.9813 29.6542C12.5291 30.2177 13.4177 30.2739 14.0489 29.7855L15.6053 28.576C16.0604 28.8093 16.5395 29.0084 17.0366 29.1688L17.2855 31.1229C17.3791 31.9093 18.0448 32.5 18.8333 32.5H21.1667C21.9552 32.5 22.6209 31.9093 22.7145 31.128L22.9634 29.1698C23.4605 29.0084 23.9396 28.8093 24.3947 28.5772L25.9521 29.7864C26.5823 30.276 27.4718 30.2188 28.0135 29.6594L29.6542 28.0187C30.2188 27.4709 30.276 26.5823 29.7864 25.9511L28.5772 24.3947C28.8104 23.9396 29.0094 23.4605 29.1698 22.9634L31.124 22.7145C31.9083 22.6209 32.499 21.9552 32.499 21.1667V18.8333C32.5 18.0448 31.9093 17.3791 31.128 17.2855ZM20 25.2084C17.1281 25.2084 14.7916 22.8719 14.7916 20C14.7916 17.1281 17.1281 14.7916 20 14.7916C22.8719 14.7916 25.2084 17.1281 25.2084 20C25.2084 22.8719 22.8719 25.2084 20 25.2084Z" fill="#76818E"/>
</svg>
