<svg width="26" height="26" viewBox="0 0 26 26" fill="none" xmlns="http://www.w3.org/2000/svg">
<path d="M24.0485 10.2855L22.0902 10.0366C21.9288 9.5395 21.7297 9.06037 21.4976 8.60528L22.7068 7.04793C23.1964 6.41774 23.1392 5.52815 22.5798 4.98647L20.9391 3.34576C20.3923 2.78119 19.5027 2.72492 18.8715 3.21358L17.3163 4.42284C16.861 4.19072 16.3819 3.99159 15.8839 3.83023L15.6349 1.87501C15.5413 1.09071 14.8756 0.5 14.0871 0.5H11.7537C10.9652 0.5 10.2995 1.09071 10.2059 1.87196L9.95696 3.83023C9.45895 3.99159 8.97983 4.18958 8.52454 4.42284L6.96834 3.21358C6.3391 2.72492 5.44952 2.78119 4.90688 3.34061L3.26617 4.98017C2.7016 5.52815 2.64438 6.41774 3.134 7.04888L4.34325 8.60528C4.10999 9.06037 3.912 9.5395 3.75064 10.0366L1.79542 10.2855C1.01112 10.3791 0.42041 11.0448 0.42041 11.8333V14.1667C0.42041 14.9552 1.01112 15.6209 1.79237 15.7145L3.75064 15.9634C3.912 16.4605 4.11113 16.9396 4.34325 17.3947L3.134 18.9521C2.64438 19.5823 2.7016 20.4718 3.26102 21.0135L4.90173 22.6542C5.44952 23.2177 6.33815 23.2739 6.96929 22.7855L8.52569 21.576C8.98078 21.8093 9.45991 22.0084 9.95696 22.1688L10.2059 24.1229C10.2995 24.9093 10.9652 25.5 11.7537 25.5H14.0871C14.8756 25.5 15.5413 24.9093 15.6349 24.128L15.8839 22.1698C16.3809 22.0084 16.86 21.8093 17.3151 21.5772L18.8725 22.7864C19.5027 23.276 20.3923 23.2188 20.9339 22.6594L22.5746 21.0187C23.1392 20.4709 23.1964 19.5823 22.7068 18.9511L21.4976 17.3947C21.7308 16.9396 21.9298 16.4605 22.0902 15.9634L24.0444 15.7145C24.8288 15.6209 25.4195 14.9552 25.4195 14.1667V11.8333C25.4204 11.0448 24.8297 10.3791 24.0485 10.2855ZM12.9204 18.2084C10.0485 18.2084 7.71201 15.8719 7.71201 13C7.71201 10.1281 10.0485 7.7916 12.9204 7.7916C15.7923 7.7916 18.1288 10.1281 18.1288 13C18.1288 15.8719 15.7923 18.2084 12.9204 18.2084Z" fill="#76818E"/>
</svg>
