<svg width="50" height="24" viewBox="0 0 50 24" fill="none" xmlns="http://www.w3.org/2000/svg">
<rect x="0.5" y="0.5" width="49" height="23" rx="11.5" fill="white" stroke="#76818E"/>
<circle cx="12" cy="12" r="9.5" fill="#76818E" stroke="#76818E"/>
<path fill-rule="evenodd" clip-rule="evenodd" d="M39.4031 7.20925C39.2746 7.08075 39.1003 7.00857 38.9185 7.00857C38.7368 7.00857 38.5625 7.08075 38.4339 7.20925L34.8062 10.837L31.1784 7.20925C31.1152 7.14378 31.0396 7.09157 30.956 7.05565C30.8723 7.01972 30.7824 7.00082 30.6914 7.00003C30.6004 6.99924 30.5101 7.01658 30.4259 7.05104C30.3417 7.0855 30.2652 7.1364 30.2008 7.20075C30.1364 7.2651 30.0855 7.34162 30.051 7.42586C30.0166 7.51009 29.9993 7.60034 30.0001 7.69135C30.0009 7.78236 30.0198 7.87229 30.0557 7.95591C30.0916 8.03953 30.1438 8.11516 30.2093 8.17838L33.8371 11.8061L30.2093 15.4339C30.0844 15.5632 30.0153 15.7363 30.0169 15.916C30.0185 16.0957 30.0905 16.2676 30.2177 16.3947C30.3447 16.5218 30.5166 16.5939 30.6963 16.5954C30.876 16.597 31.0492 16.5279 31.1784 16.403L34.8062 12.7753L38.4339 16.403C38.5632 16.5279 38.7363 16.597 38.916 16.5954C39.0958 16.5939 39.2677 16.5218 39.3947 16.3947C39.5218 16.2676 39.5939 16.0957 39.5955 15.916C39.597 15.7363 39.5279 15.5632 39.4031 15.4339L35.7753 11.8061L39.4031 8.17838C39.5316 8.04986 39.6038 7.87555 39.6038 7.69381C39.6038 7.51207 39.5316 7.33777 39.4031 7.20925Z" fill="#76818E"/>
</svg>
