<svg width="55" height="53" viewBox="0 0 55 53" fill="none" xmlns="http://www.w3.org/2000/svg">
<path d="M0.5 12C0.5 9.15744 0.501062 7.07582 0.715211 5.48299C0.927427 3.90455 1.34062 2.88121 2.11091 2.11091C2.88121 1.34062 3.90455 0.927427 5.48299 0.715211C7.07582 0.501062 9.15744 0.5 12 0.5H43C45.8426 0.5 47.9242 0.501062 49.517 0.715211C51.0954 0.927427 52.1188 1.34062 52.8891 2.11091C53.6594 2.88121 54.0726 3.90455 54.2848 5.48299C54.4989 7.07582 54.5 9.15744 54.5 12V41C54.5 43.8426 54.4989 45.9242 54.2848 47.517C54.0726 49.0954 53.6594 50.1188 52.8891 50.8891C52.1188 51.6594 51.0954 52.0726 49.517 52.2848C47.9242 52.4989 45.8426 52.5 43 52.5H12C9.15744 52.5 7.07581 52.4989 5.48299 52.2848C3.90455 52.0726 2.88121 51.6594 2.11091 50.8891C1.34062 50.1188 0.927427 49.0954 0.715211 47.517C0.501062 45.9242 0.5 43.8426 0.5 41V12Z" fill="#5BC4BF" stroke="#5BC4BF"/>
<path d="M26.2899 32.2415L23.9336 34.5979C22.9567 35.5748 21.3747 35.5748 20.3987 34.5981C19.4224 33.6218 19.4224 32.0397 20.3985 31.0636L25.112 26.3501C26.088 25.374 27.6702 25.374 28.6462 26.3501C28.9716 26.6755 29.4992 26.6755 29.8246 26.3501C30.15 26.0247 30.15 25.4971 29.8246 25.1718C28.1977 23.5449 25.5605 23.5449 23.9336 25.1718L19.2202 29.8852C17.5933 31.5121 17.5933 34.1493 19.2202 35.7762C20.8468 37.4039 23.4843 37.4039 25.112 35.7762L27.4683 33.4198C27.7937 33.0945 27.7937 32.5669 27.4683 32.2415C27.1429 31.9161 26.6153 31.9162 26.2899 32.2415Z" fill="white"/>
<path d="M36.7763 18.2202C35.1494 16.5933 32.5113 16.5933 30.8845 18.2202L28.0574 21.0472C27.732 21.3726 27.732 21.9002 28.0574 22.2256C28.3827 22.551 28.9103 22.551 29.2357 22.2256L32.0628 19.3985C33.0389 18.4224 34.6218 18.4224 35.5979 19.3985C36.574 20.3746 36.574 21.9567 35.5979 22.9328L30.4137 28.1171C29.4376 29.0932 27.8555 29.0932 26.8794 28.1171C26.554 27.7917 26.0265 27.7917 25.7011 28.1171C25.3757 28.4425 25.3757 28.97 25.7011 29.2954C27.3279 30.9223 29.9652 30.9223 31.592 29.2954L36.7763 24.1112C38.4032 22.4843 38.4032 19.847 36.7763 18.2202Z" fill="white"/>
</svg>
