<svg width="20" height="20" viewBox="0 0 20 20" fill="none" xmlns="http://www.w3.org/2000/svg">
<path d="M12.0203 19.9994H2.55813C1.87989 19.9987 1.22962 19.729 0.750022 19.2494C0.270428 18.7698 0.000689527 18.1195 0 17.4413V3.48782C0.000689527 2.80957 0.270428 2.1593 0.750022 1.67971C1.22962 1.20012 1.87989 0.930377 2.55813 0.929688H17.4418C18.1201 0.930377 18.7703 1.20012 19.2499 1.67971C19.7295 2.1593 19.9993 2.80957 20 3.48782V12.0193C20.0009 12.3555 19.9351 12.6884 19.8065 12.999C19.6778 13.3095 19.4889 13.5915 19.2505 13.8285L13.829 19.25C13.5921 19.4883 13.3102 19.6772 12.9997 19.8059C12.6893 19.9345 12.3564 20.0003 12.0203 19.9994ZM2.55813 2.32503C2.24983 2.32532 1.95424 2.44792 1.73623 2.66592C1.51823 2.88393 1.39563 3.17952 1.39535 3.48782V17.4413C1.39563 17.7496 1.51823 18.0452 1.73623 18.2632C1.95424 18.4812 2.24983 18.6038 2.55813 18.6041H12.0203C12.3286 18.6033 12.624 18.4809 12.8424 18.2634L18.264 12.8419C18.3723 12.7341 18.4582 12.6059 18.5167 12.4648C18.5752 12.3236 18.6051 12.1722 18.6046 12.0193V3.48782C18.6043 3.17952 18.4817 2.88393 18.2637 2.66592C18.0457 2.44792 17.7501 2.32532 17.4418 2.32503H2.55813Z" fill="#5BC4BF"/>
<path d="M5.34806 4.18604C5.16304 4.18599 4.98562 4.11247 4.85479 3.98164C4.72396 3.85081 4.65044 3.67338 4.65039 3.48837V0.697673C4.65039 0.512639 4.7239 0.335183 4.85473 0.204344C4.98557 0.0735047 5.16303 0 5.34806 0C5.5331 0 5.71055 0.0735047 5.84139 0.204344C5.97223 0.335183 6.04574 0.512639 6.04574 0.697673V3.48837C6.04569 3.67338 5.97217 3.85081 5.84134 3.98164C5.71051 4.11247 5.53308 4.18599 5.34806 4.18604Z" fill="#5BC4BF"/>
<path d="M10.0004 4.18604C9.81539 4.18599 9.63796 4.11247 9.50713 3.98164C9.3763 3.85081 9.30278 3.67338 9.30273 3.48837V0.697673C9.30273 0.512639 9.37624 0.335183 9.50708 0.204344C9.63792 0.0735047 9.81537 0 10.0004 0C10.1854 0 10.3629 0.0735047 10.4937 0.204344C10.6246 0.335183 10.6981 0.512639 10.6981 0.697673V3.48837C10.698 3.67338 10.6245 3.85081 10.4937 3.98164C10.3629 4.11247 10.1854 4.18599 10.0004 4.18604Z" fill="#5BC4BF"/>
<path d="M14.6508 4.18604C14.4658 4.18599 14.2884 4.11247 14.1575 3.98164C14.0267 3.85081 13.9532 3.67338 13.9531 3.48837V0.697673C13.9531 0.512639 14.0266 0.335183 14.1575 0.204344C14.2883 0.0735047 14.4658 0 14.6508 0C14.8358 0 15.0133 0.0735047 15.1441 0.204344C15.275 0.335183 15.3485 0.512639 15.3485 0.697673V3.48837C15.3484 3.67338 15.2749 3.85081 15.1441 3.98164C15.0132 4.11247 14.8358 4.18599 14.6508 4.18604Z" fill="#5BC4BF"/>
<path d="M19.3023 6.9764H0.697673C0.512639 6.9764 0.335183 6.9029 0.204344 6.77206C0.0735047 6.64122 0 6.46376 0 6.27873C0 6.09369 0.0735047 5.91624 0.204344 5.7854C0.335183 5.65456 0.512639 5.58105 0.697673 5.58105H19.3023C19.4873 5.58105 19.6648 5.65456 19.7956 5.7854C19.9265 5.91624 20 6.09369 20 6.27873C20 6.46376 19.9265 6.64122 19.7956 6.77206C19.6648 6.9029 19.4873 6.9764 19.3023 6.9764Z" fill="#5BC4BF"/>
<path d="M12.7914 19.8321C12.6064 19.8321 12.429 19.7586 12.2981 19.6277C12.1673 19.4969 12.0938 19.3195 12.0938 19.1345V13.7207C12.0943 13.2891 12.266 12.8753 12.5711 12.5702C12.8763 12.265 13.2901 12.0933 13.7217 12.0928H19.1359C19.3209 12.0928 19.4984 12.1663 19.6292 12.2971C19.7601 12.428 19.8336 12.6054 19.8336 12.7904C19.8336 12.9755 19.7601 13.1529 19.6292 13.2838C19.4984 13.4146 19.3209 13.4881 19.1359 13.4881H13.7217C13.6602 13.4888 13.6015 13.5136 13.558 13.557C13.5146 13.6005 13.4898 13.6592 13.4891 13.7207V19.1345C13.489 19.3195 13.4155 19.4969 13.2847 19.6277C13.1539 19.7586 12.9764 19.8321 12.7914 19.8321Z" fill="#5BC4BF"/>
</svg>
