<svg width="20" height="20" viewBox="0 0 20 20" fill="none" xmlns="http://www.w3.org/2000/svg">
<path fill-rule="evenodd" clip-rule="evenodd" d="M19.612 0.388021C19.4294 0.205571 19.1975 0.0803787 18.9448 0.0278007C18.6921 -0.0247773 18.4296 -0.00245474 18.1894 0.0920301L0.839915 6.92648C0.580536 7.02846 0.359934 7.20967 0.209506 7.44429C0.0590781 7.67892 -0.01351 7.95502 0.00207267 8.23329C0.0176554 8.51157 0.120615 8.77783 0.296297 8.9942C0.47198 9.21057 0.711433 9.36601 0.980577 9.4384L8.52567 11.4743L10.5616 19.0194C10.634 19.2886 10.7894 19.528 11.0058 19.7037C11.2222 19.8794 11.4884 19.9823 11.7667 19.9979C12.045 20.0135 12.3211 19.9409 12.5557 19.7905C12.7903 19.6401 12.9715 19.4195 13.0735 19.1601L19.908 1.81064C20.0025 1.57044 20.0248 1.30788 19.9722 1.05518C19.9196 0.80247 19.7944 0.570604 19.612 0.388021ZM11.8422 18.6481L9.81163 11.123C9.7511 10.8995 9.6331 10.6957 9.46935 10.532C9.30561 10.3682 9.10184 10.2502 8.87832 10.1897L1.3519 8.15777L18.66 1.33999L11.8422 18.6481Z" fill="#5BC4BF"/>
</svg>
