<svg width="22" height="16" viewBox="0 0 22 16" fill="none" xmlns="http://www.w3.org/2000/svg">
<path d="M0.237678 4.44767C0.389702 4.59511 0.586035 4.66845 0.782368 4.66845C0.986341 4.66845 1.19031 4.589 1.34387 4.43086L3.00854 2.71524L3.00888 15.2177C3.00888 15.6501 3.35914 16 3.79115 16C4.22316 16 4.57343 15.6501 4.57343 15.2177L4.5731 2.71524L6.23806 4.43086C6.53943 4.74102 7.03447 4.74866 7.34425 4.44767C7.65441 4.14668 7.66167 3.65164 7.36105 3.34148L4.35227 0.240642C4.35203 0.240355 4.3516 0.240307 4.35136 0.240021C4.20913 0.0929145 4.0116 0 3.79077 0C3.56994 0 3.37242 0.0929145 3.23018 0.240021C3.22994 0.240307 3.22951 0.240355 3.22927 0.240642L0.220871 3.34148C-0.0801223 3.65164 -0.0724827 4.14668 0.237678 4.44767Z" fill="black"/>
<path d="M19.4617 5.59282C19.4617 5.16043 19.1114 4.81055 18.6794 4.81055H10.1905C9.75847 4.81055 9.4082 5.16043 9.4082 5.59282C9.4082 6.02521 9.75847 6.3751 10.1905 6.3751H18.6794C19.1114 6.3751 19.4617 6.02521 19.4617 5.59282Z" fill="black"/>
<path d="M17.0209 10.4043C17.0209 9.97196 16.6706 9.62207 16.2386 9.62207H10.1905C9.75847 9.62207 9.4082 9.97196 9.4082 10.4043C9.4082 10.8367 9.75847 11.1866 10.1905 11.1866H16.2386C16.6706 11.1866 17.0209 10.8367 17.0209 10.4043Z" fill="black"/>
<path d="M10.1905 14.4355C9.75847 14.4355 9.4082 14.7854 9.4082 15.2178C9.4082 15.6502 9.75847 16.0001 10.1905 16.0001H13.7982C14.2302 16.0001 14.5805 15.6502 14.5805 15.2178C14.5805 14.7854 14.2302 14.4355 13.7982 14.4355H10.1905Z" fill="black"/>
<path d="M21.1202 0H10.1905C9.75847 0 9.4082 0.349885 9.4082 0.782277C9.4082 1.21467 9.75847 1.56455 10.1905 1.56455H21.1202C21.5522 1.56455 21.9025 1.21467 21.9025 0.782277C21.9025 0.349885 21.5522 0 21.1202 0Z" fill="black"/>
</svg>
