<svg width="22" height="22" viewBox="0 0 22 22" fill="none" xmlns="http://www.w3.org/2000/svg">
<mask id="mask0_1_812" style="mask-type:luminance" maskUnits="userSpaceOnUse" x="0" y="0" width="22" height="22">
<path d="M22 0H0V22H22V0Z" fill="white"/>
</mask>
<g mask="url(#mask0_1_812)">
<path fill-rule="evenodd" clip-rule="evenodd" d="M4.58333 1.83333C3.07083 1.83333 1.83333 3.07083 1.83333 4.58333V17.4167C1.83333 18.9292 3.07083 20.1667 4.58333 20.1667H17.4167C18.9292 20.1667 20.1667 18.9292 20.1667 17.4167V4.58333C20.1667 3.07083 18.9292 1.83333 17.4167 1.83333H4.58333ZM0 4.58333C0 2.0625 2.0625 0 4.58333 0H17.4167C19.9375 0 22 2.0625 22 4.58333V17.4167C22 19.9375 19.9375 22 17.4167 22H4.58333C2.0625 22 0 19.9375 0 17.4167V4.58333Z" fill="#1A1F25"/>
</g>
<path fill-rule="evenodd" clip-rule="evenodd" d="M16.2434 7.11273C16.6193 7.4519 16.6468 8.03856 16.2984 8.40523L10.4318 14.8219C10.2576 15.0144 10.0101 15.1152 9.75342 15.1244C9.49675 15.1336 9.24925 15.0144 9.07509 14.8311L5.68342 11.1644C5.33509 10.7886 5.36259 10.2111 5.73842 9.8719C6.11425 9.52356 6.69175 9.55106 7.03092 9.9269L9.74425 12.8602L14.9418 7.1769C15.2809 6.80106 15.8676 6.77356 16.2343 7.1219L16.2434 7.11273Z" fill="#5BC4BF"/>
</svg>
