<svg width="21" height="21" viewBox="0 0 21 21" fill="none" xmlns="http://www.w3.org/2000/svg">
<path d="M11.8185 21H2.51072C1.12648 21 0 19.8736 0 18.4989V6.32713C0 4.94289 1.12648 3.81641 2.51072 3.81641H11.8185C13.1932 3.81641 14.3197 4.94289 14.3197 6.32713V18.4989C14.3197 19.8736 13.1932 21 11.8185 21ZM2.51072 5.7257C2.17659 5.7257 1.90929 5.993 1.90929 6.32713V18.4989C1.90929 18.8235 2.17659 19.0908 2.51072 19.0908H11.8185C12.1431 19.0908 12.42 18.8235 12.42 18.4893V6.32713C12.4104 5.993 12.1431 5.7257 11.8185 5.7257H2.51072Z" fill="#1A1F25"/>
<path d="M18.4912 17.1836H16.2287C15.7036 17.1836 15.274 16.7541 15.274 16.229C15.274 15.7039 15.7036 15.2743 16.2287 15.2743H18.4912C18.8253 15.2743 19.0926 15.007 19.0926 14.6729V2.51072C19.0926 2.17659 18.8253 1.90929 18.4912 1.90929H9.19295C8.95429 1.90929 8.73472 2.05249 8.63926 2.28161C8.43878 2.76848 7.87554 2.99759 7.38867 2.78757C6.9018 2.57755 6.67268 2.02385 6.88271 1.53698C7.27411 0.601427 8.18103 0 9.19295 0H18.4912C19.8754 0 21.0019 1.12648 21.0019 2.51072V14.6729C21.0019 16.0572 19.8754 17.1836 18.4912 17.1836Z" fill="#5BC4BF"/>
</svg>
