<svg width="25" height="25" viewBox="0 0 25 25" fill="none" xmlns="http://www.w3.org/2000/svg">
<path d="M12.5 25C19.4036 25 25 19.4036 25 12.5C25 5.59644 19.4036 0 12.5 0C5.59644 0 0 5.59644 0 12.5C0 19.4036 5.59644 25 12.5 25Z" fill="white"/>
<path fill-rule="evenodd" clip-rule="evenodd" d="M6.18099 17.0246L17.0234 6.18221C17.2831 5.92266 17.7066 5.92266 17.9661 6.18221L18.8168 7.0329C19.0764 7.29245 19.0764 7.71597 18.8168 7.97562L7.97439 18.818C7.71475 19.0776 7.29122 19.0776 7.03168 18.818L6.18099 17.9673C5.92144 17.7078 5.92144 17.2843 6.18099 17.0246Z" fill="#5BC4BF"/>
<path fill-rule="evenodd" clip-rule="evenodd" d="M17.0234 18.818L6.18099 7.97562C5.92144 7.71597 5.92144 7.29245 6.18099 7.0329L7.03168 6.18221C7.29122 5.92266 7.71475 5.92266 7.97439 6.18221L18.8168 17.0246C19.0764 17.2843 19.0764 17.7078 18.8168 17.9673L17.9661 18.818C17.7066 19.0776 17.2831 19.0776 17.0234 18.818Z" fill="#5BC4BF"/>
</svg>
