<svg width="23" height="22" viewBox="0 0 23 22" fill="none" xmlns="http://www.w3.org/2000/svg">
<path d="M5.47342 5.12786H5.79383C6.28078 5.12786 6.6755 4.733 6.6755 4.24619V1.81317V0.903104C6.6755 0.416297 6.28078 0.0214844 5.79383 0.0214844H5.47342C4.98652 0.0214844 4.5918 0.416297 4.5918 0.903104V1.81322V4.24619C4.5918 4.733 4.98652 5.12786 5.47342 5.12786Z" fill="#1A1F25"/>
<path d="M16.7811 5.10638H17.1015C17.5884 5.10638 17.9832 4.71156 17.9832 4.22471V1.58262V0.881574C17.9832 0.394812 17.5884 0 17.1015 0H16.7811C16.2941 0 15.8994 0.394812 15.8994 0.881574V1.58262V4.22466C15.8995 4.71156 16.2942 5.10638 16.7811 5.10638Z" fill="#1A1F25"/>
<path d="M20.9629 1.81445H18.7001V4.4565C18.7001 5.33784 17.9832 5.82395 17.1019 5.82395H16.7815C15.9001 5.82395 15.1832 5.10693 15.1832 4.22558V1.81445H7.39161V4.24743C7.39161 5.12877 6.67463 5.8458 5.79329 5.8458H5.47288C4.59158 5.8458 3.8746 5.12877 3.8746 4.24743V1.81445H1.43331C0.642996 1.81445 0 2.45745 0 3.24781V20.5676C0 21.3579 0.642996 22.0009 1.43331 22.0009H20.9629C21.7532 22.0009 22.3962 21.3579 22.3962 20.5676V3.24781C22.3962 2.4575 21.7532 1.81445 20.9629 1.81445ZM20.9629 20.5676H1.43336L1.43331 7.48813H20.9632L20.9639 20.5675C20.9638 20.5675 20.9635 20.5676 20.9629 20.5676Z" fill="#1A1F25"/>
<path d="M11.9386 11.8753H14.5122C14.6143 11.8753 14.697 11.7926 14.697 11.6906V9.46207C14.697 9.36006 14.6143 9.27734 14.5122 9.27734H11.9386C11.8366 9.27734 11.7539 9.36006 11.7539 9.46207V11.6906C11.7539 11.7926 11.8366 11.8753 11.9386 11.8753Z" fill="#5BC4BF"/>
<path d="M16.1379 11.8753H18.7115C18.8135 11.8753 18.8962 11.7926 18.8962 11.6906V9.46207C18.8962 9.36006 18.8135 9.27734 18.7115 9.27734H16.1379C16.0358 9.27734 15.9531 9.36006 15.9531 9.46207V11.6906C15.9531 11.7926 16.0358 11.8753 16.1379 11.8753Z" fill="#5BC4BF"/>
<path d="M3.53824 15.5238H6.1118C6.21382 15.5238 6.29653 15.4411 6.29653 15.3391V13.1105C6.29653 13.0085 6.21382 12.9258 6.1118 12.9258H3.53824C3.43623 12.9258 3.35352 13.0085 3.35352 13.1105V15.3391C3.35352 15.4411 3.43623 15.5238 3.53824 15.5238Z" fill="#5BC4BF"/>
<path d="M7.73746 15.5238H10.311C10.413 15.5238 10.4957 15.4411 10.4957 15.3391V13.1105C10.4957 13.0085 10.413 12.9258 10.311 12.9258H7.73746C7.63545 12.9258 7.55273 13.0085 7.55273 13.1105V15.3391C7.55273 15.4411 7.63545 15.5238 7.73746 15.5238Z" fill="#5BC4BF"/>
<path d="M11.9386 15.5238H14.5122C14.6142 15.5238 14.6969 15.4411 14.6969 15.3391V13.1105C14.6969 13.0085 14.6142 12.9258 14.5122 12.9258H11.9386C11.8366 12.9258 11.7539 13.0085 11.7539 13.1105V15.3391C11.7539 15.4411 11.8366 15.5238 11.9386 15.5238Z" fill="#5BC4BF"/>
<path d="M16.1379 15.5238H18.7115C18.8135 15.5238 18.8962 15.4411 18.8962 15.3391V13.1105C18.8962 13.0085 18.8135 12.9258 18.7115 12.9258H16.1379C16.0358 12.9258 15.9531 13.0085 15.9531 13.1105V15.3391C15.9531 15.4411 16.0358 15.5238 16.1379 15.5238Z" fill="#5BC4BF"/>
<path d="M6.11175 16.5723H3.53824C3.43623 16.5723 3.35352 16.655 3.35352 16.757V18.9856C3.35352 19.0876 3.43623 19.1703 3.53824 19.1703H6.1118C6.21382 19.1703 6.29653 19.0876 6.29653 18.9856V16.757C6.29648 16.655 6.21377 16.5723 6.11175 16.5723Z" fill="#5BC4BF"/>
<path d="M10.311 16.5723H7.73746C7.63545 16.5723 7.55273 16.655 7.55273 16.757V18.9856C7.55273 19.0876 7.63545 19.1703 7.73746 19.1703H10.311C10.413 19.1703 10.4957 19.0876 10.4957 18.9856V16.757C10.4957 16.655 10.413 16.5723 10.311 16.5723Z" fill="#5BC4BF"/>
<path d="M14.5122 16.5723H11.9386C11.8366 16.5723 11.7539 16.655 11.7539 16.757V18.9856C11.7539 19.0876 11.8366 19.1703 11.9386 19.1703H14.5122C14.6143 19.1703 14.697 19.0876 14.697 18.9856V16.757C14.697 16.655 14.6143 16.5723 14.5122 16.5723Z" fill="#5BC4BF"/>
<path d="M18.7115 16.5723H16.1379C16.0358 16.5723 15.9531 16.655 15.9531 16.757V18.9856C15.9531 19.0876 16.0358 19.1703 16.1379 19.1703H18.7115C18.8135 19.1703 18.8962 19.0876 18.8962 18.9856V16.757C18.8962 16.655 18.8135 16.5723 18.7115 16.5723Z" fill="#5BC4BF"/>
</svg>
