<svg width="22" height="21" viewBox="0 0 22 21" fill="none" xmlns="http://www.w3.org/2000/svg">
<path fill-rule="evenodd" clip-rule="evenodd" d="M0 10.1599V17.7083C0 18.8982 0.964366 19.8625 2.15421 19.8625H7.93694C8.33587 19.8625 8.65848 19.5399 8.65848 19.141C8.65848 18.7421 8.33587 18.4195 7.93694 18.4195H2.15421C1.76222 18.4195 1.44308 18.1003 1.44308 17.7083V10.1599C1.44308 9.76099 1.12047 9.43838 0.72154 9.43838C0.322612 9.43838 0 9.76099 0 10.1599ZM3.965 15.2176H6.13309C6.53202 15.2176 6.85463 14.895 6.85463 14.4961C6.85463 14.0972 6.53202 13.7746 6.13309 13.7746H3.965C3.56607 13.7746 3.24346 14.0972 3.24346 14.4961C3.24346 14.895 3.56607 15.2176 3.965 15.2176ZM3.965 13.0495H6.13309C6.53202 13.0495 6.85463 12.7269 6.85463 12.328C6.85463 11.9291 6.53202 11.6065 6.13309 11.6065H3.965C3.56607 11.6065 3.24346 11.9291 3.24346 12.328C3.24346 12.7269 3.56607 13.0495 3.965 13.0495ZM3.965 10.8815H6.13309C6.53202 10.8815 6.85463 10.5588 6.85463 10.1599C6.85463 9.76099 6.53202 9.43838 6.13309 9.43838H3.965C3.56607 9.43838 3.24346 9.76099 3.24346 10.1599C3.24346 10.5588 3.56607 10.8815 3.965 10.8815ZM10.1189 2.2091H5.78273V0.762555C5.78273 0.363627 5.46011 0.0410156 5.06119 0.0410156C4.66226 0.0410156 4.33965 0.363627 4.33965 0.762555V2.2091H2.15768C0.964366 2.2091 0 3.17347 0 4.36332V7.26682C0 7.66575 0.322612 7.99183 0.72154 7.99183C1.12047 7.99183 1.44308 7.66922 1.44308 7.27029V6.54875H20.2343V8.01611C20.2343 8.41504 20.5569 8.73765 20.9559 8.73765C21.3548 8.73765 21.6774 8.41504 21.6774 8.01611V4.36679C21.6774 3.79441 21.4519 3.24632 21.0461 2.84392C20.6402 2.43805 20.0956 2.21257 19.5232 2.21257H17.3412V0.762555C17.3412 0.363627 17.0186 0.0410156 16.6197 0.0410156C16.2208 0.0410156 15.8982 0.363627 15.8982 0.762555V2.2091H11.562V0.762555C11.562 0.363627 11.2394 0.0410156 10.8404 0.0410156C10.4415 0.0410156 10.1189 0.363627 10.1189 0.762555V2.2091Z" fill="#212121"/>
<path d="M15.3119 20.9988C18.9041 20.9988 21.8161 18.0867 21.8161 14.4945C21.8161 10.9023 18.9041 7.99023 15.3119 7.99023C11.7197 7.99023 8.80762 10.9023 8.80762 14.4945C8.80762 18.0867 11.7197 20.9988 15.3119 20.9988Z" fill="#5BC4BF"/>
<path fill-rule="evenodd" clip-rule="evenodd" d="M13.4355 12.4657V15.3657C13.4355 15.6398 13.5916 15.8895 13.8345 16.0109L16.1448 17.1661C16.5021 17.343 16.9357 17.2008 17.1161 16.8435C17.293 16.4862 17.1508 16.0526 16.7935 15.8722L14.8821 14.9182V12.4657C14.8821 12.0668 14.5595 11.7441 14.1606 11.7441C13.7616 11.7441 13.439 12.0668 13.439 12.4657H13.4355Z" fill="white"/>
</svg>
