<svg width="20" height="18" viewBox="0 0 20 18" fill="none" xmlns="http://www.w3.org/2000/svg">
<path d="M18.6847 11.3296C18.4975 11.3296 18.318 11.404 18.1856 11.5363C18.0532 11.6687 17.9788 11.8483 17.9788 12.0355V14.4461C17.9788 15.0142 17.7531 15.5592 17.3513 15.9609C16.9496 16.3627 16.4047 16.5884 15.8365 16.5884H3.55412C2.98593 16.5884 2.44101 16.3627 2.03925 15.9609C1.63748 15.5592 1.41176 15.0142 1.41176 14.4461V12.0355C1.41176 11.8483 1.3374 11.6687 1.20502 11.5363C1.07264 11.404 0.893094 11.3296 0.705882 11.3296C0.518671 11.3296 0.339127 11.404 0.206748 11.5363C0.0743695 11.6687 0 11.8483 0 12.0355V14.4461C0.000934382 15.3884 0.375685 16.2918 1.04201 16.9582C1.70833 17.6245 2.61179 17.9992 3.55412 18.0002H15.8365C16.7788 17.9992 17.6823 17.6245 18.3486 16.9582C19.0149 16.2918 19.3897 15.3884 19.3906 14.4461V12.0355C19.3906 11.8483 19.3162 11.6687 19.1838 11.5363C19.0515 11.404 18.8719 11.3296 18.6847 11.3296Z" fill="#1A1F25"/>
<path d="M9.19437 13.3906C9.25999 13.4567 9.33806 13.5093 9.42408 13.5451C9.5101 13.5809 9.60236 13.5994 9.69555 13.5994C9.78873 13.5994 9.881 13.5809 9.96701 13.5451C10.053 13.5093 10.1311 13.4567 10.1967 13.3906L14.2132 9.37412C14.3253 9.23927 14.3831 9.06754 14.3755 8.89237C14.3679 8.7172 14.2954 8.55112 14.1721 8.42649C14.0488 8.30184 13.8835 8.22756 13.7084 8.2181C13.5333 8.20864 13.361 8.26467 13.225 8.37529L10.4014 11.1988V0.705882C10.4014 0.518671 10.3271 0.339127 10.1947 0.206748C10.0623 0.0743695 9.88276 0 9.69555 0C9.50834 0 9.32879 0.0743695 9.19641 0.206748C9.06404 0.339127 8.98967 0.518671 8.98967 0.705882V11.1882L6.16614 8.36471C6.03368 8.23225 5.85404 8.15784 5.66672 8.15784C5.47941 8.15784 5.29976 8.23225 5.16731 8.36471C5.03486 8.49716 4.96045 8.6768 4.96045 8.86412C4.96045 9.05143 5.03486 9.23108 5.16731 9.36353L9.19437 13.3906Z" fill="#1A1F25"/>
</svg>
