<svg width="66" height="65" viewBox="0 0 66 65" fill="none" xmlns="http://www.w3.org/2000/svg">
<path d="M25.4808 6.99291H30.6004C31.0244 6.99291 31.3683 6.64893 31.3683 6.22497C31.3683 5.80101 31.0244 5.45703 30.6004 5.45703H25.4808C25.0569 5.45703 24.7129 5.80101 24.7129 6.22497C24.7129 6.64893 25.0569 6.99291 25.4808 6.99291Z" fill="#1A1F25"/>
<path d="M17.2894 6.99291H22.409C22.833 6.99291 23.1769 6.64893 23.1769 6.22497C23.1769 5.80101 22.833 5.45703 22.409 5.45703H17.2894C16.8655 5.45703 16.5215 5.80101 16.5215 6.22497C16.5215 6.64893 16.8655 6.99291 17.2894 6.99291Z" fill="#1A1F25"/>
<path d="M33.6722 6.99291H38.7918C39.2158 6.99291 39.5598 6.64893 39.5598 6.22497C39.5598 5.80101 39.2158 5.45703 38.7918 5.45703H33.6722C33.2483 5.45703 32.9043 5.80101 32.9043 6.22497C32.9043 6.64893 33.2483 6.99291 33.6722 6.99291Z" fill="#1A1F25"/>
<path d="M6.59251 30.5961C6.59251 30.1721 6.24854 29.8281 5.82458 29.8281C5.40062 29.8281 5.05664 30.1721 5.05664 30.5961V35.7156C5.05664 36.1396 5.40062 36.4836 5.82458 36.4836C6.24854 36.4836 6.59251 36.1396 6.59251 35.7156V30.5961Z" fill="#1A1F25"/>
<path d="M54.6433 14.4164C54.6433 13.9924 54.2993 13.6484 53.8754 13.6484C53.4514 13.6484 53.1074 13.9924 53.1074 14.4164V19.536C53.1074 19.9599 53.4514 20.3039 53.8754 20.3039C54.2993 20.3039 54.6433 19.9599 54.6433 19.536V14.4164Z" fill="#1A1F25"/>
<path d="M54.6433 30.7992C54.6433 30.3752 54.2993 30.0312 53.8754 30.0312C53.4514 30.0312 53.1074 30.3752 53.1074 30.7992V35.9188C53.1074 36.3427 53.4514 36.6867 53.8754 36.6867C54.2993 36.6867 54.6433 36.3427 54.6433 35.9188V30.7992Z" fill="#1A1F25"/>
<path d="M53.8754 38.2227C53.4514 38.2227 53.1074 38.5666 53.1074 38.9906V44.1102C53.1074 44.5341 53.4514 44.8781 53.8754 44.8781C54.2993 44.8781 54.6433 44.5341 54.6433 44.1102V38.9906C54.6433 38.5666 54.2993 38.2227 53.8754 38.2227Z" fill="#1A1F25"/>
<path d="M54.6433 22.6078C54.6433 22.1838 54.2993 21.8398 53.8754 21.8398C53.4514 21.8398 53.1074 22.1838 53.1074 22.6078V27.7274C53.1074 28.1513 53.4514 28.4953 53.8754 28.4953C54.2993 28.4953 54.6433 28.1513 54.6433 27.7274V22.6078Z" fill="#1A1F25"/>
<path d="M41.8636 6.99318H46.9832C47.1572 6.99318 47.3099 6.92482 47.4387 6.8272V9.79995C47.4387 11.0369 48.4446 12.0428 49.681 12.0428H53.5625C53.6587 12.086 53.7635 12.1128 53.8756 12.1128C53.9878 12.1128 54.0926 12.086 54.1888 12.0428H57.1454C58.3818 12.0428 59.3877 11.0369 59.3877 9.79995V2.33556C59.3877 1.09967 58.3818 0.09375 57.1454 0.09375H49.681C48.4446 0.09375 47.4387 1.09967 47.4387 2.33556V5.6233C47.3099 5.52568 47.1572 5.45731 46.9832 5.45731H41.8636C41.4397 5.45731 41.0957 5.80128 41.0957 6.22525C41.0957 6.64921 41.4397 6.99318 41.8636 6.99318Z" fill="#1A1F25"/>
<path d="M5.82458 38.0195C5.40062 38.0195 5.05664 38.3635 5.05664 38.7875V43.907C5.05664 44.331 5.40062 44.675 5.82458 44.675C6.24854 44.675 6.59251 44.331 6.59251 43.907V38.7875C6.59251 38.3635 6.24855 38.0195 5.82458 38.0195Z" fill="#1A1F25"/>
<path d="M36.4051 53.5176H31.2855C30.8616 53.5176 30.5176 53.8616 30.5176 54.2855C30.5176 54.7095 30.8616 55.0535 31.2855 55.0535H36.4051C36.8291 55.0535 37.173 54.7095 37.173 54.2855C37.173 53.8616 36.8291 53.5176 36.4051 53.5176Z" fill="#1A1F25"/>
<path d="M20.0223 53.5176H14.9027C14.4787 53.5176 14.1348 53.8616 14.1348 54.2855C14.1348 54.7095 14.4787 55.0535 14.9027 55.0535H20.0223C20.4462 55.0535 20.7902 54.7095 20.7902 54.2855C20.7902 53.8616 20.4462 53.5176 20.0223 53.5176Z" fill="#1A1F25"/>
<path d="M28.2137 53.5176H23.0941C22.6701 53.5176 22.3262 53.8616 22.3262 54.2855C22.3262 54.7095 22.6701 55.0535 23.0941 55.0535H28.2137C28.6377 55.0535 28.9816 54.7095 28.9816 54.2855C28.9816 53.8616 28.6377 53.5176 28.2137 53.5176Z" fill="#1A1F25"/>
<path d="M6.59251 22.4047C6.59251 21.9807 6.24854 21.6367 5.82458 21.6367C5.40062 21.6367 5.05664 21.9807 5.05664 22.4047V27.5242C5.05664 27.9482 5.40062 28.2922 5.82458 28.2922C6.24854 28.2922 6.59251 27.9482 6.59251 27.5242V22.4047Z" fill="#1A1F25"/>
<path d="M44.5965 53.5176H39.4769C39.053 53.5176 38.709 53.8616 38.709 54.2855C38.709 54.7095 39.053 55.0535 39.4769 55.0535H44.5965C45.0205 55.0535 45.3644 54.7095 45.3644 54.2855C45.3644 53.8616 45.0205 53.5176 44.5965 53.5176Z" fill="#1A1F25"/>
<path d="M6.59251 14.2133C6.59251 13.7893 6.24854 13.4453 5.82458 13.4453C5.40062 13.4453 5.05664 13.7893 5.05664 14.2133V19.3328C5.05664 19.7568 5.40062 20.1008 5.82458 20.1008C6.24854 20.1008 6.59251 19.7568 6.59251 19.3328V14.2133Z" fill="#1A1F25"/>
<path d="M11.949 53.5403V50.5506C11.949 49.3147 10.9431 48.3088 9.7067 48.3088H6.59246V46.9789C6.59246 46.5549 6.24849 46.2109 5.82453 46.2109C5.40056 46.2109 5.05659 46.5549 5.05659 46.9789V48.3088H2.24231C1.00592 48.3088 0 49.3147 0 50.5506V58.016C0 59.2519 1.00592 60.2578 2.24231 60.2578H9.7067C10.9431 60.2578 11.949 59.2519 11.949 58.016V55.0282C12.3144 54.9692 12.5985 54.6662 12.5985 54.2843C12.5985 53.9023 12.3144 53.5993 11.949 53.5403Z" fill="#1A1F25"/>
<path d="M2.24332 11.947H9.7042C10.9411 11.947 11.9475 10.9411 11.9475 9.70422V6.99243H14.2168C14.6408 6.99243 14.9848 6.64846 14.9848 6.2245C14.9848 5.80054 14.6408 5.45656 14.2168 5.45656H11.9475V2.24382C11.9475 1.00692 10.9411 0 9.7042 0H2.24332C1.00642 0 0 1.00692 0 2.24382V9.7042C1.02392e-05 10.9411 1.00643 11.947 2.24332 11.947Z" fill="#1A1F25"/>
<path d="M63.9154 51.653L54.6432 48.2947V47.1814C54.6432 46.7574 54.2992 46.4135 53.8752 46.4135C53.4513 46.4135 53.1073 46.7574 53.1073 47.1814V47.7384L48.9936 46.2485C48.2652 45.9865 47.4728 46.1615 46.9248 46.7095C46.3778 47.2564 46.2014 48.0493 46.4653 48.7773L48.1819 53.5169H47.6677C47.2438 53.5169 46.8998 53.8609 46.8998 54.2848C46.8998 54.7088 47.2438 55.0528 47.6677 55.0528H48.7382L51.8694 63.6981C52.4838 65.3993 54.8839 65.4485 55.5596 63.7581L57.5834 58.6865C57.8224 58.0875 58.3038 57.6056 58.9033 57.3656L63.9744 55.3427C64.7428 55.0368 65.2303 54.3038 65.2168 53.4769C65.2033 52.65 64.6923 51.934 63.9154 51.653Z" fill="#5BC4BF"/>
<path d="M29.8255 14.5762C21.1792 14.5762 14.1699 21.5853 14.1699 30.2318C14.1699 38.8782 21.1792 45.8874 29.8255 45.8874C38.4719 45.8874 45.4812 38.8782 45.4812 30.2318C45.4812 21.5853 38.4719 14.5762 29.8255 14.5762ZM34.3315 30.9993H30.5933V34.738C30.5933 35.162 30.2494 35.506 29.8254 35.506C29.4014 35.506 29.0575 35.162 29.0575 34.738V30.9993H25.3198C24.8958 30.9993 24.5518 30.6554 24.5518 30.2314C24.5518 29.8074 24.8958 29.4635 25.3198 29.4635H29.0575V25.7258C29.0575 25.3018 29.4014 24.9578 29.8254 24.9578C30.2494 24.9578 30.5933 25.3018 30.5933 25.7258V29.4635H34.3315C34.7555 29.4635 35.0995 29.8074 35.0995 30.2314C35.0995 30.6554 34.7555 30.9993 34.3315 30.9993Z" fill="#5BC4BF"/>
</svg>
