<svg width="22" height="22" viewBox="0 0 22 22" fill="none" xmlns="http://www.w3.org/2000/svg">
<path d="M11 22C4.92508 22 0 17.0749 0 11C0 4.92508 4.92508 0 11 0C17.0749 0 22 4.92508 22 11C21.9936 17.0723 17.0723 21.9936 11 22ZM11 1.83348C5.93742 1.83348 1.83348 5.93742 1.83348 11C1.83348 16.0626 5.93742 20.1665 11 20.1665C16.0626 20.1665 20.1665 16.0626 20.1665 11C20.1609 5.93957 16.06 1.83906 11 1.83348Z" fill="#1A1F25"/>
<path d="M12.3001 13.4702L16.6193 9.14883L15.323 7.85547L11.0037 12.1738L6.7202 7.89027L5.42383 9.18664L9.70738 13.4702C10.4232 14.1861 11.5838 14.1861 12.2997 13.4702H12.3001Z" fill="#5BC4BF"/>
</svg>
