<svg width="26" height="25" viewBox="0 0 26 25" fill="none" xmlns="http://www.w3.org/2000/svg">
<path d="M1.65814 9.12537C1.7909 9.58055 1.97514 10.0195 2.20815 10.4313L1.54434 11.2685C1.32759 11.5422 1.35198 11.9323 1.59582 12.1789L2.7392 13.3223C2.98576 13.5688 3.37592 13.5905 3.64957 13.3737L4.48136 12.7153C4.90945 12.9619 5.36463 13.1543 5.83878 13.2897L5.96342 14.36C6.00406 14.7068 6.29668 14.9669 6.64348 14.9669H8.26101C8.60781 14.9669 8.90043 14.7067 8.94107 14.36L9.06029 13.3277C9.56966 13.1949 10.0574 12.9971 10.5152 12.7397L11.3199 13.3764C11.5936 13.5932 11.9838 13.5688 12.2303 13.325L13.3737 12.1816C13.6202 11.935 13.6419 11.5449 13.4252 11.2712L12.7993 10.4773C13.0594 10.0276 13.2626 9.54801 13.3981 9.04677L14.3626 8.93568C14.7095 8.89504 14.9695 8.60242 14.9695 8.25562V6.63809C14.9695 6.29128 14.7094 5.99867 14.3626 5.95802L13.4116 5.84694C13.2815 5.35111 13.0865 4.87696 12.8373 4.43262L13.4225 3.69295C13.6392 3.41929 13.6149 3.02914 13.371 2.78258L12.2303 1.64191C11.9838 1.39535 11.5936 1.37368 11.32 1.59043L10.602 2.15941C10.136 1.88576 9.6374 1.67713 9.1145 1.53624L9.00613 0.606911C8.96549 0.260105 8.67287 0 8.32606 0H6.70853C6.36173 0 6.06911 0.260105 6.02847 0.606911L5.92009 1.53624C5.38363 1.67984 4.87155 1.8966 4.39469 2.18109L3.64959 1.59043C3.37594 1.37368 2.98579 1.39806 2.73923 1.64191L1.59585 2.78529C1.34929 3.03185 1.32762 3.422 1.54437 3.69566L2.16754 4.4841C1.91827 4.93386 1.72861 5.41343 1.60398 5.91196L0.606911 6.02576C0.260105 6.0664 0 6.35902 0 6.70583V8.32335C0 8.67016 0.260105 8.96278 0.606911 9.00342L1.65814 9.12537ZM7.51863 4.74965C8.99255 4.74965 10.1928 5.94992 10.1928 7.42385C10.1928 8.89778 8.99255 10.0981 7.51863 10.0981C6.04473 10.0981 4.84442 8.89778 4.84442 7.42385C4.84442 5.94992 6.0447 4.74965 7.51863 4.74965Z" fill="#858585"/>
<path d="M23.51 9.52335L22.6565 8.80265C22.3937 8.58047 22.0062 8.59131 21.757 8.82703L21.2855 9.26867C20.8873 9.0763 20.4646 8.94083 20.0284 8.86225L19.8957 8.21199C19.8279 7.87602 19.5163 7.64301 19.1749 7.67011L18.0613 7.76494C17.7199 7.79474 17.4517 8.07381 17.4409 8.41791L17.4192 9.07901C16.9911 9.23345 16.5874 9.44478 16.2189 9.7103L15.6554 9.3364C15.3681 9.14674 14.9861 9.20093 14.764 9.46375L14.0433 10.3226C13.8211 10.5854 13.8319 10.9729 14.0676 11.2222L14.5608 11.7478C14.39 12.1325 14.2681 12.5362 14.1977 12.9507L13.4932 13.0943C13.1573 13.1621 12.9243 13.4737 12.9514 13.8151L13.0462 14.9287C13.076 15.27 13.3551 15.5383 13.6992 15.5491L14.4605 15.5735C14.5987 15.9365 14.7802 16.2807 14.9997 16.6031L14.5743 17.2452C14.3847 17.5324 14.4389 17.9144 14.7016 18.1366L15.5551 18.8573C15.818 19.0795 16.2054 19.0686 16.4547 18.8329L17.0128 18.31C17.3786 18.4807 17.7633 18.608 18.1589 18.6839L18.3133 19.4479C18.3811 19.7839 18.6927 20.0169 19.034 19.9898L20.1476 19.895C20.489 19.8652 20.7572 19.5862 20.7681 19.242L20.7925 18.4942C21.1989 18.3506 21.5836 18.1555 21.9385 17.9144L22.5536 18.3208C22.8408 18.5105 23.2228 18.4563 23.445 18.1935L24.1657 17.34C24.3878 17.0772 24.377 16.6898 24.1413 16.4405L23.6455 15.9149C23.827 15.5301 23.9598 15.1237 24.0356 14.7065L24.713 14.5683C25.0489 14.5005 25.2819 14.189 25.2549 13.8475L25.16 12.734C25.1302 12.3926 24.8512 12.1243 24.5071 12.1135L23.827 12.0918C23.6861 11.6963 23.4964 11.3224 23.2607 10.9756L23.6319 10.4174C23.827 10.1303 23.7728 9.74553 23.51 9.52335ZM19.3131 15.9609C18.1101 16.0639 17.048 15.1671 16.9478 13.9641C16.8448 12.7611 17.7416 11.699 18.9446 11.5987C20.1476 11.4958 21.2097 12.3926 21.3099 13.5956C21.4129 14.7986 20.516 15.8607 19.3131 15.9609Z" fill="#858585"/>
<path d="M5.55458 18.9575C5.21319 18.9927 4.95038 19.2799 4.94767 19.624L4.93954 20.3095C4.93412 20.6536 5.18881 20.9462 5.53019 20.9896L6.03415 21.0546C6.11814 21.3608 6.23735 21.6534 6.39179 21.9298L6.06666 22.3308C5.8499 22.599 5.86616 22.9837 6.1073 23.2303L6.58687 23.7207C6.82801 23.9673 7.21274 23.9944 7.4864 23.783L7.89007 23.4714C8.17456 23.6394 8.47534 23.7722 8.7896 23.8643L8.84379 24.3845C8.87901 24.7259 9.16621 24.9887 9.51031 24.9914L10.1958 24.9996C10.5399 25.005 10.8325 24.7503 10.8759 24.4089L10.9382 23.9158C11.2796 23.8318 11.6047 23.7044 11.9136 23.5365L12.2929 23.8426C12.5611 24.0594 12.9459 24.0431 13.1925 23.802L13.6829 23.3224C13.9294 23.0813 13.9565 22.6965 13.7452 22.4229L13.4553 22.0463C13.6341 21.7482 13.7723 21.4312 13.8671 21.098L14.3169 21.0519C14.6583 21.0167 14.9211 20.7295 14.9238 20.3854L14.9319 19.6999C14.9373 19.3558 14.6827 19.0631 14.3413 19.0198L13.9023 18.9629C13.8183 18.6324 13.6937 18.3126 13.5311 18.0146L13.8048 17.6786C14.0216 17.4104 14.0053 17.0257 13.7642 16.7791L13.2846 16.2887C13.0435 16.0421 12.6587 16.015 12.3851 16.2264L12.0572 16.4784C11.7483 16.2914 11.4178 16.1478 11.071 16.0503L11.0276 15.6249C10.9924 15.2835 10.7052 15.0207 10.3611 15.018L9.67561 15.0099C9.33151 15.0044 9.0389 15.2591 8.99552 15.6005L8.94133 16.0232C8.58371 16.1153 8.23962 16.2562 7.9199 16.4404L7.58123 16.1641C7.31299 15.9473 6.92823 15.9636 6.68167 16.2047L6.18856 16.687C5.942 16.9281 5.9149 17.3129 6.12624 17.5865L6.41615 17.9604C6.24816 18.2585 6.1154 18.5755 6.0287 18.9087L5.55458 18.9575ZM9.97907 18.1826C10.9626 18.1934 11.751 19.0036 11.7402 19.9871C11.7294 20.9706 10.9192 21.759 9.93569 21.7482C8.95217 21.7374 8.16375 20.9273 8.17456 19.9437C8.18543 18.9602 8.99555 18.1718 9.97907 18.1826Z" fill="#858585"/>
</svg>
