<svg width="22" height="20" viewBox="0 0 22 20" fill="none" xmlns="http://www.w3.org/2000/svg">
<path d="M20.092 1.67622L5.50463 0.0198801C4.93854 -0.0604054 4.36478 0.104768 3.92858 0.473979C3.49186 0.812507 3.21214 1.31416 3.15385 1.86338L2.88691 4.0541H2.05849C0.882842 4.0541 0.000724504 5.09627 0.000724504 6.27141V17.1984C-0.0289351 18.3193 0.855739 19.2521 1.97667 19.2817C2.00377 19.2823 2.03087 19.2828 2.05746 19.2823H16.7246C17.9003 19.2823 18.9691 18.3741 18.9691 17.1984V16.7709C19.3337 16.7003 19.6794 16.5551 19.9841 16.3434C20.4168 15.9788 20.6944 15.4628 20.7589 14.9008L21.9877 4.0541C22.113 2.87589 21.2677 1.81582 20.091 1.67622H20.092ZM17.9013 17.1984C17.9013 17.786 17.3138 18.2135 16.7257 18.2135H2.05798C1.52717 18.2288 1.08381 17.8115 1.06847 17.2802C1.06745 17.2526 1.06847 17.2255 1.06949 17.1979V15.2209L5.21059 12.1752C5.70815 11.7932 6.40873 11.8275 6.86692 12.2555L9.77919 14.82C10.2215 15.1913 10.7779 15.3989 11.3552 15.4076C11.8068 15.4132 12.2507 15.293 12.6378 15.0604L17.9008 12.0146V17.1979L17.9013 17.1984ZM17.9013 10.7597L12.0773 14.1527C11.5772 14.4488 10.9441 14.3951 10.5012 14.0192L7.56239 11.4276C6.72016 10.704 5.48928 10.6595 4.59694 11.3207L1.07052 13.8852V6.27141C1.07052 5.68384 1.47143 5.12287 2.059 5.12287H16.7262C17.3541 5.14894 17.8614 5.64446 17.9018 6.27141V10.7597H17.9013ZM20.921 3.90989C20.921 3.91347 20.9205 3.91705 20.9199 3.92063L19.6645 14.7673C19.6666 15.0486 19.5382 15.315 19.3173 15.4889C19.2104 15.5958 18.9701 15.6495 18.9701 15.7026V6.27141C18.9276 5.05434 17.9433 4.08171 16.7257 4.0541H3.95517L4.19551 1.97025C4.24767 1.70025 4.38881 1.45581 4.59643 1.27581C4.83064 1.11371 5.11394 1.03802 5.39775 1.06206L19.9581 2.74498C20.5456 2.80072 20.9767 3.32232 20.921 3.90989Z" fill="#1A1F25"/>
<path d="M11.0198 7.41797C9.78024 7.41797 8.77539 8.42282 8.77539 9.66238C8.77539 10.9019 9.78024 11.9068 11.0198 11.9068C12.2594 11.9068 13.2642 10.9019 13.2642 9.66238C13.2642 8.42282 12.2594 7.41797 11.0198 7.41797ZM11.0198 10.8375C10.3704 10.8375 9.84416 10.3113 9.84416 9.66187C9.84416 9.01243 10.3704 8.48623 11.0198 8.48623C11.6692 8.48623 12.1954 9.01243 12.1954 9.66187C12.1954 10.3113 11.6692 10.8375 11.0198 10.8375Z" fill="#5BC4BF"/>
</svg>
