<svg width="25" height="25" viewBox="0 0 25 25" fill="none" xmlns="http://www.w3.org/2000/svg">
<path d="M23.0671 11.2718L19.1338 15.2037C17.8881 16.4508 16.228 17.139 14.4651 17.139C12.7021 17.139 11.0421 16.4522 9.79632 15.2037C9.38895 14.7963 9.38895 14.1359 9.79632 13.7285C10.2037 13.3198 10.8641 13.3226 11.2715 13.7285C12.9802 15.4373 15.9555 15.4373 17.6615 13.7285L21.5947 9.79666C23.3563 8.03511 23.3563 5.16823 21.5947 3.40528C19.8304 1.64234 16.9649 1.64512 15.2033 3.40528L13.2374 5.37261C12.83 5.77998 12.1696 5.77998 11.7623 5.37261C11.3549 4.96663 11.3549 4.30483 11.7623 3.89746L13.7282 1.93014C16.3031 -0.641988 20.4936 -0.644769 23.0685 1.93014C25.6434 4.50643 25.6434 8.69552 23.0685 11.2704L23.0671 11.2718ZM11.7609 19.6291L9.79492 21.5951C8.03337 23.3538 5.16788 23.3566 3.40355 21.5951C1.64199 19.8321 1.64199 16.9666 3.40355 15.2037L7.33681 11.2718C9.04275 9.56448 12.0209 9.56448 13.7268 11.2718C14.1342 11.6792 14.7946 11.6792 15.2019 11.2718C15.6093 10.8658 15.6093 10.204 15.2019 9.79666C13.9562 8.54953 12.2961 7.8627 10.5332 7.8627C8.77025 7.8627 7.11018 8.54953 5.86444 9.79666L1.93118 13.7285C-0.643726 16.3048 -0.643726 20.4925 1.93118 23.0688C3.21863 24.3563 4.91067 25 6.59993 25C8.28919 25 9.98401 24.3563 11.2701 23.0688L13.236 21.1029C13.6434 20.6955 13.6434 20.0351 13.236 19.6277C12.8286 19.2204 12.1682 19.2204 11.7609 19.6277V19.6291Z" fill="#5BC4BF"/>
</svg>
