<svg width="36" height="22" viewBox="0 0 36 22" fill="none" xmlns="http://www.w3.org/2000/svg">
<path d="M34.4759 0H1.12778C0.504961 0 0 0.504961 0 1.12778V20.8722C0 21.495 0.504961 22 1.12778 22H34.4759C35.0988 22 35.6037 21.495 35.6037 20.8722V1.12778C35.6037 0.504891 35.0988 0 34.4759 0ZM33.3482 19.7445H2.25555V2.25555H33.3482V19.7445Z" fill="#1A1F25"/>
<path d="M5.56827 8.85061V14.7482C5.56827 15.371 6.07323 15.8759 6.69604 15.8759C7.31886 15.8759 7.82382 15.371 7.82382 14.7482V7.25129C7.82382 6.34963 6.81362 5.81147 6.06527 6.31636L5.28506 6.84275C4.50048 7.37217 4.68515 8.56535 5.56827 8.85061Z" fill="#5BC4BF"/>
<path d="M14.3375 9.15927L16.0244 8.37765C16.5209 8.23844 17.0735 8.48302 17.3001 8.95049C17.5798 9.52798 17.3122 10.2051 16.7325 10.4427C16.6332 10.4833 16.831 10.3751 14.0174 11.9858C13.3704 12.3562 12.9686 13.0494 12.9686 13.7948C12.9686 14.9321 13.8938 15.8671 15.0309 15.8792C19.5634 15.9271 18.3167 15.9163 18.5398 15.9163C19.157 15.9163 19.6607 15.4192 19.6673 14.8004C19.6739 14.1776 19.1743 13.6673 18.5515 13.6608L15.6847 13.6304L17.6629 12.4979C19.3578 11.754 20.1817 9.72499 19.3298 7.96693C18.492 6.23791 16.421 5.7087 15.1435 6.29993L13.3893 7.11271C12.8241 7.37456 12.5783 8.04502 12.8401 8.61011C13.102 9.1752 13.7723 9.42105 14.3375 9.15927Z" fill="#5BC4BF"/>
<path d="M24.7782 8.23766H27.3664L26.4291 9.18964C25.7286 9.90113 26.2343 11.1087 27.2327 11.1087C27.9997 11.1087 28.6416 11.7691 28.5509 12.5912C28.4065 13.8983 26.6224 14.2071 26.0399 13.0177C25.7659 12.4584 25.0902 12.227 24.531 12.5011C23.9716 12.775 23.7403 13.4507 24.0143 14.01C24.6883 15.3858 26.1655 16.1789 27.6869 15.9896C30.8646 15.5943 32.0071 11.4041 29.2875 9.50147L29.9023 8.87703C30.959 7.80375 30.1975 5.98218 28.69 5.98218H24.7782C24.1554 5.98218 23.6504 6.48714 23.6504 7.10995C23.6504 7.73277 24.1554 8.23766 24.7782 8.23766Z" fill="#5BC4BF"/>
</svg>
