<svg width="22" height="22" viewBox="0 0 22 22" fill="none" xmlns="http://www.w3.org/2000/svg">
<path d="M0.644531 4.90854C1.00048 4.90854 1.28906 4.61996 1.28906 4.264V1.28906H4.264C4.61996 1.28906 4.90854 1.00048 4.90854 0.644531C4.90854 0.288578 4.61996 0 4.264 0H0.644531C0.288578 0 0 0.288578 0 0.644531V4.264C0 4.62 0.288578 4.90854 0.644531 4.90854Z" fill="#5BC4BF"/>
<path d="M21.3558 0H17.7363C17.3804 0 17.0918 0.288578 17.0918 0.644531C17.0918 1.00048 17.3804 1.28906 17.7363 1.28906H20.7113V4.264C20.7113 4.61996 20.9998 4.90854 21.3558 4.90854C21.7118 4.90854 22.0003 4.61996 22.0003 4.264V0.644531C22.0003 0.288578 21.7118 0 21.3558 0Z" fill="#5BC4BF"/>
<path d="M21.3558 17.0918C20.9998 17.0918 20.7113 17.3804 20.7113 17.7363V20.7113H17.7363C17.3804 20.7113 17.0918 20.9998 17.0918 21.3558C17.0918 21.7118 17.3804 22.0003 17.7363 22.0003H21.3558C21.7118 22.0003 22.0003 21.7118 22.0003 21.3558V17.7363C22.0003 17.3803 21.7118 17.0918 21.3558 17.0918Z" fill="#5BC4BF"/>
<path d="M4.264 20.7113H1.28906V17.7363C1.28906 17.3804 1.00048 17.0918 0.644531 17.0918C0.288578 17.0918 0 17.3804 0 17.7363V21.3558C0 21.7118 0.288578 22.0003 0.644531 22.0003H4.264C4.61996 22.0003 4.90854 21.7118 4.90854 21.3558C4.90854 20.9998 4.62 20.7113 4.264 20.7113Z" fill="#5BC4BF"/>
<path d="M18.0323 8.22333V4.1529C18.0323 3.95094 17.8686 3.78723 17.6662 3.78723H11H4.33387C4.13148 3.78723 3.96777 3.95094 3.96777 4.1529V8.22333C3.96777 8.42571 4.13148 8.58942 4.33387 8.58942H6.27777C6.47973 8.58942 6.64344 8.42571 6.64344 8.22333V6.82899C6.64344 6.62661 6.80758 6.4629 7.00953 6.4629H9.2959C9.49828 6.4629 9.66199 6.62661 9.66199 6.82899V16.8897C9.66199 17.0921 9.49828 17.2558 9.2959 17.2558H8.29602C8.09363 17.2558 7.92992 17.4195 7.92992 17.6219V19.5658C7.92992 19.7677 8.09363 19.9314 8.29602 19.9314H11H13.7041C13.9064 19.9314 14.0702 19.7677 14.0702 19.5658V17.6219C14.0702 17.4195 13.9064 17.2558 13.7041 17.2558H12.7042C12.5018 17.2558 12.3381 17.0921 12.3381 16.8897V6.82899C12.3381 6.62661 12.5018 6.4629 12.7042 6.4629H14.9905C15.1925 6.4629 15.3566 6.62661 15.3566 6.82899V8.22333C15.3566 8.42571 15.5204 8.58942 15.7223 8.58942H17.6662C17.8686 8.58942 18.0323 8.42571 18.0323 8.22333Z" fill="#1A1F25"/>
</svg>
