<svg width="22" height="12" viewBox="0 0 22 12" fill="none" xmlns="http://www.w3.org/2000/svg">
<rect x="0.5" y="0.5" width="21" height="11" rx="5.5" fill="#EAECEB" stroke="#1A1F25"/>
<path d="M16.0039 1.5C13.519 1.49808 11.5022 3.51083 11.5 5.99558C11.4978 8.48073 13.5107 10.4978 15.9956 10.5C18.4807 10.5022 20.4978 8.48933 20.5 6.00442V6.00441V6.0044V6.00439V6.00438V6.00437V6.00436V6.00435V6.00434V6.00433V6.00432V6.00431V6.0043V6.00429V6.00428V6.00427V6.00426V6.00425V6.00424V6.00423V6.00422V6.00421V6.0042V6.00419V6.00418V6.00417V6.00416V6.00415V6.00414V6.00413V6.00412V6.00411V6.0041V6.00409V6.00408V6.00407V6.00406V6.00406V6.00405V6.00404V6.00403V6.00402V6.00401V6.004V6.00399V6.00398V6.00397V6.00396V6.00395V6.00394V6.00393V6.00392V6.00391V6.0039V6.00389V6.00388V6.00387V6.00386V6.00385V6.00384V6.00383V6.00382V6.00381V6.0038V6.0038V6.00379V6.00378V6.00377V6.00376V6.00375V6.00374V6.00373V6.00372V6.00371V6.0037V6.00369V6.00368V6.00367V6.00366V6.00365V6.00364V6.00363V6.00362V6.00362V6.00361V6.0036V6.00359V6.00358V6.00357V6.00356V6.00355V6.00354V6.00353V6.00352V6.00351V6.0035V6.00349V6.00349V6.00348V6.00347V6.00346V6.00345V6.00344V6.00343V6.00342V6.00341V6.0034V6.00339V6.00338V6.00337V6.00337V6.00336V6.00335V6.00334V6.00333V6.00332V6.00331V6.0033V6.00329V6.00328V6.00327V6.00326V6.00326V6.00325V6.00324V6.00323V6.00322V6.00321V6.0032V6.00319V6.00318V6.00317V6.00316V6.00316V6.00315V6.00314V6.00313V6.00312V6.00311V6.0031V6.00309V6.00308V6.00307V6.00306V6.00306V6.00305V6.00304V6.00303V6.00302V6.00301V6.003V6.00299V6.00298V6.00297V6.00297V6.00296V6.00295V6.00294V6.00293V6.00292V6.00291V6.0029V6.00289V6.00288V6.00288V6.00287V6.00286V6.00285V6.00284V6.00283V6.00282V6.00281V6.0028V6.0028V6.00279V6.00278V6.00277V6.00276V6.00275V6.00274V6.00273V6.00272V6.00271V6.00271V6.0027V6.00269V6.00268V6.00267V6.00266V6.00265V6.00264V6.00263V6.00263V6.00262V6.00261V6.0026V6.00259V6.00258V6.00257V6.00256V6.00255V6.00255V6.00254V6.00253V6.00252V6.00251V6.0025V6.00249V6.00248V6.00247V6.00247V6.00246V6.00245V6.00244V6.00243V6.00242V6.00241V6.0024V6.00239V6.00239V6.00238V6.00237V6.00236V6.00235V6.00234V6.00233V6.00232V6.00231V6.00231V6.0023V6.00229V6.00228V6.00227V6.00226V6.00225V6.00224V6.00223V6.00222V6.00222V6.00221V6.0022V6.00219V6.00218V6.00217V6.00216V6.00215V6.00214V6.00214V6.00213V6.00212V6.00211V6.0021V6.00209V6.00208V6.00207V6.00206V6.00206V6.00205V6.00204V6.00203V6.00202V6.00201V6.002V6.00199V6.00198V6.00198V6.00197V6.00196V6.00195V6.00194V6.00193V6.00192V6.00191V6.0019V6.00189V6.00188V6.00188V6.00187V6.00186V6.00185V6.00184V6.00183V6.00182V6.00181V6.0018V6.00179V6.00179V6.00178V6.00177V6.00176V6.00175V6.00174V6.00173V6.00172V6.00171V6.0017V6.0017V6.00169V6.00168V6.00167V6.00166V6.00165V6.00164V6.00163V6.00162V6.00161V6.0016V6.0016V6.00159V6.00158V6.00157V6.00156V6.00155V6.00154V6.00153V6.00152V6.00151V6.0015V6.00149V6.00149V6.00148V6.00147V6.00146V6.00145V6.00144V6.00143V6.00142V6.00141V6.0014V6.00139V6.00138V6.00137V6.00137V6.00136V6.00135V6.00134V6.00133V6.00132V6.00131V6.0013V6.00129V6.00128V6.00127V6.00126V6.00125V6.00124V6.00123V6.00123V6.00122V6.00121V6.0012V6.00119V6.00118V6.00117V6.00116V6.00115V6.00114V6.00113V6.00112V6.00111V6.0011V6.00109V6.00108V6.00107V6.00106V6.00106V6.00105V6.00104V6.00103V6.00102V6.00101V6.001V6.00099L16.0039 1.5ZM16.0039 1.5C18.4858 1.50737 20.4948 3.51851 20.5 6.00052L16.0039 1.5Z" fill="#5BC4BF" stroke="#EAECEB"/>
</svg>
