<svg width="22" height="22" viewBox="0 0 22 22" fill="none" xmlns="http://www.w3.org/2000/svg">
<path d="M13.75 0H22V1.71875H13.75V0Z" fill="#1A1F25"/>
<path d="M13.75 5.15625H22V6.875H13.75V5.15625Z" fill="#1A1F25"/>
<path d="M13.75 10.3125H22V12.0312H13.75V10.3125Z" fill="#1A1F25"/>
<path d="M0 15.2969H22V17.0156H0V15.2969Z" fill="#1A1F25"/>
<path d="M0 20.2812H22V22H0V20.2812Z" fill="#1A1F25"/>
<path d="M4.29688 10.3125H2.98805L3.67555 8.59375H8.30728L9.02344 10.3125H7.73438V12.0312H12.0312V10.3125H10.8854L6.58853 0H5.26191L1.13691 10.3125H0V12.0312H4.29688V10.3125ZM5.94417 2.92226L7.59116 6.875H4.36305L5.94417 2.92226Z" fill="#5BC4BF"/>
</svg>
