<svg width="22" height="22" viewBox="0 0 22 22" fill="none" xmlns="http://www.w3.org/2000/svg">
<path d="M11 0C8.82441 0 6.69767 0.645139 4.88873 1.85383C3.07979 3.06253 1.66989 4.78049 0.83733 6.79048C0.00476617 8.80047 -0.213071 11.0122 0.211367 13.146C0.635804 15.2798 1.68345 17.2398 3.22183 18.7782C4.76021 20.3165 6.72022 21.3642 8.85401 21.7886C10.9878 22.2131 13.1995 21.9952 15.2095 21.1627C17.2195 20.3301 18.9375 18.9202 20.1462 17.1113C21.3549 15.3023 22 13.1756 22 11C21.9966 8.08367 20.8365 5.28778 18.7744 3.22563C16.7122 1.16347 13.9163 0.00344047 11 0ZM11 20C9.21997 20 7.47991 19.4722 5.99987 18.4832C4.51983 17.4943 3.36628 16.0887 2.68509 14.4441C2.0039 12.7996 1.82567 10.99 2.17294 9.24419C2.5202 7.49836 3.37737 5.89471 4.63604 4.63604C5.89472 3.37737 7.49836 2.5202 9.24419 2.17293C10.99 1.82567 12.7996 2.0039 14.4442 2.68508C16.0887 3.36627 17.4943 4.51982 18.4832 5.99987C19.4722 7.47991 20 9.21997 20 11C19.9971 13.3861 19.0479 15.6735 17.3607 17.3607C15.6736 19.0479 13.3861 19.9971 11 20Z" fill="#1A1F25"/>
<path d="M12 10.586V5C12 4.73478 11.8946 4.48043 11.7071 4.29289C11.5196 4.10536 11.2652 4 11 4C10.7348 4 10.4804 4.10536 10.2929 4.29289C10.1054 4.48043 10 4.73478 10 5V11C10.0001 11.2652 10.1055 11.5195 10.293 11.707L13.293 14.707C13.4816 14.8892 13.7342 14.99 13.9964 14.9877C14.2586 14.9854 14.5094 14.8802 14.6948 14.6948C14.8802 14.5094 14.9854 14.2586 14.9877 13.9964C14.99 13.7342 14.8892 13.4816 14.707 13.293L12 10.586Z" fill="#5BC4BF"/>
</svg>
