<svg width="17" height="20" viewBox="0 0 17 20" fill="none" xmlns="http://www.w3.org/2000/svg">
<path fill-rule="evenodd" clip-rule="evenodd" d="M4.89564 0.555286C4.89567 0.408155 4.9569 0.267054 5.06586 0.162991C5.17483 0.0589283 5.32262 0.000416044 5.47676 0.000312507L11.2875 0C11.4417 0.000341178 11.5894 0.0590154 11.6984 0.163162C11.8073 0.267309 11.8685 0.408432 11.8686 0.555598V1.92739H4.89564V0.555286ZM14.4497 19.2058C14.4349 19.4221 14.334 19.6248 14.1677 19.7725C14.0015 19.9201 13.7823 20.0015 13.5553 20H3.14223C2.91521 19.9994 2.69683 19.9168 2.53094 19.7689C2.36504 19.621 2.26393 19.4186 2.24789 19.2025L1.35682 6.76007H15.4007L14.4499 19.2057L14.4497 19.2058ZM16.7647 5.63317H0V4.34408C0.000249224 4.00219 0.142624 3.67436 0.395863 3.43258C0.649103 3.1908 0.992509 3.05483 1.35068 3.05452L15.4138 3.05409C15.772 3.05462 16.1153 3.19071 16.3684 3.43252C16.6216 3.67432 16.764 4.0021 16.7643 4.34396V5.63306L16.7647 5.63317ZM5.68297 17.0339C5.68297 17.1078 5.69824 17.1811 5.7279 17.2495C5.75756 17.3178 5.80103 17.3799 5.85583 17.4322C5.91064 17.4845 5.9757 17.526 6.04731 17.5543C6.11892 17.5827 6.19566 17.5972 6.27317 17.5972C6.35067 17.5972 6.42742 17.5827 6.49903 17.5543C6.57063 17.526 6.6357 17.4845 6.6905 17.4322C6.74531 17.3799 6.78878 17.3178 6.81844 17.2495C6.8481 17.1811 6.86337 17.1078 6.86337 17.0339V9.13341C6.86213 8.98483 6.79944 8.84274 6.68895 8.73807C6.57846 8.63341 6.42913 8.57466 6.27347 8.57461C6.11782 8.57455 5.96844 8.63321 5.85788 8.7378C5.74732 8.84239 5.68452 8.98444 5.68317 9.13302V17.0339H5.68297ZM9.894 17.0339C9.894 17.1833 9.95619 17.3266 10.0669 17.4323C10.1776 17.5379 10.3277 17.5973 10.4843 17.5973C10.6408 17.5973 10.791 17.5379 10.9017 17.4323C11.0124 17.3266 11.0746 17.1833 11.0746 17.0339V9.13341C11.0733 8.98481 11.0106 8.8427 10.9001 8.73802C10.7896 8.63334 10.6403 8.57458 10.4846 8.57453C10.3289 8.57448 10.1795 8.63314 10.0689 8.73774C9.95836 8.84235 9.89555 8.98442 9.89421 9.13302L9.894 17.0339Z" fill="#FC0005"/>
</svg>
